<svg width="300" height="300" viewBox="0 0 300 300" fill="none" xmlns="http://www.w3.org/2000/svg">
<g clip-path="url(#clip0_522_2236)">
<g filter="url(#filter0_d_522_2236)">
<path d="M120.238 155.963L118.523 215L72.5352 203.486L71.0645 149.349L120.238 155.963ZM148.164 200.302L119.503 215L121.463 155.718L152.819 149.594L148.164 200.302ZM152.819 148.859L120.729 154.738L71 148.124L118.523 142L152.819 148.859Z" fill="white"/>
</g>
<g filter="url(#filter1_d_522_2236)">
<path d="M197.238 155.963L195.523 215L149.535 203.486L148.064 149.349L197.238 155.963ZM225.164 200.302L196.503 215L198.463 155.718L229.819 149.594L225.164 200.302ZM229.819 148.859L197.729 154.738L148 148.124L195.523 142L229.819 148.859Z" fill="#5283FF"/>
</g>
<g filter="url(#filter2_d_522_2236)">
<path d="M156.238 97.9629L154.523 157L108.535 145.486L107.064 91.3486L156.238 97.9629ZM184.164 142.302L155.503 157L157.463 97.7178L188.819 91.5938L184.164 142.302ZM188.819 90.8594L156.729 96.7383L107 90.124L154.523 84L188.819 90.8594Z" fill="#242424"/>
</g>
</g>
<defs>
<filter id="filter0_d_522_2236" x="57" y="128" width="111.819" height="103" filterUnits="userSpaceOnUse" color-interpolation-filters="sRGB">
<feFlood flood-opacity="0" result="BackgroundImageFix"/>
<feColorMatrix in="SourceAlpha" type="matrix" values="0 0 0 0 0 0 0 0 0 0 0 0 0 0 0 0 0 0 127 0" result="hardAlpha"/>
<feOffset dx="1" dy="1"/>
<feGaussianBlur stdDeviation="7.5"/>
<feComposite in2="hardAlpha" operator="out"/>
<feColorMatrix type="matrix" values="0 0 0 0 0.792969 0 0 0 0 0.792969 0 0 0 0 0.792969 0 0 0 1 0"/>
<feBlend mode="normal" in2="BackgroundImageFix" result="effect1_dropShadow_522_2236"/>
<feBlend mode="normal" in="SourceGraphic" in2="effect1_dropShadow_522_2236" result="shape"/>
</filter>
<filter id="filter1_d_522_2236" x="134" y="128" width="111.819" height="103" filterUnits="userSpaceOnUse" color-interpolation-filters="sRGB">
<feFlood flood-opacity="0" result="BackgroundImageFix"/>
<feColorMatrix in="SourceAlpha" type="matrix" values="0 0 0 0 0 0 0 0 0 0 0 0 0 0 0 0 0 0 127 0" result="hardAlpha"/>
<feOffset dx="1" dy="1"/>
<feGaussianBlur stdDeviation="7.5"/>
<feComposite in2="hardAlpha" operator="out"/>
<feColorMatrix type="matrix" values="0 0 0 0 0.792157 0 0 0 0 0.792157 0 0 0 0 0.792157 0 0 0 0.15 0"/>
<feBlend mode="normal" in2="BackgroundImageFix" result="effect1_dropShadow_522_2236"/>
<feBlend mode="normal" in="SourceGraphic" in2="effect1_dropShadow_522_2236" result="shape"/>
</filter>
<filter id="filter2_d_522_2236" x="93" y="70" width="111.819" height="103" filterUnits="userSpaceOnUse" color-interpolation-filters="sRGB">
<feFlood flood-opacity="0" result="BackgroundImageFix"/>
<feColorMatrix in="SourceAlpha" type="matrix" values="0 0 0 0 0 0 0 0 0 0 0 0 0 0 0 0 0 0 127 0" result="hardAlpha"/>
<feOffset dx="1" dy="1"/>
<feGaussianBlur stdDeviation="7.5"/>
<feComposite in2="hardAlpha" operator="out"/>
<feColorMatrix type="matrix" values="0 0 0 0 0.792157 0 0 0 0 0.792157 0 0 0 0 0.792157 0 0 0 0.15 0"/>
<feBlend mode="normal" in2="BackgroundImageFix" result="effect1_dropShadow_522_2236"/>
<feBlend mode="normal" in="SourceGraphic" in2="effect1_dropShadow_522_2236" result="shape"/>
</filter>
<clipPath id="clip0_522_2236">
<rect width="300" height="300" fill="white"/>
</clipPath>
</defs>
</svg>
