<svg width="120" height="120" viewBox="0 0 120 120" fill="none" xmlns="http://www.w3.org/2000/svg">
<path d="M120 91.7759H0V91.8359H120V91.7759Z" fill="#EBEBEB"/>
<path d="M75.7608 93.4104H69.6504V93.4704H75.7608V93.4104Z" fill="#EBEBEB"/>
<path d="M109.305 94.7087H94.8262V94.7687H109.305V94.7087Z" fill="#EBEBEB"/>
<path d="M68.3498 93.4392H53.3906V93.4992H68.3498V93.4392Z" fill="#EBEBEB"/>
<path d="M43.6897 95.2344H40.5601V95.2944H43.6897V95.2344Z" fill="#EBEBEB"/>
<path d="M60.9817 95.2344H46.7305V95.2944H60.9817V95.2344Z" fill="#EBEBEB"/>
<path d="M21.8183 94.2214H12.5903V94.2814H21.8183V94.2214Z" fill="#EBEBEB"/>
<path d="M56.88 81.0719H10.5384C10.1754 81.0713 9.82742 80.9267 9.57094 80.6697C9.31446 80.4128 9.17041 80.0646 9.17041 79.7015V14.5584C9.17357 14.1974 9.31902 13.8523 9.57516 13.5979C9.8313 13.3436 10.1774 13.2006 10.5384 13.2H56.88C57.2435 13.2 57.592 13.3443 57.849 13.6013C58.106 13.8583 58.2504 14.2069 58.2504 14.5704V79.7015C58.2504 80.065 58.106 80.4136 57.849 80.6706C57.592 80.9276 57.2435 81.0719 56.88 81.0719ZM10.5384 13.248C10.1913 13.2486 9.8586 13.3869 9.61337 13.6326C9.36814 13.8783 9.23041 14.2112 9.23041 14.5584V79.7015C9.23041 80.0487 9.36814 80.3816 9.61337 80.6273C9.8586 80.873 10.1913 81.0113 10.5384 81.0119H56.88C57.2274 81.0113 57.5603 80.873 57.8059 80.6274C58.0515 80.3818 58.1898 80.0489 58.1904 79.7015V14.5584C58.1898 14.211 58.0515 13.8781 57.8059 13.6325C57.5603 13.3868 57.2274 13.2486 56.88 13.248H10.5384Z" fill="#EBEBEB"/>
<path d="M108.794 81.0719H62.4505C62.0872 81.0713 61.739 80.9267 61.4822 80.6699C61.2253 80.413 61.0807 80.0648 61.0801 79.7015V14.5584C61.0839 14.1972 61.2298 13.852 61.4864 13.5978C61.7429 13.3435 62.0893 13.2006 62.4505 13.2H108.794C109.155 13.2012 109.501 13.3445 109.756 13.5988C110.012 13.853 110.157 14.1978 110.16 14.5584V79.7015C110.16 80.0642 110.016 80.412 109.76 80.6689C109.504 80.9257 109.157 81.0707 108.794 81.0719ZM62.4505 13.248C62.1031 13.2486 61.7702 13.3868 61.5246 13.6325C61.279 13.8781 61.1407 14.211 61.1401 14.5584V79.7015C61.1407 80.0489 61.279 80.3818 61.5246 80.6274C61.7702 80.873 62.1031 81.0113 62.4505 81.0119H108.794C109.142 81.0113 109.475 80.873 109.72 80.6274C109.966 80.3818 110.104 80.0489 110.105 79.7015V14.5584C110.104 14.211 109.966 13.8781 109.72 13.6325C109.475 13.3868 109.142 13.2486 108.794 13.248H62.4505Z" fill="#EBEBEB"/>
<path d="M47.0304 70.9608H31.0944L30.1272 59.8008H46.0632L47.0304 70.9608Z" fill="#E6E6E6"/>
<path d="M47.8561 70.9608H31.9201L30.9529 59.8008H46.8889L47.8561 70.9608Z" fill="#F0F0F0"/>
<path d="M34.0992 68.5632L33.5664 62.196H44.7096L45.2424 68.5632H34.0992Z" fill="white"/>
<path d="M50.6135 70.9607H48.7439V91.7759H50.6135V70.9607Z" fill="#E6E6E6"/>
<path d="M51.2039 70.9607H49.9055V91.7759H51.2039V70.9607Z" fill="#F0F0F0"/>
<path d="M33.1057 73.2576H51.2041V70.9608H33.1057V73.2576Z" fill="#F0F0F0"/>
<path d="M33.7441 73.2576H31.8745V91.776H33.7441V73.2576Z" fill="#E6E6E6"/>
<path d="M34.3343 73.2576H33.0359V91.776H34.3343V73.2576Z" fill="#F0F0F0"/>
<path d="M20.436 73.2576H18.5664V91.776H20.436V73.2576Z" fill="#E6E6E6"/>
<path d="M21.0264 73.2576H19.728V91.776H21.0264V73.2576Z" fill="#F0F0F0"/>
<path d="M38.7817 73.2576H36.9121V91.776H38.7817V73.2576Z" fill="#E6E6E6"/>
<path d="M39.3697 73.2576H38.0713V91.776H39.3697V73.2576Z" fill="#F0F0F0"/>
<path d="M33.1056 70.9607H18.5664V73.2575H33.1056V70.9607Z" fill="#E6E6E6"/>
<path d="M87.3217 19.0583H31.0825V50.3687H87.3217V19.0583Z" fill="#E0E0E0"/>
<path d="M90.4105 19.0583H31.3657V50.3687H90.4105V19.0583Z" fill="#F5F5F5"/>
<path d="M89.4458 49.404V20.0232L32.3306 20.0232V49.404H89.4458Z" fill="white"/>
<path d="M55.4569 49.404L66.2401 20.0232H48.4441L37.6609 49.404H55.4569Z" fill="#F5F5F5"/>
<path d="M72.5858 49.404L83.369 20.0232H69.9434L59.1602 49.404H72.5858Z" fill="#F5F5F5"/>
<path d="M105.147 61.8721H100.366V91.7761H105.147V61.8721Z" fill="#E6E6E6"/>
<path d="M103.889 91.776H105.146V89.4744H102.571L103.889 91.776Z" fill="#FAFAFA"/>
<path d="M61.0679 61.8721H56.2871V91.7761H61.0679V61.8721Z" fill="#E6E6E6"/>
<path d="M105.146 61.8721H59.9712V91.1545H105.146V61.8721Z" fill="#FAFAFA"/>
<path d="M104.292 71.3207H60.8281V63.0503H104.292V71.3207ZM61.0681 71.0807H104.052V63.2903H61.0681V71.0807Z" fill="#E6E6E6"/>
<path d="M96.6407 67.0656H69.3215C68.0543 67.0656 66.8327 66.0432 65.9615 64.2576L65.8799 64.0872H100.08L99.9983 64.2576C99.1199 66.0432 97.9199 67.0656 96.6407 67.0656ZM66.2735 64.32C67.0847 65.9112 68.1935 66.8184 69.3215 66.8184H96.6407C97.7735 66.8184 98.8775 65.9112 99.6887 64.32H66.2735Z" fill="#E6E6E6"/>
<path d="M61.2288 91.776H59.9712V89.4744H62.5464L61.2288 91.776Z" fill="#FAFAFA"/>
<path d="M104.292 80.64H60.8281V72.3792H104.292V80.64ZM61.0681 80.4H104.052V72.6192H61.0681V80.4Z" fill="#E6E6E6"/>
<path d="M96.6407 76.3944H69.3215C68.0543 76.3944 66.8327 75.3696 65.9615 73.5864L65.8799 73.4136H100.08L99.9983 73.5864C99.1199 75.36 97.9199 76.3944 96.6407 76.3944ZM66.2735 73.6536C67.0847 75.2448 68.1935 76.1544 69.3215 76.1544H96.6407C97.7735 76.1544 98.8775 75.2448 99.6887 73.6536H66.2735Z" fill="#E6E6E6"/>
<path d="M104.292 89.976H60.8281V81.7056H104.292V89.976ZM61.0681 89.736H104.052V81.9456H61.0681V89.736Z" fill="#E6E6E6"/>
<path d="M96.6407 85.7208H69.3215C68.0543 85.7208 66.8327 84.6984 65.9615 82.9152L65.8799 82.7424H100.08L99.9983 82.9152C99.1199 84.6984 97.9199 85.7208 96.6407 85.7208ZM66.2735 82.9824C67.0847 84.5736 68.1935 85.4808 69.3215 85.4808H96.6407C97.7735 85.4808 98.8775 84.5736 99.6887 82.9824H66.2735Z" fill="#E6E6E6"/>
<path d="M29.0351 65.8271V66.408H28.6655L28.3583 70.9608H23.8367L23.5319 66.408H23.1599V65.8271H29.0351Z" fill="#E6E6E6"/>
<path d="M27.5473 54.5304C27.1777 51.8184 23.5177 51.0456 18.8737 50.9448C14.4553 50.8512 13.0393 49.2888 13.0393 49.2888C13.0393 49.2888 13.0537 55.6176 19.4209 57.912C25.4665 60.0864 27.9193 57.2472 27.5473 54.5304Z" fill="#E6E6E6"/>
<path d="M25.2913 60.6769C25.3681 59.5633 27.1489 57.5137 31.4329 58.4449C34.5289 59.1193 35.6809 57.5137 35.6809 57.5137C35.6809 57.5137 35.3929 62.0449 30.7369 63.4057C26.3137 64.6993 25.1545 62.6401 25.2913 60.6769Z" fill="#E6E6E6"/>
<path d="M26.2681 67.5359C26.2922 67.5361 26.3161 67.5311 26.3381 67.5211C26.36 67.5112 26.3796 67.4965 26.3953 67.4783C26.7049 67.1111 26.4505 66.2327 26.1001 65.0159C25.6489 63.4559 25.0873 61.5119 25.5625 60.1031C25.8259 59.3589 26.1336 58.6312 26.4841 57.9239C27.1561 56.5031 27.7369 55.2839 27.2521 53.9927C27.2445 53.9721 27.233 53.9533 27.2181 53.9372C27.2032 53.9212 27.1853 53.9083 27.1654 53.8992C27.1454 53.8901 27.1239 53.8851 27.102 53.8844C27.0802 53.8837 27.0584 53.8873 27.0379 53.8951C27.0174 53.9028 26.9987 53.9146 26.9828 53.9296C26.9669 53.9447 26.9542 53.9628 26.9453 53.9828C26.9364 54.0028 26.9316 54.0243 26.9311 54.0462C26.9307 54.0681 26.9345 54.0899 26.9425 54.1103C27.3769 55.2599 26.8513 56.3735 26.1841 57.7847C25.8292 58.5034 25.5167 59.2422 25.2481 59.9975C24.7417 61.5047 25.3177 63.5039 25.7809 65.1071C26.0545 66.0671 26.3377 67.0271 26.1433 67.2671C26.1279 67.2836 26.1161 67.3032 26.1086 67.3246C26.1012 67.346 26.0982 67.3687 26.1001 67.3913C26.1019 67.4139 26.1083 67.4358 26.1191 67.4557C26.1298 67.4757 26.1446 67.4932 26.1625 67.5071C26.1932 67.5289 26.2306 67.5391 26.2681 67.5359Z" fill="#E6E6E6"/>
<path d="M59.9999 102.615C85.6997 102.615 106.534 101.398 106.534 99.8977C106.534 98.3973 85.6997 97.1809 59.9999 97.1809C34.3001 97.1809 13.4663 98.3973 13.4663 99.8977C13.4663 101.398 34.3001 102.615 59.9999 102.615Z" fill="#F5F5F5"/>
<path d="M59.9905 86.6521H25.9105L24.0457 31.8433H58.1257L59.9905 86.6521Z" fill="#242424"/>
<path d="M61.6921 84.9504H27.6121L25.7449 30.1416H59.8249L61.6921 84.9504Z" fill="#242424"/>
<path opacity="0.3" d="M61.6921 84.9504H27.6121L25.7449 30.1416H59.8249L61.6921 84.9504Z" fill="white"/>
<path d="M50.2736 52.6954C53.9226 48.9834 53.7674 42.9137 49.9268 39.1384C46.0863 35.363 40.0149 35.3116 36.3659 39.0235C32.7169 42.7355 32.8721 48.8052 36.7126 52.5805C40.5531 56.3559 46.6246 56.4073 50.2736 52.6954Z" fill="#242424"/>
<path d="M51.2328 45.8616C51.2819 47.1676 50.9969 48.4645 50.4048 49.6296C49.7658 50.8852 48.7895 51.9379 47.5856 52.6696C46.3816 53.4013 44.9976 53.783 43.5888 53.772C42.1469 53.7642 40.7324 53.3774 39.4872 52.6503C38.242 51.9232 37.2099 50.8815 36.4944 49.6296C35.8273 48.4824 35.4546 47.1879 35.4096 45.8616C35.3653 44.8332 35.5306 43.8066 35.8954 42.844C36.2602 41.8815 36.8168 41.0032 37.5315 40.2624C38.2462 39.5217 39.1041 38.934 40.053 38.535C41.0018 38.136 42.0219 37.9341 43.0512 37.9416C45.1717 37.9566 47.2049 38.7879 48.7285 40.2628C50.2521 41.7376 51.1489 43.7427 51.2328 45.8616Z" fill="white"/>
<path opacity="0.6" d="M50.4001 49.6297C49.7611 50.8853 48.7848 51.938 47.5809 52.6697C46.377 53.4014 44.993 53.7831 43.5841 53.7721C42.1422 53.7643 40.7277 53.3775 39.4825 52.6504C38.2373 51.9234 37.2052 50.8816 36.4897 49.6297C38.5195 48.2459 40.9212 47.5103 43.3777 47.5201C45.8739 47.5255 48.3143 48.2586 50.4001 49.6297Z" fill="#242424"/>
<path opacity="0.6" d="M45.7852 45.6642C47.127 44.2993 47.0699 42.0674 45.6577 40.6792C44.2455 39.291 42.013 39.2721 40.6712 40.637C39.3294 42.0019 39.3865 44.2338 40.7987 45.622C42.2109 47.0103 44.4434 47.0292 45.7852 45.6642Z" fill="#242424"/>
<path d="M54.8448 65.1025H33.1056L32.9592 60.7825H54.6984L54.8448 65.1025Z" fill="white"/>
<path d="M55.1089 72.8232H33.3673L33.2209 68.5032H54.9625L55.1089 72.8232Z" fill="white"/>
<path d="M46.7185 69.0984L41.4793 69.8184C41.4293 69.8241 41.381 69.8401 41.3375 69.8653C41.294 69.8906 41.2561 69.9245 41.2264 69.9651C41.1966 70.0057 41.1756 70.052 41.1646 70.1011C41.1536 70.1502 41.1529 70.201 41.1625 70.2504L41.8513 73.7616C41.8738 73.8646 41.9341 73.9555 42.0202 74.0164C42.1064 74.0772 42.2122 74.1036 42.3169 74.0904L47.5561 73.3704C47.6059 73.3641 47.654 73.3476 47.6972 73.322C47.7405 73.2963 47.778 73.2621 47.8075 73.2214C47.8369 73.1807 47.8577 73.1343 47.8686 73.0852C47.8794 73.0361 47.8801 72.9853 47.8705 72.936L47.1841 69.4248C47.1615 69.3219 47.1011 69.2313 47.0149 69.1708C46.9287 69.1104 46.8229 69.0845 46.7185 69.0984ZM45.2137 72.6552L44.2537 72.7824L44.1601 71.6496C44.0611 71.6068 43.974 71.5409 43.9059 71.4573C43.8378 71.3738 43.7908 71.2751 43.7689 71.1696C43.7512 71.0879 43.7509 71.0033 43.768 70.9215C43.7851 70.8396 43.8192 70.7622 43.868 70.6944C43.9169 70.6265 43.9795 70.5697 44.0517 70.5275C44.1239 70.4853 44.2041 70.4588 44.2873 70.4496C44.4577 70.4277 44.6302 70.4705 44.7706 70.5696C44.9111 70.6687 45.0092 70.8168 45.0457 70.9848C45.0665 71.0862 45.0601 71.1914 45.0272 71.2896C44.9944 71.3877 44.9361 71.4755 44.8585 71.544L45.2137 72.6552Z" fill="#242424"/>
<path d="M46.2001 68.9087C46.1074 68.9205 46.0137 68.8972 45.9374 68.8435C45.861 68.7898 45.8075 68.7095 45.7873 68.6183L45.7201 68.2751C45.6242 67.8068 45.3616 67.3891 44.9812 67.0996C44.6008 66.8101 44.1282 66.6683 43.6513 66.7007C43.4106 66.7144 43.1757 66.7798 42.9625 66.8924C42.7493 67.0049 42.5628 67.162 42.4157 67.3531C42.2686 67.5441 42.1644 67.7645 42.1101 67.9994C42.0557 68.2343 42.0526 68.4781 42.1009 68.7143L42.1777 69.1103C42.1866 69.1542 42.1863 69.1995 42.1767 69.2432C42.1672 69.287 42.1486 69.3282 42.1221 69.3644C42.0957 69.4005 42.062 69.4308 42.0232 69.4531C41.9844 69.4755 41.9414 69.4895 41.8969 69.4943C41.8041 69.5072 41.7098 69.4845 41.6332 69.4305C41.5565 69.3766 41.5032 69.2956 41.4841 69.2039L41.4193 68.8703C41.3534 68.5585 41.3512 68.2367 41.4128 67.924C41.4745 67.6114 41.5987 67.3144 41.7781 67.051C41.9574 66.7876 42.1882 66.5632 42.4565 66.3912C42.7247 66.2192 43.025 66.1033 43.3393 66.0503C44.0206 65.9359 44.7198 66.0882 45.2919 66.4757C45.8639 66.8631 46.2647 67.4559 46.4113 68.1311L46.4881 68.5247C46.497 68.5691 46.4965 68.615 46.4865 68.6592C46.4765 68.7034 46.4573 68.745 46.4301 68.7812C46.4029 68.8175 46.3683 68.8476 46.3287 68.8696C46.2891 68.8915 46.2452 68.9049 46.2001 68.9087Z" fill="#242424"/>
<path d="M51.5208 78.8736H37.368L37.2744 76.0608H51.4248L51.5208 78.8736Z" fill="#242424"/>
<path d="M44.6928 62.9425C44.6971 63.045 44.6804 63.1474 44.6439 63.2434C44.6074 63.3394 44.5517 63.4269 44.4804 63.5007C44.409 63.5746 44.3234 63.6331 44.2287 63.6729C44.1341 63.7127 44.0323 63.7328 43.9296 63.732C43.718 63.7304 43.5151 63.6476 43.3628 63.5006C43.2105 63.3537 43.1205 63.1539 43.1112 62.9425C43.107 62.8399 43.1237 62.7375 43.1602 62.6415C43.1967 62.5455 43.2523 62.458 43.3237 62.3842C43.395 62.3103 43.4807 62.2518 43.5753 62.212C43.67 62.1722 43.7718 62.1521 43.8744 62.1529C44.0862 62.1539 44.2895 62.2366 44.4419 62.3836C44.5943 62.5307 44.6842 62.7308 44.6928 62.9425Z" fill="#263238"/>
<path d="M41.28 62.9425C41.2846 63.0451 41.2682 63.1477 41.2318 63.2438C41.1954 63.3399 41.1398 63.4276 41.0684 63.5015C40.9969 63.5754 40.9112 63.634 40.8164 63.6736C40.7215 63.7132 40.6196 63.7331 40.5168 63.732C40.3055 63.7304 40.1028 63.6475 39.9509 63.5005C39.799 63.3535 39.7095 63.1537 39.7008 62.9425C39.6966 62.8399 39.7133 62.7375 39.7498 62.6415C39.7863 62.5455 39.8419 62.458 39.9133 62.3842C39.9846 62.3103 40.0703 62.2518 40.1649 62.212C40.2596 62.1722 40.3614 62.1521 40.464 62.1529C40.6756 62.1539 40.8786 62.2367 41.0306 62.3838C41.1826 62.5309 41.272 62.731 41.28 62.9425Z" fill="#263238"/>
<path d="M37.8889 62.9425C37.8932 63.045 37.8765 63.1474 37.84 63.2434C37.8035 63.3394 37.7478 63.4269 37.6765 63.5007C37.6051 63.5746 37.5195 63.6331 37.4248 63.6729C37.3302 63.7127 37.2284 63.7328 37.1257 63.732C36.9142 63.731 36.7112 63.6482 36.5592 63.5011C36.4071 63.354 36.3178 63.1539 36.3097 62.9425C36.3055 62.8399 36.3222 62.7375 36.3587 62.6415C36.3952 62.5455 36.4508 62.458 36.5222 62.3842C36.5935 62.3103 36.6791 62.2518 36.7738 62.212C36.8685 62.1722 36.9702 62.1521 37.0729 62.1529C37.2845 62.1539 37.4875 62.2367 37.6395 62.3838C37.7915 62.5309 37.8809 62.731 37.8889 62.9425Z" fill="#263238"/>
<path d="M48.0936 62.9424C48.0978 63.045 48.0812 63.1474 48.0446 63.2433C48.0081 63.3393 47.9525 63.4268 47.8811 63.5007C47.8098 63.5745 47.7242 63.6331 47.6295 63.6728C47.5348 63.7126 47.4331 63.7327 47.3304 63.732C47.1188 63.7309 46.9158 63.6482 46.7638 63.501C46.6118 63.3539 46.5224 63.1538 46.5144 62.9424C46.5108 62.8401 46.528 62.7381 46.565 62.6427C46.602 62.5473 46.658 62.4603 46.7296 62.3872C46.8012 62.314 46.8869 62.2562 46.9815 62.2171C47.0761 62.178 47.1776 62.1586 47.28 62.16C47.4899 62.1616 47.6913 62.2436 47.8426 62.3891C47.994 62.5347 48.0838 62.7327 48.0936 62.9424Z" fill="#263238"/>
<path d="M51.4944 62.9425C51.499 63.0451 51.4826 63.1477 51.4462 63.2438C51.4098 63.3399 51.3542 63.4276 51.2827 63.5015C51.2113 63.5754 51.1255 63.634 51.0307 63.6736C50.9359 63.7132 50.834 63.7331 50.7312 63.732C50.5198 63.7304 50.3172 63.6475 50.1653 63.5005C50.0134 63.3535 49.9238 63.1537 49.9152 62.9425C49.911 62.8399 49.9276 62.7375 49.9641 62.6415C50.0007 62.5455 50.0563 62.458 50.1276 62.3842C50.199 62.3103 50.2846 62.2518 50.3793 62.212C50.474 62.1722 50.5757 62.1521 50.6784 62.1529C50.89 62.1539 51.0929 62.2367 51.245 62.3838C51.397 62.5309 51.4864 62.731 51.4944 62.9425Z" fill="#263238"/>
<path d="M80.1385 41.8271C80.4577 42.3407 80.7241 42.8303 80.9977 43.3415C81.2713 43.8527 81.5185 44.3663 81.7609 44.8919C82.2555 45.9562 82.6647 47.0581 82.9849 48.1871C83.0281 48.3287 83.0593 48.4799 83.0953 48.6263L83.1481 48.8495L83.1745 48.9599L83.2057 49.1423C83.2598 49.5561 83.2345 49.9764 83.1313 50.3807C82.9656 51.0085 82.7136 51.6103 82.3825 52.1687C81.7902 53.1837 81.0743 54.1212 80.2513 54.9599L79.2409 54.1968C79.748 53.2644 80.1992 52.3027 80.5921 51.3168C80.7671 50.8823 80.8903 50.4288 80.9593 49.9655C80.9813 49.8241 80.9748 49.6796 80.9401 49.5407L80.8441 49.2479C80.8057 49.1279 80.7697 49.0079 80.7241 48.8855C80.359 47.8954 79.9367 46.9274 79.4593 45.9863C78.9793 45.0263 78.4633 44.0663 77.9473 43.1495L80.1385 41.8271Z" fill="#FF8B7B"/>
<path d="M79.4975 53.8633L78.3936 54.4465L79.6608 55.9297C79.6608 55.9297 80.4527 55.3945 80.4887 54.5785L79.4975 53.8633Z" fill="#FF8B7B"/>
<path d="M76.9126 55.3609L78.2686 56.4385L79.6606 55.9297L78.3934 54.4465L76.9126 55.3609Z" fill="#FF8B7B"/>
<path d="M72.276 33.9746C72.2496 34.109 72.156 34.2026 72.0696 34.1858C71.9832 34.169 71.9328 34.0442 71.9592 33.9122C71.9856 33.7802 72.0792 33.6722 72.168 33.701C72.2568 33.7298 72.3024 33.8402 72.276 33.9746Z" fill="#263238"/>
<path d="M72.1681 34.2048C71.9264 34.5808 71.6341 34.9216 71.2993 35.2176C71.3784 35.2996 71.4742 35.3634 71.5803 35.4049C71.6863 35.4463 71.8001 35.4643 71.9137 35.4576L72.1681 34.2048Z" fill="#FF5652"/>
<path d="M71.7358 38.9138V37.3394L73.819 37.5794C73.819 37.5794 73.7854 38.933 72.619 39.3314L71.7358 38.9138Z" fill="#FF8B7B"/>
<path d="M72.336 36.2065L73.8024 36.6289L73.8288 37.5913L71.7456 37.3393L72.336 36.2065Z" fill="#FF8B7B"/>
<path opacity="0.2" d="M73.8023 36.6289L72.3359 36.2065L72.0503 36.7537C72.0659 37.1849 72.2006 37.6033 72.4396 37.9626C72.6785 38.3218 73.0123 38.6079 73.4039 38.7889C73.6558 38.437 73.8031 38.021 73.8287 37.5889L73.8023 36.6289Z" fill="black"/>
<path d="M72.9145 33.3336C72.9299 33.3332 72.9449 33.3285 72.9577 33.3199C72.9705 33.3114 72.9806 33.2994 72.9869 33.2853C72.9931 33.2713 72.9953 33.2557 72.9931 33.2405C72.991 33.2253 72.9845 33.2109 72.9745 33.1992C72.8902 33.104 72.7844 33.0304 72.6658 32.9845C72.5472 32.9385 72.4194 32.9216 72.2929 32.9352C72.2723 32.9387 72.2538 32.9503 72.2417 32.9674C72.2295 32.9845 72.2247 33.0057 72.2281 33.0264C72.2317 33.0472 72.2432 33.0659 72.2602 33.0784C72.2772 33.091 72.2984 33.0964 72.3193 33.0936C72.4195 33.0838 72.5205 33.098 72.6141 33.1352C72.7076 33.1724 72.7909 33.2313 72.8569 33.3072C72.8643 33.3152 72.8732 33.3217 72.8831 33.3262C72.893 33.3308 72.9037 33.3333 72.9145 33.3336Z" fill="#263238"/>
<path d="M75.9813 36.4033C75.7413 37.6393 75.5925 39.3505 76.4613 40.1737C76.4613 40.1737 76.1253 41.4265 73.8213 41.4265C71.2989 41.4265 72.6093 40.3273 72.6093 40.3273C73.6581 40.0009 73.6485 38.8081 73.4085 37.8481L75.9813 36.4033Z" fill="#FF8B7B"/>
<path d="M76.9294 40.9991C77.155 40.6823 77.1454 39.6767 76.9054 39.4991C76.519 39.2135 74.8606 39.1463 72.631 39.6599C72.871 40.6343 72.355 41.1431 72.355 41.1431L76.9294 40.9991Z" fill="#242424"/>
<path d="M84.432 97.9776C84.3635 98.0017 84.2909 98.012 84.2184 98.0079C84.1459 98.0038 84.0749 97.9853 84.0096 97.9536C83.9848 97.9306 83.9678 97.9004 83.9609 97.8673C83.9541 97.8342 83.9576 97.7998 83.9712 97.7688C83.9787 97.7429 83.9919 97.7189 84.0097 97.6986C84.0275 97.6782 84.0496 97.6621 84.0744 97.6512C84.3024 97.5408 84.8256 97.7544 84.8496 97.764C84.8567 97.7669 84.8628 97.7719 84.8671 97.7783C84.8714 97.7847 84.8736 97.7923 84.8736 97.8C84.8735 97.8077 84.8715 97.8153 84.8677 97.822C84.8639 97.8287 84.8585 97.8344 84.852 97.8384C84.7166 97.8979 84.576 97.9445 84.432 97.9776ZM84.156 97.7064C84.1401 97.7102 84.1248 97.7158 84.1104 97.7232C84.0954 97.7287 84.0819 97.7376 84.0711 97.7493C84.0602 97.761 84.0523 97.7751 84.048 97.7904C84.0264 97.8624 84.048 97.8864 84.0624 97.8936C84.1536 97.9704 84.4896 97.8936 84.7272 97.8048C84.5464 97.73 84.3513 97.6964 84.156 97.7064Z" fill="#242424"/>
<path d="M84.8423 97.841H84.8231C84.6311 97.7858 84.2231 97.4954 84.2183 97.3058C84.2181 97.2756 84.2282 97.2463 84.247 97.2228C84.2658 97.1992 84.292 97.1827 84.3215 97.1762C84.3499 97.1655 84.3804 97.1613 84.4107 97.1638C84.441 97.1663 84.4703 97.1754 84.4967 97.1906C84.7223 97.3058 84.8663 97.7714 84.8711 97.793C84.8744 97.7988 84.8762 97.8054 84.8762 97.8122C84.8762 97.8189 84.8744 97.8255 84.8711 97.8314C84.8674 97.8351 84.8628 97.8379 84.8578 97.8396C84.8528 97.8413 84.8475 97.8417 84.8423 97.841ZM84.3623 97.2434H84.3431C84.2951 97.2602 84.2951 97.2842 84.2951 97.2962C84.2951 97.409 84.5687 97.637 84.7751 97.7282C84.7247 97.5938 84.6143 97.3274 84.4679 97.2482C84.4354 97.2334 84.3984 97.2317 84.3647 97.2434H84.3623Z" fill="#242424"/>
<path d="M71.9662 98.2609C71.7502 98.2609 71.5414 98.2297 71.4718 98.1337C71.4536 98.1081 71.4438 98.0775 71.4438 98.0461C71.4438 98.0147 71.4536 97.9841 71.4718 97.9585C71.4855 97.9351 71.5039 97.9147 71.5257 97.8986C71.5476 97.8825 71.5725 97.871 71.599 97.8649C71.8798 97.7881 72.4702 98.1241 72.4942 98.1385C72.5016 98.1421 72.5075 98.1481 72.511 98.1555C72.5145 98.163 72.5153 98.1713 72.5134 98.1793C72.5125 98.1875 72.509 98.1952 72.5034 98.2013C72.4977 98.2073 72.4903 98.2114 72.4822 98.2129C72.312 98.2441 72.1393 98.2602 71.9662 98.2609ZM71.6998 97.9321C71.6744 97.928 71.6484 97.928 71.623 97.9321C71.6068 97.9355 71.5913 97.9421 71.5777 97.9516C71.5641 97.9611 71.5526 97.9732 71.5438 97.9873C71.515 98.0377 71.527 98.0617 71.5438 98.0761C71.623 98.1865 72.0478 98.1889 72.3622 98.1433C72.157 98.0311 71.9321 97.9594 71.6998 97.9321Z" fill="#242424"/>
<path d="M72.4798 98.2128H72.463C72.259 98.1216 71.8558 97.7568 71.887 97.5648C71.887 97.5192 71.9254 97.464 72.0358 97.4544C72.0752 97.4497 72.1152 97.4533 72.1532 97.4649C72.1912 97.4764 72.2264 97.4957 72.2566 97.5216C72.4104 97.7054 72.5027 97.9329 72.5206 98.172C72.5205 98.1788 72.519 98.1856 72.5161 98.1918C72.5132 98.198 72.509 98.2035 72.5038 98.208C72.4964 98.2117 72.4881 98.2134 72.4798 98.2128ZM72.067 97.5288H72.043C71.971 97.5288 71.9662 97.5624 71.9662 97.572C71.947 97.6872 72.2206 97.9752 72.4294 98.1C72.411 97.9073 72.333 97.7253 72.2062 97.5792C72.1667 97.5456 72.1163 97.5276 72.0646 97.5288H72.067Z" fill="#242424"/>
<path d="M74.3327 98.1745H72.6455L72.4775 94.2649H74.1647L74.3327 98.1745Z" fill="#FF8B7B"/>
<path d="M86.7237 97.392L85.0749 97.7496L83.4165 94.1088L85.0677 93.7512L86.7237 97.392Z" fill="#FF8B7B"/>
<path d="M84.9142 97.5842L86.7694 97.1834C86.8018 97.1765 86.8356 97.1808 86.8652 97.1956C86.8949 97.2105 86.9186 97.2349 86.9326 97.265L87.5758 98.6618C87.5929 98.6956 87.6018 98.733 87.6017 98.7709C87.6015 98.8088 87.5924 98.8461 87.5751 98.8799C87.5578 98.9136 87.5327 98.9427 87.502 98.9649C87.4712 98.987 87.4356 99.0016 87.3982 99.0074C86.7502 99.1346 86.4262 99.1658 85.6126 99.341C85.111 99.4514 83.9782 99.7274 83.2846 99.8762C82.591 100.025 82.3534 99.3602 82.6246 99.2378C83.8366 98.6834 84.3406 98.1962 84.6694 97.7426C84.7288 97.6616 84.8159 97.6052 84.9142 97.5842Z" fill="#263238"/>
<path d="M72.6573 97.9775H74.5005C74.534 97.9778 74.5664 97.9892 74.5925 98.0101C74.6186 98.031 74.6369 98.0601 74.6445 98.0927L74.9781 99.5927C74.9879 99.629 74.989 99.667 74.9814 99.7038C74.9738 99.7406 74.9577 99.7751 74.9344 99.8045C74.911 99.8339 74.8811 99.8574 74.847 99.8732C74.8129 99.8889 74.7756 99.8964 74.7381 99.8951C74.0733 99.8831 73.1133 99.8447 72.2781 99.8447C71.2989 99.8447 70.4565 99.8975 69.3093 99.8975C68.6157 99.8975 68.4237 99.1967 68.7141 99.1319C70.0341 98.8439 71.1141 98.8127 72.2541 98.1095C72.3738 98.0294 72.5133 97.9837 72.6573 97.9775Z" fill="#263238"/>
<path d="M79.4809 40.56C81.0625 40.9224 82.3609 44.9616 82.3609 44.9616L79.2001 47.3784C78.3797 46.5012 77.8008 45.4262 77.5201 44.2584C76.9609 42.1416 77.8633 40.1856 79.4809 40.56Z" fill="#242424"/>
<path opacity="0.4" d="M79.4809 40.56C81.0625 40.9224 82.3609 44.9616 82.3609 44.9616L79.2001 47.3784C78.3797 46.5012 77.8008 45.4262 77.5201 44.2584C76.9609 42.1416 77.8633 40.1856 79.4809 40.56Z" fill="black"/>
<path d="M71.1599 45.3768C70.7663 45.8016 70.3727 46.1808 69.9599 46.5768C69.7559 46.7688 69.5495 46.9608 69.3383 47.1456L69.0191 47.4264L68.9399 47.496L68.8031 47.6064C68.6623 47.7189 68.5064 47.811 68.3399 47.88C68.1547 47.9587 67.9556 47.9995 67.7543 48C67.5824 48.0008 67.4117 47.9707 67.2503 47.9112C67.0714 47.8431 66.9081 47.7394 66.7703 47.6064C66.5945 47.4346 66.4656 47.2206 66.3959 46.9848C66.3595 46.8686 66.3361 46.7487 66.3263 46.6272C66.3138 46.4851 66.3138 46.3422 66.3263 46.2C66.3383 46.0848 66.3527 45.984 66.3719 45.8904C66.4376 45.5632 66.5307 45.2421 66.6503 44.9304C66.7583 44.6342 66.8825 44.3442 67.0223 44.0616C67.1759 43.7568 67.3223 43.5336 67.4687 43.2792C68.0633 42.3051 68.7419 41.3848 69.4967 40.5288C70.2439 39.6779 71.0674 38.8971 71.9567 38.196L72.8399 39.1056C72.2207 39.936 71.6111 40.8264 71.0471 41.7024C70.4858 42.5735 69.973 43.4749 69.5111 44.4024C69.4079 44.628 69.2711 44.8824 69.2063 45.0648C69.1205 45.2767 69.046 45.493 68.9831 45.7128C68.9226 45.9108 68.8769 46.1129 68.8463 46.3176C68.8447 46.3496 68.8447 46.3817 68.8463 46.4136C68.8463 46.4328 68.8463 46.4424 68.8463 46.392C68.8424 46.3382 68.8319 46.285 68.8151 46.2336C68.7632 46.0635 68.6681 45.9097 68.5391 45.7872C68.4243 45.6818 68.2897 45.6002 68.1431 45.5472C68.0143 45.4984 67.8777 45.4732 67.7399 45.4728C67.6074 45.4712 67.476 45.4966 67.3535 45.5472C67.3121 45.5642 67.272 45.5842 67.2335 45.6072L67.3247 45.5232L67.6151 45.2592L68.1887 44.7216C68.5679 44.364 68.9495 43.9824 69.3095 43.6272L71.1599 45.3768Z" fill="#FF8B7B"/>
<path opacity="0.2" d="M78.1246 43.5264C78.9838 44.376 79.2646 45.9264 79.3246 47.2704L79.1854 47.3784C78.365 46.5012 77.7861 45.4262 77.5054 44.2584C77.4742 44.1336 77.4454 44.0184 77.4238 43.8816L78.1246 43.5264Z" fill="black"/>
<path d="M69.4822 42.2399C69.1366 44.0639 68.9206 47.8103 69.9214 55.2263H78.9598C79.0222 53.8415 78.151 47.0783 79.4878 40.5479C78.489 40.3561 77.4789 40.2287 76.4638 40.1663C75.1849 40.093 73.9028 40.093 72.6238 40.1663C72.2014 40.2047 71.7838 40.2671 71.4238 40.3319C70.945 40.4159 70.503 40.6433 70.1563 40.984C69.8096 41.3247 69.5745 41.7627 69.4822 42.2399Z" fill="#242424"/>
<path opacity="0.4" d="M69.4822 42.2399C69.1366 44.0639 68.9206 47.8103 69.9214 55.2263H78.9598C79.0222 53.8415 78.151 47.0783 79.4878 40.5479C78.489 40.3561 77.4789 40.2287 76.4638 40.1663C75.1849 40.093 73.9028 40.093 72.6238 40.1663C72.2014 40.2047 71.7838 40.2671 71.4238 40.3319C70.945 40.4159 70.503 40.6433 70.1563 40.984C69.8096 41.3247 69.5745 41.7627 69.4822 42.2399Z" fill="black"/>
<path opacity="0.2" d="M70.8649 44.9449L69.2329 44.5537C69.1825 45.5425 69.1777 46.7665 69.2497 48.2809C70.0009 47.4265 70.9609 46.0921 70.8649 44.9449Z" fill="black"/>
<path opacity="0.2" d="M72.4775 94.2649L72.5639 96.2809H74.2535L74.1671 94.2649H72.4775Z" fill="black"/>
<path opacity="0.2" d="M85.0677 93.7512L83.4165 94.1088L84.2709 95.9856L85.9221 95.628L85.0677 93.7512Z" fill="black"/>
<path d="M76.7832 34.5986C76.3512 36.2162 76.1784 37.1858 75.18 37.8578C73.68 38.8802 71.808 37.709 71.76 36.0002C71.7072 34.457 72.4248 32.069 74.16 31.7426C74.5413 31.671 74.9346 31.6977 75.3027 31.8202C75.6709 31.9427 76.0018 32.1569 76.2642 32.4426C76.5266 32.7283 76.712 33.0762 76.8028 33.4534C76.8936 33.8306 76.8869 34.2247 76.7832 34.5986Z" fill="#FF8B7B"/>
<path d="M72.9961 34.6584C72.9145 34.4424 72.5425 32.7696 72.8929 32.3352C73.2433 31.9008 77.2393 32.2152 77.8297 32.796C78.8113 33.756 78.1297 34.62 77.0569 35.7312C76.2505 36.5664 76.2193 37.5072 75.8113 37.6512C75.0913 37.8912 73.9921 37.6656 73.7713 36.9048C73.5505 36.144 72.9961 34.6584 72.9961 34.6584Z" fill="#263238"/>
<path d="M77.3446 30.8929C75.9334 30.2929 73.2862 30.9577 71.8558 30.6121C71.8376 31.1439 72.0125 31.6644 72.3482 32.0774C72.6839 32.4903 73.1578 32.7678 73.6822 32.8585C74.8688 33.0846 76.0743 33.1963 77.2822 33.1921C78.8518 33.1201 78.5446 31.4041 77.3446 30.8929Z" fill="#263238"/>
<path d="M77.5654 32.8464C78.0809 32.8971 78.6001 32.7979 79.0606 32.5608C79.3246 33.1992 77.8726 33.3744 77.5654 32.8464Z" fill="#263238"/>
<path d="M73.764 34.7257C73.7316 35.1419 73.5629 35.5358 73.284 35.8465C72.9144 36.2521 72.5304 35.9977 72.4656 35.5057C72.408 35.0593 72.528 34.3057 72.9792 34.0897C73.4304 33.8737 73.7952 34.2241 73.764 34.7257Z" fill="#FF8B7B"/>
<path d="M73.1255 55.2336C73.1255 55.2336 75.0455 68.1336 76.0943 72.9672C77.2439 78.2592 83.4215 95.7672 83.4215 95.7672L86.4431 95.112C86.4431 95.112 82.1231 80.8416 81.1631 73.4424C80.4191 67.7592 78.9575 55.2288 78.9575 55.2288L73.1255 55.2336Z" fill="#242424"/>
<path d="M82.697 94.7617C82.685 94.7617 83.261 95.8561 83.261 95.8561L86.6594 95.1193L86.3738 94.0969L82.697 94.7617Z" fill="#263238"/>
<path opacity="0.3" d="M74.3376 59.8296C76.5528 60.264 76.3176 68.5248 76.0512 72.7752C75.4128 69.7704 74.4768 63.9912 73.8384 59.8896C73.9931 59.8133 74.1692 59.7921 74.3376 59.8296Z" fill="black"/>
<path d="M69.9218 55.2337C69.9218 55.2337 69.6818 67.8553 69.8738 72.9937C70.0658 78.3481 71.9354 95.8801 71.9354 95.8801H74.7962C74.7962 95.8801 74.8994 78.6601 75.0362 73.4017C75.1754 67.6705 75.8666 55.2241 75.8666 55.2241L69.9218 55.2337Z" fill="#242424"/>
<path d="M71.3856 94.752C71.3712 94.752 71.5464 95.9376 71.5464 95.9376H75.024L75.12 94.8792L71.3856 94.752Z" fill="#263238"/>
<path d="M73.0199 42.8017C73.8287 44.9833 69.0743 47.5537 69.0743 47.5537L67.0151 44.9137C67.0151 44.9137 68.3999 42.1729 70.0799 40.9393C72.1559 39.4177 72.4031 41.1409 73.0199 42.8017Z" fill="#242424"/>
<path opacity="0.4" d="M73.0199 42.8017C73.8287 44.9833 69.0743 47.5537 69.0743 47.5537L67.0151 44.9137C67.0151 44.9137 68.3999 42.1729 70.0799 40.9393C72.1559 39.4177 72.4031 41.1409 73.0199 42.8017Z" fill="black"/>
<path d="M91.6489 26.2392C96.4326 26.2392 100.311 23.7678 100.311 20.7192C100.311 17.6706 96.4326 15.1992 91.6489 15.1992C86.8652 15.1992 82.9873 17.6706 82.9873 20.7192C82.9873 23.7678 86.8652 26.2392 91.6489 26.2392Z" fill="#242424"/>
<path d="M88.5241 23.4984C87.9535 23.4965 87.4018 23.2937 86.966 22.9254C86.5301 22.5571 86.238 22.0471 86.1409 21.4848C86.0455 20.8757 86.1828 20.253 86.5257 19.7407C86.8686 19.2284 87.3919 18.8639 87.9913 18.72C88.4832 18.6066 88.9983 18.6503 89.4641 18.8449C89.9299 19.0395 90.323 19.3752 90.5881 19.8048L96.1489 18.6576C96.3626 18.6108 96.5861 18.6463 96.7748 18.7571C96.9634 18.8679 97.1033 19.0457 97.1665 19.2552C97.1956 19.3653 97.202 19.4802 97.1852 19.5928C97.1683 19.7054 97.1287 19.8135 97.0688 19.9103C97.0088 20.0071 96.9297 20.0907 96.8363 20.1559C96.743 20.2211 96.6373 20.2666 96.5257 20.2896L96.3817 20.3184C96.3603 20.3222 96.3401 20.3309 96.3226 20.3438C96.3052 20.3567 96.2909 20.3735 96.2809 20.3928C96.272 20.4124 96.2674 20.4336 96.2674 20.4552C96.2674 20.4767 96.272 20.498 96.2809 20.5176L96.3793 20.772C96.4123 20.8544 96.4155 20.9458 96.3883 21.0304C96.3611 21.1149 96.3053 21.1873 96.2305 21.2352C96.1715 21.2716 96.1216 21.321 96.0846 21.3797C96.0476 21.4383 96.0245 21.5046 96.0169 21.5736C96.0099 21.6527 95.978 21.7275 95.9258 21.7875C95.8737 21.8474 95.8039 21.8893 95.7265 21.9072L95.6137 21.9312C95.5355 21.9456 95.4548 21.9348 95.3831 21.9003C95.3115 21.8658 95.2527 21.8093 95.2153 21.7392C95.1655 21.6555 95.0908 21.5894 95.0017 21.5501C94.9125 21.5109 94.8133 21.5005 94.7179 21.5203C94.6226 21.5401 94.5358 21.5892 94.4696 21.6607C94.4035 21.7322 94.3613 21.8225 94.3489 21.9192C94.3422 21.9978 94.3107 22.0722 94.259 22.1318C94.2072 22.1913 94.1378 22.2328 94.0609 22.2504L93.9481 22.2744C93.87 22.2884 93.7893 22.2774 93.7178 22.243C93.6462 22.2085 93.5874 22.1523 93.5497 22.0824C93.5138 22.0228 93.4653 21.9718 93.4077 21.9329C93.3501 21.8939 93.2847 21.868 93.2161 21.8568C93.1238 21.8457 93.0388 21.8013 92.9769 21.7319C92.915 21.6625 92.8806 21.5729 92.8801 21.48V21.2064C92.8791 21.185 92.8736 21.164 92.8638 21.145C92.8539 21.1259 92.8401 21.1092 92.8233 21.096C92.8064 21.0828 92.7869 21.0734 92.766 21.0684C92.7452 21.0634 92.7235 21.063 92.7025 21.0672L90.9289 21.432C90.8566 21.9233 90.6346 22.3805 90.2932 22.7412C89.9518 23.1019 89.5076 23.3487 89.0209 23.448C88.8574 23.4814 88.691 23.4983 88.5241 23.4984ZM88.0441 18.9384C87.4998 19.0655 87.0238 19.3942 86.7121 19.8582C86.4004 20.3223 86.276 20.8871 86.3641 21.4392C86.4585 21.9527 86.7336 22.4156 87.1396 22.7439C87.5456 23.0723 88.0557 23.2445 88.5776 23.2295C89.0996 23.2144 89.5989 23.013 89.9853 22.6617C90.3716 22.3105 90.6195 21.8325 90.6841 21.3144V21.228L92.6401 20.832C92.6962 20.8184 92.7547 20.8175 92.8112 20.8293C92.8677 20.8411 92.9208 20.8654 92.9668 20.9003C93.0128 20.9353 93.0504 20.98 93.0769 21.0313C93.1034 21.0825 93.1182 21.1391 93.1201 21.1968V21.4704C93.1207 21.5029 93.1324 21.5343 93.1534 21.5593C93.1744 21.5842 93.2033 21.6011 93.2353 21.6072C93.3402 21.6222 93.4404 21.6609 93.5281 21.7204C93.6158 21.7798 93.6889 21.8585 93.7417 21.9504C93.7544 21.9763 93.7749 21.9976 93.8003 22.0113C93.8257 22.0251 93.8547 22.0306 93.8833 22.0272L93.9937 22.0032C94.0217 21.996 94.0466 21.9799 94.0648 21.9575C94.0829 21.935 94.0934 21.9072 94.0945 21.8784C94.1096 21.729 94.1719 21.5882 94.2722 21.4765C94.3726 21.3648 94.5059 21.2879 94.6528 21.2569C94.7997 21.2259 94.9527 21.2425 95.0897 21.3041C95.2266 21.3658 95.3403 21.4694 95.4145 21.6C95.4268 21.6257 95.4469 21.6469 95.4718 21.6607C95.4968 21.6744 95.5254 21.6801 95.5537 21.6768L95.6689 21.6528C95.6965 21.6451 95.7208 21.6289 95.7385 21.6065C95.7562 21.584 95.7663 21.5565 95.7673 21.528C95.7792 21.4226 95.815 21.3213 95.872 21.2319C95.929 21.1425 96.0056 21.0672 96.0961 21.012C96.1226 20.9929 96.1419 20.9655 96.151 20.9342C96.1601 20.9029 96.1586 20.8695 96.1465 20.8392L96.0481 20.5848C96.0278 20.5323 96.0191 20.4761 96.0228 20.4199C96.0264 20.3638 96.0423 20.3091 96.0693 20.2598C96.0962 20.2104 96.1337 20.1675 96.1789 20.1341C96.2242 20.1007 96.2762 20.0776 96.3313 20.0664L96.4777 20.0352C96.5569 20.0183 96.632 19.9856 96.6983 19.939C96.7646 19.8925 96.8208 19.833 96.8636 19.7642C96.9064 19.6955 96.9349 19.6187 96.9473 19.5387C96.9598 19.4586 96.956 19.3769 96.9361 19.2984C96.8893 19.1473 96.787 19.0196 96.6499 18.9408C96.5128 18.862 96.351 18.838 96.1969 18.8736L90.4801 20.0616L90.4369 19.9872C90.2072 19.5783 89.8507 19.2553 89.4212 19.0669C88.9916 18.8786 88.5125 18.8351 88.0561 18.9432L88.0441 18.9384ZM88.5241 22.6056C88.226 22.6089 87.9333 22.5255 87.6817 22.3656C87.3841 22.1702 87.1635 21.8776 87.0574 21.5378C86.9514 21.1979 86.9665 20.8318 87.1002 20.5018C87.2339 20.1719 87.4779 19.8985 87.7906 19.7283C88.1033 19.5581 88.4653 19.5017 88.815 19.5685C89.1647 19.6354 89.4804 19.8215 89.7082 20.0951C89.936 20.3687 90.0619 20.7128 90.0644 21.0688C90.0669 21.4248 89.9458 21.7707 89.7218 22.0474C89.4978 22.3241 89.1848 22.5146 88.8361 22.5864C88.734 22.6049 88.6303 22.6129 88.5265 22.6104L88.5241 22.6056ZM88.5241 19.7712C88.4347 19.7717 88.3455 19.7805 88.2577 19.7976C88.0905 19.8332 87.932 19.9014 87.7911 19.9983C87.6503 20.0952 87.5299 20.2188 87.4369 20.3622C87.3438 20.5057 87.2799 20.666 87.2489 20.8341C87.2178 21.0022 87.2201 21.1748 87.2557 21.342C87.2913 21.5092 87.3595 21.6677 87.4564 21.8086C87.5533 21.9494 87.677 22.0698 87.8204 22.1628C87.9638 22.2559 88.1241 22.3198 88.2922 22.3508C88.4603 22.3819 88.6329 22.3796 88.8001 22.344C89.0511 22.2917 89.281 22.1663 89.4609 21.9836C89.6407 21.8009 89.7624 21.569 89.8107 21.3172C89.8589 21.0654 89.8316 20.805 89.732 20.5687C89.6325 20.3324 89.4652 20.1309 89.2513 19.9896C89.0388 19.8483 88.7889 19.7739 88.5337 19.776L88.5241 19.7712Z" fill="white"/>
<path opacity="0.6" d="M84.5998 29.4767C86.1718 29.4767 87.4462 28.6644 87.4462 27.6623C87.4462 26.6602 86.1718 25.8479 84.5998 25.8479C83.0278 25.8479 81.7534 26.6602 81.7534 27.6623C81.7534 28.6644 83.0278 29.4767 84.5998 29.4767Z" fill="#242424"/>
<path opacity="0.3" d="M80.0711 30.2209C80.7167 30.2209 81.2399 29.8878 81.2399 29.4769C81.2399 29.066 80.7167 28.7329 80.0711 28.7329C79.4256 28.7329 78.9023 29.066 78.9023 29.4769C78.9023 29.8878 79.4256 30.2209 80.0711 30.2209Z" fill="#242424"/>
</svg>
