<svg width="511" height="73" viewBox="0 0 511 73" fill="none" xmlns="http://www.w3.org/2000/svg">
<path d="M37.5781 54.1875C37.5781 52.9688 37.3594 51.8281 36.9219 50.7656C36.5156 49.7031 35.8125 48.7031 34.8125 47.7656C33.7812 46.8594 32.4375 46.0312 30.7812 45.2812C29.1562 44.5 27.125 43.7812 24.6875 43.125C20.9062 42.0938 17.5781 40.8438 14.7031 39.375C11.8594 37.9062 9.53125 36.2969 7.71875 34.5469C5.90625 32.7969 4.53125 30.8594 3.59375 28.7344C2.6875 26.6094 2.23438 24.2969 2.23438 21.7969C2.23438 18.9219 2.84375 16.3125 4.0625 13.9688C5.28125 11.625 6.96875 9.625 9.125 7.96875C11.2812 6.3125 13.8281 5.04688 16.7656 4.17188C19.7031 3.26562 22.8906 2.8125 26.3281 2.8125C29.8906 2.8125 33.1406 3.32812 36.0781 4.35938C39.0469 5.39062 41.5938 6.82812 43.7188 8.67188C45.8438 10.5469 47.5 12.7656 48.6875 15.3281C49.875 17.8906 50.4688 20.7031 50.4688 23.7656H37.625C37.5625 22.2344 37.2812 20.8281 36.7812 19.5469C36.3125 18.2656 35.6094 17.1562 34.6719 16.2188C33.7031 15.3125 32.5 14.6094 31.0625 14.1094C29.6562 13.5781 28 13.3125 26.0938 13.3125C24.3438 13.3125 22.7812 13.5312 21.4062 13.9688C20.0625 14.375 18.9219 14.9531 17.9844 15.7031C17.0469 16.4844 16.3281 17.4062 15.8281 18.4688C15.3594 19.5 15.125 20.625 15.125 21.8438C15.125 23.125 15.4375 24.2812 16.0625 25.3125C16.7188 26.3438 17.6562 27.2656 18.875 28.0781C20.0938 28.9219 21.5625 29.6875 23.2812 30.375C25.0312 31.0625 27 31.7031 29.1875 32.2969C31.5312 32.9531 33.7656 33.75 35.8906 34.6875C38.0156 35.625 39.9688 36.7031 41.75 37.9219C44.4375 39.9219 46.5781 42.25 48.1719 44.9062C49.7656 47.5625 50.5625 50.625 50.5625 54.0938C50.5625 57.0938 49.9531 59.7656 48.7344 62.1094C47.5469 64.4219 45.8906 66.375 43.7656 67.9688C41.6406 69.5938 39.1094 70.8281 36.1719 71.6719C33.2344 72.4844 30.0312 72.8906 26.5625 72.8906C23.1562 72.8906 19.7812 72.3906 16.4375 71.3906C13.125 70.3594 10.2344 68.8594 7.76562 66.8906C5.42188 64.9531 3.5625 62.6719 2.1875 60.0469C0.84375 57.4219 0.171875 54.3438 0.171875 50.8125H13.1094C13.1719 52.875 13.5312 54.6406 14.1875 56.1094C14.8438 57.5781 15.7656 58.7812 16.9531 59.7188C18.1094 60.6562 19.5 61.3438 21.125 61.7812C22.7812 62.2188 24.5938 62.4375 26.5625 62.4375C28.3125 62.4375 29.8594 62.2344 31.2031 61.8281C32.5781 61.4219 33.7344 60.8594 34.6719 60.1406C35.6094 59.4219 36.3281 58.5625 36.8281 57.5625C37.3281 56.5312 37.5781 55.4062 37.5781 54.1875ZM84.1719 8.85938V21.2812H103.109V30.8906H84.1719V52.6875C84.1719 54.5312 84.375 56.0781 84.7812 57.3281C85.2188 58.5469 85.8281 59.5156 86.6094 60.2344C87.3906 60.9844 88.3281 61.5156 89.4219 61.8281C90.5469 62.1406 91.7969 62.2969 93.1719 62.2969C94.1719 62.2969 95.1875 62.25 96.2188 62.1562C97.2812 62.0625 98.2969 61.9375 99.2656 61.7812C100.203 61.6562 101.078 61.5156 101.891 61.3594C102.734 61.2031 103.453 61.0469 104.047 60.8906L105.312 69.8438C104.406 70.375 103.344 70.8438 102.125 71.25C100.906 71.625 99.6094 71.9375 98.2344 72.1875C96.8594 72.4375 95.4219 72.625 93.9219 72.75C92.4531 72.9062 91 72.9844 89.5625 72.9844C86.7812 72.9844 84.25 72.625 81.9688 71.9062C79.7188 71.1562 77.7969 70 76.2031 68.4375C74.5781 66.9062 73.3281 64.9531 72.4531 62.5781C71.5781 60.1719 71.1406 57.2969 71.1406 53.9531V30.8906H59.5625V21.2812H71.1406V8.85938H84.1719ZM116.141 46.1719C116.141 42.4844 116.672 39.0781 117.734 35.9531C118.797 32.7969 120.359 30.0625 122.422 27.75C124.453 25.4375 126.938 23.625 129.875 22.3125C132.844 21 136.234 20.3438 140.047 20.3438C143.859 20.3438 147.25 21 150.219 22.3125C153.188 23.625 155.703 25.4375 157.766 27.75C159.797 30.0625 161.344 32.7969 162.406 35.9531C163.469 39.0781 164 42.4844 164 46.1719V47.1562C164 50.875 163.469 54.3125 162.406 57.4688C161.344 60.5938 159.797 63.3125 157.766 65.625C155.734 67.9375 153.234 69.75 150.266 71.0625C147.297 72.3438 143.922 72.9844 140.141 72.9844C136.328 72.9844 132.922 72.3438 129.922 71.0625C126.953 69.75 124.453 67.9375 122.422 65.625C120.359 63.3125 118.797 60.5938 117.734 57.4688C116.672 54.3125 116.141 50.875 116.141 47.1562V46.1719ZM129.172 47.1562C129.172 49.2812 129.375 51.2812 129.781 53.1562C130.188 55 130.828 56.6094 131.703 57.9844C132.578 59.3906 133.703 60.5 135.078 61.3125C136.484 62.125 138.172 62.5312 140.141 62.5312C142.047 62.5312 143.688 62.125 145.062 61.3125C146.438 60.5 147.562 59.3906 148.438 57.9844C149.281 56.6094 149.906 55 150.312 53.1562C150.719 51.2812 150.922 49.2812 150.922 47.1562V46.1719C150.922 44.1094 150.719 42.1562 150.312 40.3125C149.906 38.4688 149.281 36.8438 148.438 35.4375C147.562 34.0312 146.438 32.9219 145.062 32.1094C143.688 31.2969 142.016 30.8906 140.047 30.8906C138.109 30.8906 136.453 31.2969 135.078 32.1094C133.703 32.9219 132.578 34.0312 131.703 35.4375C130.828 36.8438 130.188 38.4688 129.781 40.3125C129.375 42.1562 129.172 44.1094 129.172 46.1719V47.1562ZM198.031 62.5312C199.312 62.5312 200.531 62.3438 201.688 61.9688C202.844 61.5938 203.859 61.0625 204.734 60.375C205.609 59.6875 206.281 58.8594 206.75 57.8906C207.25 56.9219 207.469 55.8438 207.406 54.6562H219.688C219.75 57.2812 219.203 59.7188 218.047 61.9688C216.922 64.2188 215.375 66.1562 213.406 67.7812C211.438 69.4062 209.141 70.6875 206.516 71.625C203.922 72.5312 201.172 72.9844 198.266 72.9844C194.328 72.9844 190.875 72.3281 187.906 71.0156C184.938 69.6719 182.469 67.8438 180.5 65.5312C178.5 63.2188 176.984 60.5156 175.953 57.4219C174.953 54.2969 174.453 50.9531 174.453 47.3906V45.9844C174.453 42.4219 174.953 39.0938 175.953 36C176.953 32.875 178.453 30.1562 180.453 27.8438C182.453 25.5312 184.922 23.7031 187.859 22.3594C190.828 21.0156 194.266 20.3438 198.172 20.3438C201.297 20.3438 204.188 20.8125 206.844 21.75C209.5 22.6875 211.797 24 213.734 25.6875C215.641 27.4062 217.125 29.4844 218.188 31.9219C219.25 34.3281 219.75 37.0312 219.688 40.0312H207.406C207.469 38.7812 207.281 37.5938 206.844 36.4688C206.406 35.3438 205.766 34.375 204.922 33.5625C204.078 32.75 203.062 32.1094 201.875 31.6406C200.688 31.1406 199.391 30.8906 197.984 30.8906C195.922 30.8906 194.219 31.3125 192.875 32.1562C191.531 33 190.469 34.125 189.688 35.5312C188.875 36.9375 188.297 38.5469 187.953 40.3594C187.641 42.1719 187.484 44.0469 187.484 45.9844V47.3906C187.484 49.3594 187.641 51.2656 187.953 53.1094C188.266 54.9219 188.828 56.5156 189.641 57.8906C190.422 59.2969 191.484 60.4219 192.828 61.2656C194.203 62.1094 195.938 62.5312 198.031 62.5312ZM252.312 51.0469L246.406 56.5312V72H233.375V0H246.406V41.1562L250.344 36.6562L264.359 21.2812H280.016L260.891 42.4219L282.688 72H266.703L252.312 51.0469ZM294.875 72L285.5 3.75H297.547L302.094 41.9062L302.422 44.5781L302.844 41.7656L308.234 3.75H317.656L323.375 42.0469L323.797 44.8594L324.125 42L328.766 3.75H340.859L331.391 72H319.484L313.531 35.1562L313.016 31.6875L312.5 35.1562L306.781 72H294.875ZM352.016 21.2812H379.625V61.4062H393.359V72H352.016V61.4062H366.453V31.9219H352.016V21.2812ZM365.516 8.29688C365.516 7.29688 365.688 6.375 366.031 5.53125C366.406 4.65625 366.922 3.90625 367.578 3.28125C368.234 2.6875 369.016 2.21875 369.922 1.875C370.859 1.53125 371.891 1.35938 373.016 1.35938C375.328 1.35938 377.156 2.01562 378.5 3.32812C379.875 4.60938 380.562 6.26562 380.562 8.29688C380.562 10.3281 379.875 12 378.5 13.3125C377.156 14.5938 375.328 15.2344 373.016 15.2344C371.891 15.2344 370.859 15.0625 369.922 14.7188C369.016 14.375 368.234 13.8906 367.578 13.2656C366.922 12.6719 366.406 11.9531 366.031 11.1094C365.688 10.2344 365.516 9.29688 365.516 8.29688ZM438.922 58.0781C438.922 57.2969 438.734 56.6094 438.359 56.0156C438.016 55.4219 437.391 54.8594 436.484 54.3281C435.547 53.8281 434.312 53.3594 432.781 52.9219C431.25 52.4844 429.312 52.0469 426.969 51.6094C424 51.0156 421.281 50.2812 418.812 49.4062C416.375 48.5 414.281 47.4062 412.531 46.125C410.781 44.875 409.406 43.4219 408.406 41.7656C407.438 40.1094 406.953 38.2031 406.953 36.0469C406.953 33.9531 407.453 31.9531 408.453 30.0469C409.453 28.1406 410.891 26.4688 412.766 25.0312C414.641 23.5938 416.922 22.4531 419.609 21.6094C422.297 20.7656 425.328 20.3438 428.703 20.3438C432.234 20.3438 435.406 20.7656 438.219 21.6094C441.031 22.4219 443.422 23.5469 445.391 24.9844C447.328 26.4531 448.812 28.1875 449.844 30.1875C450.875 32.1875 451.391 34.3594 451.391 36.7031H438.359C438.359 35.8594 438.219 35.0781 437.938 34.3594C437.656 33.6094 437.234 32.9375 436.672 32.3438C435.891 31.5625 434.828 30.9375 433.484 30.4688C432.172 30 430.578 29.7656 428.703 29.7656C427.109 29.7656 425.719 29.9219 424.531 30.2344C423.344 30.5469 422.375 30.9844 421.625 31.5469C420.938 32.0469 420.406 32.6406 420.031 33.3281C419.688 33.9844 419.516 34.6875 419.516 35.4375C419.516 36.1875 419.672 36.8906 419.984 37.5469C420.297 38.1719 420.859 38.7344 421.672 39.2344C422.453 39.7656 423.531 40.25 424.906 40.6875C426.281 41.0938 428.031 41.4531 430.156 41.7656C433.219 42.2656 436.062 42.9062 438.688 43.6875C441.312 44.4688 443.578 45.4688 445.484 46.6875C447.391 47.9375 448.875 49.4531 449.938 51.2344C451.031 52.9844 451.578 55.0781 451.578 57.5156C451.578 59.7656 451.031 61.8438 449.938 63.75C448.875 65.625 447.359 67.25 445.391 68.625C443.391 70 440.984 71.0781 438.172 71.8594C435.359 72.6094 432.219 72.9844 428.75 72.9844C424.938 72.9844 421.562 72.4844 418.625 71.4844C415.719 70.4844 413.281 69.1719 411.312 67.5469C409.344 65.9531 407.844 64.1406 406.812 62.1094C405.812 60.0469 405.312 57.9844 405.312 55.9219H417.734C417.828 57.2969 418.203 58.4844 418.859 59.4844C419.516 60.4531 420.359 61.2344 421.391 61.8281C422.422 62.4531 423.594 62.9062 424.906 63.1875C426.25 63.4688 427.625 63.6094 429.031 63.6094C430.719 63.6094 432.188 63.4688 433.438 63.1875C434.719 62.875 435.766 62.4688 436.578 61.9688C437.359 61.4688 437.938 60.8906 438.312 60.2344C438.719 59.5781 438.922 58.8594 438.922 58.0781ZM488.469 72.9375C484.562 72.9375 481.016 72.2969 477.828 71.0156C474.641 69.7344 471.906 67.9844 469.625 65.7656C467.344 63.5781 465.578 61 464.328 58.0312C463.109 55.0312 462.5 51.8281 462.5 48.4219V46.5469C462.5 42.6719 463.109 39.1406 464.328 35.9531C465.547 32.7344 467.25 29.9688 469.438 27.6562C471.625 25.3438 474.219 23.5469 477.219 22.2656C480.219 20.9844 483.484 20.3438 487.016 20.3438C490.672 20.3438 493.922 20.9531 496.766 22.1719C499.641 23.3594 502.078 25.0469 504.078 27.2344C506.047 29.4219 507.547 32.0625 508.578 35.1562C509.609 38.2188 510.125 41.6094 510.125 45.3281V50.8594H475.719V51C476.156 53.0312 476.719 54.6719 477.406 55.9219C478.094 57.1406 479.016 58.25 480.172 59.25C481.359 60.2812 482.719 61.0781 484.25 61.6406C485.781 62.2031 487.453 62.4844 489.266 62.4844C491.828 62.4844 494.312 62 496.719 61.0312C499.125 60.0625 501.078 58.6094 502.578 56.6719L509.094 63.7031C507.438 66.0469 504.812 68.1719 501.219 70.0781C497.625 71.9844 493.375 72.9375 488.469 72.9375ZM486.922 30.8906C485.453 30.8906 484.109 31.1562 482.891 31.6875C481.672 32.1875 480.609 32.9219 479.703 33.8906C478.766 34.8594 477.984 36.0156 477.359 37.3594C476.734 38.7031 476.266 40.2031 475.953 41.8594H497.328V40.8281C497.328 39.4531 497.078 38.1562 496.578 36.9375C496.078 35.7188 495.391 34.6562 494.516 33.75C493.641 32.875 492.562 32.1875 491.281 31.6875C490.031 31.1562 488.578 30.8906 486.922 30.8906Z" fill="white"/>
</svg>
