<svg width="120" height="120" viewBox="0 0 120 120" fill="none" xmlns="http://www.w3.org/2000/svg">
<path d="M120 91.7759H0V91.8359H120V91.7759Z" fill="#EBEBEB"/>
<path d="M107.976 95.6375H100.027V95.6975H107.976V95.6375Z" fill="#EBEBEB"/>
<path d="M79.4928 96.2903H77.4072V96.3503H79.4928V96.2903Z" fill="#EBEBEB"/>
<path d="M99.7872 93.4104H95.1816V93.4704H99.7872V93.4104Z" fill="#EBEBEB"/>
<path d="M22.9559 93.8135H12.5903V93.8735H22.9559V93.8135Z" fill="#EBEBEB"/>
<path d="M26.6137 93.8135H25.0945V93.8735H26.6137V93.8135Z" fill="#EBEBEB"/>
<path d="M54.0359 94.8264H31.5527V94.8864H54.0359V94.8264Z" fill="#EBEBEB"/>
<path d="M56.88 81.0719H10.5384C10.1754 81.0713 9.82742 80.9267 9.57094 80.6697C9.31446 80.4128 9.17041 80.0646 9.17041 79.7015V14.5584C9.17357 14.1974 9.31902 13.8523 9.57516 13.5979C9.8313 13.3436 10.1774 13.2006 10.5384 13.2H56.88C57.2435 13.2 57.592 13.3443 57.849 13.6013C58.106 13.8583 58.2504 14.2069 58.2504 14.5704V79.7015C58.2504 80.065 58.106 80.4136 57.849 80.6706C57.592 80.9276 57.2435 81.0719 56.88 81.0719ZM10.5384 13.248C10.1913 13.2486 9.8586 13.3869 9.61337 13.6326C9.36814 13.8783 9.23041 14.2112 9.23041 14.5584V79.7015C9.23041 80.0487 9.36814 80.3816 9.61337 80.6273C9.8586 80.873 10.1913 81.0113 10.5384 81.0119H56.88C57.2274 81.0113 57.5603 80.873 57.8059 80.6274C58.0515 80.3818 58.1898 80.0489 58.1904 79.7015V14.5584C58.1898 14.211 58.0515 13.8781 57.8059 13.6325C57.5603 13.3868 57.2274 13.2486 56.88 13.248H10.5384Z" fill="#EBEBEB"/>
<path d="M108.794 81.0719H62.4505C62.0872 81.0713 61.739 80.9267 61.4822 80.6699C61.2253 80.413 61.0807 80.0648 61.0801 79.7015V14.5584C61.0839 14.1972 61.2298 13.852 61.4864 13.5978C61.7429 13.3435 62.0893 13.2006 62.4505 13.2H108.794C109.155 13.2012 109.501 13.3445 109.756 13.5988C110.012 13.853 110.157 14.1978 110.16 14.5584V79.7015C110.16 80.0642 110.016 80.412 109.76 80.6689C109.504 80.9257 109.157 81.0707 108.794 81.0719ZM62.4505 13.248C62.1031 13.2486 61.7702 13.3868 61.5246 13.6325C61.279 13.8781 61.1407 14.211 61.1401 14.5584V79.7015C61.1407 80.0489 61.279 80.3818 61.5246 80.6274C61.7702 80.873 62.1031 81.0113 62.4505 81.0119H108.794C109.142 81.0113 109.475 80.873 109.72 80.6274C109.966 80.3818 110.104 80.0489 110.105 79.7015V14.5584C110.104 14.211 109.966 13.8781 109.72 13.6325C109.475 13.3868 109.142 13.2486 108.794 13.248H62.4505Z" fill="#EBEBEB"/>
<path d="M58.1616 41.7312H24.0864V91.692H58.1616V41.7312Z" fill="#F0F0F0"/>
<path d="M56.9568 43.3032H25.2888V52.5312H56.9568V43.3032Z" fill="#E0E0E0"/>
<path d="M27.0888 44.7959H25.2888V52.5287H27.0888V44.7959Z" fill="#EBEBEB"/>
<path d="M35.7888 44.7959H33.9888V52.5287H35.7888V44.7959Z" fill="#EBEBEB"/>
<path d="M45.6628 44.6017L43.8889 44.9075L45.2025 52.5279L46.9763 52.2221L45.6628 44.6017Z" fill="#EBEBEB"/>
<path d="M29.3183 45.8159H27.5183V52.5311H29.3183V45.8159Z" fill="#EBEBEB"/>
<path d="M33.4536 45.8159H31.6536V52.5311H33.4536V45.8159Z" fill="#EBEBEB"/>
<path d="M43.8913 45.8159H42.0913V52.5311H43.8913V45.8159Z" fill="#EBEBEB"/>
<path d="M38.1531 45.5829L36.396 45.9734L37.8529 52.5286L39.61 52.1381L38.1531 45.5829Z" fill="#EBEBEB"/>
<path d="M30.8736 44.4119H29.9736V52.5287H30.8736V44.4119Z" fill="#EBEBEB"/>
<path d="M41.5729 44.4119H40.6729V52.5287H41.5729V44.4119Z" fill="#EBEBEB"/>
<path d="M25.2912 63.2207L56.9592 63.2207V53.9927H25.2912V63.2207Z" fill="#E0E0E0"/>
<path d="M55.1568 63.2183H56.9568V55.4855H55.1568V63.2183Z" fill="#EBEBEB"/>
<path d="M46.4593 63.2183H48.2593V55.4855H46.4593V63.2183Z" fill="#EBEBEB"/>
<path d="M35.2721 62.911L37.0459 63.2168L38.3594 55.5964L36.5856 55.2906L35.2721 62.911Z" fill="#EBEBEB"/>
<path d="M52.9273 63.2207H54.7273V56.5055H52.9273V63.2207Z" fill="#EBEBEB"/>
<path d="M48.7945 63.2207H50.5945V56.5055H48.7945V63.2207Z" fill="#EBEBEB"/>
<path d="M38.3567 63.2207H40.1567V56.5055H38.3567V63.2207Z" fill="#EBEBEB"/>
<path d="M42.644 62.8285L44.4011 63.219L45.858 56.6637L44.1009 56.2732L42.644 62.8285Z" fill="#EBEBEB"/>
<path d="M51.372 63.2183H52.272V55.1015H51.372V63.2183Z" fill="#EBEBEB"/>
<path d="M40.6752 63.2183H41.5752V55.1015H40.6752V63.2183Z" fill="#EBEBEB"/>
<path d="M27.0888 55.4856H25.2888V63.2184H27.0888V55.4856Z" fill="#EBEBEB"/>
<path d="M29.3183 56.5032H27.5183V63.2184H29.3183V56.5032Z" fill="#EBEBEB"/>
<path d="M33.4536 56.5032H31.6536V63.2184H33.4536V56.5032Z" fill="#EBEBEB"/>
<path d="M30.8736 55.1016H29.9736V63.2184H30.8736V55.1016Z" fill="#EBEBEB"/>
<path d="M56.9568 64.6799H25.2888V73.9079H56.9568V64.6799Z" fill="#E0E0E0"/>
<path d="M45.2663 66.1729H43.4663V73.9057H45.2663V66.1729Z" fill="#EBEBEB"/>
<path d="M55.142 65.9779L53.3682 66.2837L54.6817 73.9041L56.4555 73.5984L55.142 65.9779Z" fill="#EBEBEB"/>
<path d="M38.7961 67.1929H36.9961V73.9081H38.7961V67.1929Z" fill="#EBEBEB"/>
<path d="M42.9311 67.1929H41.1311V73.9081H42.9311V67.1929Z" fill="#EBEBEB"/>
<path d="M53.3688 67.1929H51.5688V73.9081H53.3688V67.1929Z" fill="#EBEBEB"/>
<path d="M47.6314 66.9601L45.8743 67.3506L47.3311 73.9058L49.0883 73.5153L47.6314 66.9601Z" fill="#EBEBEB"/>
<path d="M40.3512 65.7888H39.4512V73.9056H40.3512V65.7888Z" fill="#EBEBEB"/>
<path d="M51.0504 65.7888H50.1504V73.9056H51.0504V65.7888Z" fill="#EBEBEB"/>
<path d="M34.445 65.9796L32.6711 66.2854L33.9847 73.9058L35.7585 73.6001L34.445 65.9796Z" fill="#EBEBEB"/>
<path d="M32.6711 67.1929H30.8711V73.9081H32.6711V67.1929Z" fill="#EBEBEB"/>
<path d="M26.9349 66.9601L25.1777 67.3506L26.6346 73.9058L28.3917 73.5153L26.9349 66.9601Z" fill="#EBEBEB"/>
<path d="M30.3551 65.7888H29.4551V73.9056H30.3551V65.7888Z" fill="#EBEBEB"/>
<path d="M18.2064 91.8215H24.0864L24.0864 41.7311H18.2064L18.2064 91.8215Z" fill="#E0E0E0"/>
<path d="M78.1055 90.5135H73.1111L75.7367 69.1199C75.7997 68.6729 76.0193 68.2628 76.3564 67.9626C76.6935 67.6624 77.1262 67.4916 77.5775 67.4807H99.3599L96.1655 90.5039L78.1055 90.5135Z" fill="#F5F5F5"/>
<path d="M93.9456 90.5135H98.94L101.568 69.1199C101.6 68.9142 101.587 68.704 101.528 68.5042C101.47 68.3043 101.369 68.1197 101.232 67.9633C101.094 67.8069 100.924 67.6827 100.733 67.5993C100.543 67.5159 100.336 67.4754 100.128 67.4807H98.412C97.9615 67.4945 97.5303 67.6662 97.1938 67.9659C96.8573 68.2656 96.6369 68.6741 96.5712 69.1199L93.9456 90.5135Z" fill="#F0F0F0"/>
<path d="M92.1072 90.4799L93.012 80.1359C93.0311 79.9115 93.1266 79.7005 93.2825 79.538C93.4385 79.3755 93.6454 79.2714 93.8688 79.2431L94.2408 79.1951C94.5411 79.1575 94.8193 79.0177 95.0287 78.7992C95.238 78.5807 95.3658 78.2967 95.3904 77.9951L95.556 76.1087C95.5724 75.9258 95.5504 75.7415 95.4916 75.5676C95.4328 75.3937 95.3384 75.2339 95.2145 75.0984C95.0905 74.9629 94.9397 74.8548 94.7717 74.7808C94.6037 74.7068 94.422 74.6686 94.2384 74.6687H102.586C102.769 74.6686 102.951 74.7068 103.119 74.7808C103.287 74.8548 103.438 74.9629 103.562 75.0984C103.686 75.2339 103.78 75.3937 103.839 75.5676C103.898 75.7415 103.92 75.9258 103.903 76.1087L103.738 77.9951C103.713 78.2967 103.585 78.5807 103.376 78.7992C103.167 79.0177 102.888 79.1575 102.588 79.1951L102.216 79.2431C101.993 79.2718 101.786 79.376 101.63 79.5384C101.474 79.7008 101.379 79.9117 101.359 80.1359L100.454 90.4799C100.422 90.8434 100.255 91.1817 99.9857 91.4282C99.7166 91.6747 99.365 91.8115 99 91.8119H90.6528C91.0178 91.8115 91.3694 91.6747 91.6385 91.4282C91.9077 91.1817 92.0749 90.8434 92.1072 90.4799Z" fill="#E6E6E6"/>
<path d="M69.1344 77.556C69.0683 76.7708 68.7097 76.0391 68.1296 75.5057C67.5496 74.9724 66.7904 74.6763 66.0024 74.676H73.2696C74.0556 74.6792 74.8118 74.9767 75.3893 75.5098C75.9668 76.0429 76.3237 76.7729 76.3896 77.556L77.1096 85.7544H69.852L69.1344 77.556Z" fill="#E6E6E6"/>
<path d="M62.7743 74.6855H65.9999C66.7879 74.6858 67.5471 74.9819 68.1271 75.5152C68.7072 76.0486 69.0658 76.7803 69.1319 77.5655L69.8519 85.7639H87.1607L87.8807 77.5655C87.9462 76.7822 88.3029 76.0519 88.8805 75.5187C89.4581 74.9855 90.2147 74.6882 91.0007 74.6855H94.2287C94.4123 74.6855 94.594 74.7237 94.762 74.7976C94.93 74.8716 95.0808 74.9798 95.2048 75.1153C95.3287 75.2507 95.4231 75.4105 95.4819 75.5844C95.5407 75.7584 95.5627 75.9427 95.5463 76.1255L95.3807 78.0119C95.3561 78.3136 95.2283 78.5975 95.019 78.816C94.8096 79.0346 94.5314 79.1744 94.2311 79.2119L93.8591 79.2599C93.6357 79.2882 93.4288 79.3923 93.2728 79.5548C93.1169 79.7173 93.0214 79.9284 93.0023 80.1527L92.1071 90.4799C92.0748 90.8435 91.9076 91.1817 91.6384 91.4282C91.3693 91.6747 91.0177 91.8116 90.6527 91.8119H66.3599C65.995 91.8116 65.6434 91.6747 65.3742 91.4282C65.1051 91.1817 64.9379 90.8435 64.9055 90.4799L64.0007 80.1359C63.9808 79.9119 63.885 79.7013 63.7292 79.539C63.5735 79.3766 63.367 79.2723 63.1439 79.2431L62.7719 79.1951C62.4715 79.1572 62.1933 79.0174 61.9836 78.799C61.7739 78.5806 61.6456 78.2968 61.6199 77.9951L61.4567 76.1087C61.4428 75.9272 61.4666 75.7448 61.5265 75.5728C61.5864 75.4009 61.6812 75.2432 61.8049 75.1096C61.9286 74.976 62.0785 74.8693 62.2454 74.7964C62.4122 74.7234 62.5923 74.6857 62.7743 74.6855Z" fill="#F0F0F0"/>
<path d="M24.5184 39.2353C24.5184 39.2353 24.252 37.4809 25.5312 36.3553C26.8104 35.2297 26.6976 34.5625 26.3304 34.4761C25.9632 34.3897 25.6296 35.5129 25.068 35.8225C25.068 35.8225 25.0488 34.2193 25.62 33.6313C26.1912 33.0433 26.4912 31.5193 25.9464 31.4929C25.4016 31.4665 25.3488 32.3953 25.2264 33.0553C25.104 33.7153 24.5064 34.6417 24.5064 34.6417C24.5064 34.6417 24.3888 33.2017 24.0264 32.6185C23.664 32.0353 24.6408 30.6793 24.2664 30.0913C23.892 29.5033 23.2128 30.6241 23.268 31.8889C23.3232 33.1537 24.168 34.5025 23.9712 35.8225C23.9712 35.8225 23.5992 34.8937 23.2656 34.8097C22.932 34.7257 22.5936 34.1137 22.3704 33.8857C22.1472 33.6577 21.864 34.4449 22.3704 35.1745C22.8768 35.9041 24.168 37.8601 23.9712 39.4393L24.5184 39.2353Z" fill="#E6E6E6"/>
<path d="M25.2817 38.436L25.7017 41.064C25.7319 41.2548 25.7203 41.4499 25.6679 41.6358C25.6154 41.8218 25.5233 41.9941 25.3978 42.141C25.2724 42.2879 25.1166 42.4059 24.9411 42.4868C24.7657 42.5677 24.5749 42.6096 24.3817 42.6096H23.9353C23.7421 42.6096 23.5512 42.5677 23.3758 42.4868C23.2004 42.4059 23.0446 42.2879 22.9191 42.141C22.7937 41.9941 22.7016 41.8218 22.6491 41.6358C22.5966 41.4499 22.5851 41.2548 22.6153 41.064L23.0401 38.436H25.2817Z" fill="#E6E6E6"/>
<path d="M50.4119 42.0959H51.7151V36.4919H50.4119V42.0959Z" fill="#EBEBEB"/>
<path d="M44.1096 42.0959H45.4128V36.4919H44.1096V42.0959Z" fill="#EBEBEB"/>
<path d="M36.0033 41.8731L37.2876 42.0945L38.2395 36.5719L36.9553 36.3506L36.0033 41.8731Z" fill="#EBEBEB"/>
<path d="M48.7969 42.0935H50.1001V37.2287H48.7969V42.0935Z" fill="#EBEBEB"/>
<path d="M45.8015 42.0935H47.1047V37.2287H45.8015V42.0935Z" fill="#EBEBEB"/>
<path d="M38.2368 42.0935H39.54V37.2287H38.2368V42.0935Z" fill="#EBEBEB"/>
<path d="M41.3448 41.8113L42.6169 42.094L43.6724 37.3451L42.4002 37.0623L41.3448 41.8113Z" fill="#EBEBEB"/>
<path d="M47.6687 42.0959H48.3215V36.2135H47.6687V42.0959Z" fill="#EBEBEB"/>
<path d="M39.9143 42.0959H40.5671V36.2135H39.9143V42.0959Z" fill="#EBEBEB"/>
<path d="M35.2681 37.6462H28.9153V42.031H35.2681V37.6462Z" fill="#EBEBEB"/>
<path d="M57.0552 39.4417H51.7344V42.7153H57.0552V39.4417Z" fill="#EBEBEB"/>
<path d="M55.812 36.564H53.1504V39.8376H55.812V36.564Z" fill="#EBEBEB"/>
<path d="M100.274 32.2319H93.9456V58.6031H100.274V32.2319Z" fill="#E0E0E0"/>
<path d="M75.9264 58.675H99.5952V32.2342H75.9264V58.675Z" fill="#E0E0E0"/>
<path d="M75.1632 58.675H99.72V32.2342H75.1632V58.675Z" fill="#F0F0F0"/>
<path d="M76.2143 57.4583H98.7119V33.0743H76.2143V57.4583Z" fill="white"/>
<path d="M76.212 57.4583H76.6296V33.0743H76.212V57.4583Z" fill="#E0E0E0"/>
<path d="M76.5625 50.6112V51.2688H98.7721V50.6112H76.5625Z" fill="#E0E0E0"/>
<path d="M76.2121 50.6086H99.0625V49.5046H76.2121V50.6086Z" fill="#F0F0F0"/>
<path d="M59.9999 102.615C85.6997 102.615 106.534 101.398 106.534 99.8977C106.534 98.3973 85.6997 97.1809 59.9999 97.1809C34.3001 97.1809 13.4663 98.3973 13.4663 99.8977C13.4663 101.398 34.3001 102.615 59.9999 102.615Z" fill="#F5F5F5"/>
<path d="M77.268 36.6768H34.3296C33.3593 36.6768 32.5728 37.4633 32.5728 38.4336V88.992C32.5728 89.9622 33.3593 90.7488 34.3296 90.7488H77.268C78.2382 90.7488 79.0247 89.9622 79.0247 88.992V38.4336C79.0247 37.4633 78.2382 36.6768 77.268 36.6768Z" fill="#242424"/>
<path opacity="0.6" d="M77.268 36.6768H34.3296C33.3593 36.6768 32.5728 37.4633 32.5728 38.4336V88.992C32.5728 89.9622 33.3593 90.7488 34.3296 90.7488H77.268C78.2382 90.7488 79.0247 89.9622 79.0247 88.992V38.4336C79.0247 37.4633 78.2382 36.6768 77.268 36.6768Z" fill="#6E6E6E"/>
<path d="M71.5007 61.4761H40.0991V66.8521H71.5007V61.4761Z" fill="white"/>
<g opacity="0.4">
<path d="M42.9072 64.6873V64.8289H41.8176V63.2881H42.8736V63.4273H41.9808V63.9769H42.7776V64.1137H41.9808V64.6873H42.9072Z" fill="black"/>
<path d="M43.1257 64.1641H43.7041V64.2985H43.1257V64.1641Z" fill="black"/>
<path d="M45.9624 64.1567V64.8287H45.8064V64.1711C45.8064 63.9311 45.684 63.8015 45.4752 63.8015C45.4211 63.799 45.367 63.8083 45.3169 63.8289C45.2668 63.8494 45.2217 63.8807 45.1849 63.9205C45.1481 63.9602 45.1204 64.0076 45.1038 64.0592C45.0872 64.1108 45.0821 64.1653 45.0888 64.2191V64.8287H44.9304V64.1711C44.9304 63.9311 44.808 63.8015 44.5968 63.8015C44.5427 63.799 44.4886 63.8083 44.4385 63.8289C44.3884 63.8494 44.3433 63.8807 44.3065 63.9205C44.2697 63.9602 44.242 64.0076 44.2254 64.0592C44.2088 64.1108 44.2037 64.1653 44.2104 64.2191V64.8287H44.052V63.6695H44.2032V63.8807C44.2485 63.81 44.3116 63.7523 44.3861 63.7136C44.4607 63.6748 44.5441 63.6563 44.628 63.6599C44.7128 63.6527 44.7978 63.6719 44.8712 63.7149C44.9447 63.7579 45.0031 63.8225 45.0384 63.8999C45.0864 63.8226 45.1542 63.7595 45.2348 63.7173C45.3154 63.6751 45.4059 63.6553 45.4968 63.6599C45.5619 63.655 45.6274 63.6647 45.6883 63.6884C45.7492 63.7121 45.804 63.7491 45.8486 63.7968C45.8933 63.8444 45.9267 63.9015 45.9464 63.9638C45.9661 64.0261 45.9716 64.092 45.9624 64.1567Z" fill="black"/>
<path d="M47.2633 64.1088V64.8288H47.1121V64.6464C47.0691 64.7113 47.0094 64.7635 46.9393 64.7972C46.8692 64.831 46.7912 64.8453 46.7137 64.8384C46.4521 64.8384 46.2913 64.7016 46.2913 64.5024C46.2913 64.3032 46.4065 64.1736 46.7377 64.1736H47.1049V64.104C47.1049 63.9048 46.9945 63.7968 46.7785 63.7968C46.6375 63.7952 46.5006 63.8437 46.3921 63.9336L46.3225 63.8184C46.4581 63.7093 46.6286 63.6531 46.8025 63.66C46.8637 63.6526 46.9259 63.6589 46.9843 63.6787C47.0428 63.6984 47.0961 63.731 47.1403 63.7741C47.1845 63.8171 47.2185 63.8695 47.2398 63.9275C47.2611 63.9854 47.2691 64.0474 47.2633 64.1088ZM47.1049 64.4808V64.2912H46.7425C46.5193 64.2912 46.4449 64.3776 46.4449 64.4976C46.4449 64.6176 46.5529 64.716 46.7377 64.716C46.816 64.7212 46.8939 64.7011 46.96 64.6588C47.026 64.6165 47.0768 64.5541 47.1049 64.4808Z" fill="black"/>
<path d="M47.6521 63.3048C47.6524 63.2899 47.6556 63.2753 47.6616 63.2618C47.6676 63.2482 47.6761 63.2359 47.6868 63.2257C47.6975 63.2154 47.7101 63.2074 47.7239 63.202C47.7378 63.1966 47.7525 63.194 47.7673 63.1944C47.7818 63.194 47.7962 63.1966 47.8097 63.2018C47.8233 63.2071 47.8356 63.215 47.8461 63.225C47.8565 63.235 47.8649 63.247 47.8708 63.2603C47.8766 63.2736 47.8798 63.2879 47.8801 63.3024C47.8804 63.3174 47.8777 63.3323 47.8722 63.3463C47.8667 63.3602 47.8584 63.3729 47.8479 63.3837C47.8374 63.3944 47.8249 63.4029 47.811 63.4087C47.7972 63.4146 47.7823 63.4176 47.7673 63.4176C47.7523 63.4179 47.7374 63.4152 47.7234 63.4097C47.7094 63.4041 47.6967 63.3959 47.686 63.3854C47.6753 63.3749 47.6667 63.3623 47.6609 63.3485C47.6551 63.3346 47.6521 63.3198 47.6521 63.3048ZM47.6881 63.6696H47.8441V64.8288H47.6881V63.6696Z" fill="black"/>
<path d="M48.2783 63.1943H48.4343V64.8287H48.2783V63.1943Z" fill="black"/>
</g>
<path d="M71.5007 68.8201H40.0991V74.1961H71.5007V68.8201Z" fill="white"/>
<g opacity="0.4">
<path d="M43.0224 71.1673C43.0224 71.4961 42.7824 71.6953 42.3936 71.6953H41.9808V72.1753H41.8176V70.6345H42.3936C42.7848 70.6393 43.0224 70.8385 43.0224 71.1673ZM42.8592 71.1673C42.8592 70.9273 42.6984 70.7809 42.3792 70.7809H41.9712V71.5513H42.3792C42.6984 71.5513 42.8592 71.4097 42.8592 71.1673Z" fill="black"/>
<path d="M44.2056 71.4624V72.1824H44.0544V72C44.0115 72.0649 43.9518 72.117 43.8817 72.1508C43.8115 72.1846 43.7336 72.1988 43.656 72.192C43.3944 72.192 43.2336 72.0552 43.2336 71.8536C43.2336 71.652 43.3488 71.52 43.68 71.52H44.0472V71.448C44.0472 71.2512 43.9344 71.1432 43.7184 71.1432C43.5782 71.1413 43.4419 71.1898 43.3344 71.28L43.2624 71.1624C43.3992 71.0557 43.5691 71.0004 43.7424 71.0064C43.8046 70.9983 43.8677 71.0045 43.927 71.0245C43.9864 71.0444 44.0405 71.0776 44.0851 71.1216C44.1297 71.1655 44.1638 71.219 44.1846 71.2781C44.2055 71.3371 44.2127 71.4001 44.2056 71.4624ZM44.0496 71.832V71.6424H43.68C43.4568 71.6424 43.3848 71.7312 43.3848 71.8512C43.3848 71.9712 43.4904 72.0672 43.6776 72.0672C43.7567 72.073 43.8355 72.0533 43.9025 72.011C43.9694 71.9686 44.021 71.9059 44.0496 71.832Z" fill="black"/>
<path d="M44.4697 72.0481L44.5393 71.9257C44.6604 72.0102 44.8045 72.0554 44.9521 72.0553C45.1705 72.0553 45.2617 71.9809 45.2617 71.8657C45.2617 71.5633 44.5105 71.8009 44.5105 71.3449C44.5105 71.1553 44.6737 71.0137 44.9689 71.0137C45.1129 71.0124 45.2546 71.0497 45.3793 71.1217L45.3097 71.2465C45.2088 71.1798 45.0899 71.1455 44.9689 71.1481C44.7601 71.1481 44.6665 71.2297 44.6665 71.3401C44.6665 71.6521 45.4177 71.4169 45.4177 71.8609C45.4177 72.0625 45.2425 72.1921 44.9377 72.1921C44.7702 72.1964 44.6058 72.1459 44.4697 72.0481Z" fill="black"/>
<path d="M45.5449 72.0481L45.6169 71.9257C45.7366 72.0112 45.8803 72.0566 46.0273 72.0553C46.2481 72.0553 46.3369 71.9809 46.3369 71.8657C46.3369 71.5633 45.5881 71.8009 45.5881 71.3449C45.5881 71.1553 45.7513 71.0137 46.0441 71.0137C46.1882 71.0119 46.33 71.0492 46.4545 71.1217L46.3873 71.2465C46.2854 71.1801 46.1658 71.1458 46.0441 71.1481C45.8353 71.1481 45.7441 71.2297 45.7441 71.3401C45.7441 71.6521 46.4953 71.4169 46.4953 71.8609C46.4953 72.0625 46.3177 72.1921 46.0153 72.1921C45.8471 72.1961 45.6821 72.1456 45.5449 72.0481Z" fill="black"/>
<path d="M48.4585 71.0232L48.0217 72.18H47.8753L47.5201 71.232L47.1553 72.18H47.0089L46.5601 71.0232H46.7089L47.0737 72.0072L47.4457 71.0232H47.5801L47.9497 72.0072L48.3169 71.0232H48.4585Z" fill="black"/>
<path d="M48.5448 71.6016C48.5448 71.4849 48.5794 71.3707 48.6443 71.2736C48.7091 71.1765 48.8014 71.1009 48.9092 71.0562C49.0171 71.0115 49.1358 70.9998 49.2503 71.0226C49.3649 71.0454 49.4701 71.1016 49.5526 71.1842C49.6352 71.2667 49.6914 71.3719 49.7142 71.4864C49.737 71.601 49.7253 71.7197 49.6806 71.8276C49.6359 71.9354 49.5603 72.0277 49.4632 72.0925C49.3661 72.1574 49.2519 72.192 49.1352 72.192C49.0569 72.1947 48.9789 72.1813 48.9061 72.1525C48.8333 72.1238 48.7671 72.0804 48.7117 72.0251C48.6564 71.9697 48.613 71.9035 48.5843 71.8307C48.5555 71.7579 48.5421 71.6799 48.5448 71.6016ZM49.5648 71.6016C49.561 71.517 49.5324 71.4354 49.4826 71.3668C49.4328 71.2983 49.364 71.246 49.2846 71.2163C49.2053 71.1866 49.119 71.1808 49.0364 71.1998C48.9539 71.2188 48.8787 71.2616 48.8203 71.3229C48.7619 71.3843 48.7228 71.4615 48.7079 71.5448C48.693 71.6282 48.703 71.7142 48.7365 71.7919C48.7701 71.8697 48.8258 71.9359 48.8966 71.9823C48.9675 72.0287 49.0505 72.0532 49.1352 72.0528C49.1937 72.054 49.2519 72.0429 49.306 72.0203C49.3601 71.9978 49.4089 71.9642 49.4493 71.9218C49.4897 71.8793 49.5208 71.829 49.5407 71.7738C49.5606 71.7187 49.5688 71.6601 49.5648 71.6016Z" fill="black"/>
<path d="M50.6257 71.0137V71.1649H50.5873C50.5324 71.1623 50.4776 71.1718 50.4267 71.1927C50.3759 71.2137 50.3303 71.2456 50.2932 71.2861C50.2561 71.3266 50.2284 71.3749 50.212 71.4273C50.1956 71.4798 50.191 71.5353 50.1985 71.5897V72.1801H50.0425V71.0233H50.1913V71.2489C50.2318 71.1707 50.2948 71.1064 50.3723 71.0644C50.4497 71.0225 50.538 71.0048 50.6257 71.0137Z" fill="black"/>
<path d="M51.9529 70.5601V72.1921H51.8041V71.9641C51.7575 72.0399 51.6917 72.1021 51.6133 72.1443C51.5349 72.1864 51.4467 72.207 51.3577 72.2041C51.2079 72.1945 51.0674 72.1283 50.9648 72.0188C50.8621 71.9094 50.8049 71.7649 50.8049 71.6149C50.8049 71.4648 50.8621 71.3203 50.9648 71.2109C51.0674 71.1015 51.2079 71.0352 51.3577 71.0257C51.4455 71.0237 51.5323 71.0448 51.6094 71.087C51.6865 71.1291 51.7511 71.1907 51.7969 71.2657V70.5601H51.9529ZM51.7993 71.6137C51.7955 71.529 51.767 71.4474 51.7172 71.3789C51.6674 71.3103 51.5985 71.258 51.5192 71.2283C51.4399 71.1986 51.3536 71.1929 51.271 71.2118C51.1884 71.2308 51.1133 71.2736 51.0549 71.335C50.9965 71.3963 50.9574 71.4735 50.9425 71.5569C50.9276 71.6403 50.9375 71.7262 50.9711 71.804C51.0046 71.8817 51.0603 71.948 51.1312 71.9943C51.202 72.0407 51.285 72.0652 51.3697 72.0649C51.4294 72.0662 51.4887 72.0548 51.5436 72.0315C51.5986 72.0082 51.648 71.9736 51.6886 71.9298C51.7292 71.886 51.76 71.8342 51.7791 71.7776C51.7982 71.721 51.8051 71.6611 51.7993 71.6017V71.6137Z" fill="black"/>
</g>
<path opacity="0.2" d="M71.5007 79.6799H40.0991V85.0559H71.5007V79.6799Z" fill="black"/>
<g opacity="0.5">
<path d="M47.736 77.2104H47.2224L47.112 77.4504H47.0112L47.4312 76.5312H47.5272L47.9472 77.4504H47.8464L47.736 77.2104ZM47.7 77.1312L47.4792 76.6369L47.2584 77.1312H47.7Z" fill="black"/>
<path d="M48.0815 76.4807H48.1751V77.4551H48.0815V76.4807Z" fill="black"/>
<path d="M48.7848 76.7591V76.8503H48.7608C48.7273 76.8474 48.6936 76.8522 48.6622 76.8641C48.6308 76.8761 48.6025 76.8951 48.5794 76.9195C48.5563 76.944 48.5391 76.9734 48.5289 77.0054C48.5188 77.0375 48.516 77.0714 48.5208 77.1047V77.4575H48.4272V76.7663H48.5184V76.9007C48.5425 76.8523 48.5811 76.8126 48.6289 76.7872C48.6767 76.7618 48.7312 76.752 48.7848 76.7591Z" fill="black"/>
<path d="M49.548 77.1383H48.96C48.9618 77.172 48.9703 77.2049 48.985 77.2352C48.9996 77.2656 49.0202 77.2927 49.0454 77.315C49.0707 77.3373 49.1001 77.3544 49.132 77.3653C49.1638 77.3762 49.1976 77.3806 49.2312 77.3783C49.2711 77.3797 49.3108 77.3725 49.3477 77.3572C49.3845 77.3418 49.4176 77.3188 49.4448 77.2895L49.4952 77.3495C49.4456 77.4016 49.3817 77.4379 49.3116 77.4538C49.2414 77.4696 49.1681 77.4644 49.1009 77.4388C49.0337 77.4131 48.9756 77.3682 48.9339 77.3096C48.8922 77.251 48.8687 77.1814 48.8664 77.1095C48.8641 77.0639 48.8712 77.0183 48.8872 76.9756C48.9032 76.9328 48.9279 76.8938 48.9596 76.8609C48.9913 76.8281 49.0295 76.8021 49.0716 76.7846C49.1138 76.7671 49.1591 76.7584 49.2048 76.7591C49.2505 76.758 49.2958 76.7665 49.3381 76.7839C49.3803 76.8013 49.4184 76.8273 49.45 76.8603C49.4816 76.8932 49.506 76.9324 49.5217 76.9753C49.5373 77.0183 49.5438 77.064 49.5408 77.1095C49.5408 77.1095 49.548 77.1287 49.548 77.1383ZM48.9696 77.0687H49.4496C49.4496 77.0051 49.4243 76.944 49.3793 76.899C49.3343 76.854 49.2732 76.8287 49.2096 76.8287C49.1459 76.8287 49.0849 76.854 49.0399 76.899C48.9949 76.944 48.9696 77.0051 48.9696 77.0687Z" fill="black"/>
<path d="M50.2415 77.0401V77.4673H50.1599V77.3593C50.1345 77.3988 50.0986 77.4304 50.0562 77.4508C50.0138 77.4711 49.9667 77.4793 49.9199 77.4745C49.7639 77.4745 49.6799 77.3929 49.6799 77.2729C49.6799 77.1529 49.7471 77.0761 49.9463 77.0761H50.1599V77.0353C50.1599 76.9177 50.0927 76.8529 49.9631 76.8529C49.8758 76.8496 49.7904 76.8787 49.7231 76.9345L49.6823 76.8649C49.7619 76.8014 49.8614 76.7682 49.9631 76.7713C50.0003 76.7649 50.0384 76.7674 50.0744 76.7785C50.1104 76.7896 50.1433 76.809 50.1704 76.8352C50.1975 76.8613 50.2181 76.8935 50.2304 76.9291C50.2428 76.9647 50.2466 77.0027 50.2415 77.0401ZM50.1503 77.2609V77.1457H49.9319C49.7975 77.1457 49.7543 77.1985 49.7543 77.2705C49.7543 77.3425 49.8191 77.4001 49.9295 77.4001C49.9792 77.4039 50.0288 77.3911 50.0705 77.3637C50.1122 77.3364 50.1436 77.296 50.1599 77.2489L50.1503 77.2609Z" fill="black"/>
<path d="M51.1201 76.4807V77.4551H51.0313V77.3183C51.004 77.3641 50.9649 77.4017 50.918 77.4271C50.8711 77.4524 50.8182 77.4646 50.7649 77.4623C50.6767 77.455 50.5944 77.4148 50.5344 77.3497C50.4744 77.2845 50.4412 77.1992 50.4412 77.1107C50.4412 77.0222 50.4744 76.9369 50.5344 76.8717C50.5944 76.8066 50.6767 76.7664 50.7649 76.7591C50.8169 76.7577 50.8684 76.7695 50.9145 76.7934C50.9607 76.8174 51.0001 76.8526 51.0289 76.8959V76.4807H51.1201ZM51.0289 77.1095C51.0265 77.0593 51.0095 77.0109 50.9799 76.9703C50.9503 76.9296 50.9094 76.8986 50.8623 76.881C50.8152 76.8634 50.764 76.86 50.715 76.8712C50.666 76.8824 50.6214 76.9078 50.5867 76.9441C50.552 76.9805 50.5287 77.0262 50.5197 77.0757C50.5107 77.1251 50.5165 77.1761 50.5362 77.2224C50.5559 77.2686 50.5888 77.308 50.6307 77.3357C50.6727 77.3634 50.7218 77.3783 50.7721 77.3783C50.8078 77.3804 50.8436 77.3749 50.8771 77.3621C50.9105 77.3494 50.9409 77.3296 50.9661 77.3041C50.9913 77.2787 51.0108 77.2482 51.0233 77.2146C51.0357 77.1811 51.0409 77.1452 51.0385 77.1095H51.0289Z" fill="black"/>
<path d="M51.9721 76.7639L51.6265 77.5391C51.5689 77.6735 51.4945 77.7167 51.3865 77.7167C51.3245 77.7184 51.2643 77.696 51.2185 77.6543L51.2617 77.5847C51.2954 77.6185 51.3412 77.6375 51.3889 77.6375C51.4513 77.6375 51.4921 77.6087 51.5329 77.5199L51.5617 77.4551L51.2521 76.7639H51.3601L51.6217 77.3519L51.8809 76.7639H51.9721Z" fill="black"/>
<path d="M52.9704 77.0401V77.4673H52.8816V77.3593C52.8561 77.3988 52.8202 77.4304 52.7779 77.4508C52.7355 77.4711 52.6884 77.4793 52.6416 77.4745C52.4856 77.4745 52.4016 77.3929 52.4016 77.2729C52.4016 77.1529 52.4688 77.0761 52.668 77.0761H52.8864V77.0353C52.8864 76.9177 52.8216 76.8529 52.692 76.8529C52.6047 76.8496 52.5193 76.8787 52.452 76.9345L52.4088 76.8649C52.4893 76.8014 52.5896 76.7683 52.692 76.7713C52.7292 76.7649 52.7673 76.7674 52.8033 76.7785C52.8393 76.7896 52.8722 76.809 52.8993 76.8352C52.9264 76.8613 52.947 76.8935 52.9593 76.9291C52.9717 76.9647 52.9755 77.0027 52.9704 77.0401ZM52.8768 77.2609V77.1457H52.6608C52.5264 77.1457 52.4832 77.1985 52.4832 77.2705C52.4832 77.3425 52.548 77.4001 52.6584 77.4001C52.7063 77.402 52.7535 77.3883 52.7929 77.361C52.8323 77.3337 52.8617 77.2944 52.8768 77.2489V77.2609Z" fill="black"/>
<path d="M54.72 77.0544V77.4552H54.6288V77.064C54.6288 76.9176 54.5544 76.8432 54.4296 76.8432C54.3975 76.8407 54.3651 76.8452 54.3349 76.8564C54.3046 76.8675 54.2771 76.8851 54.2543 76.9079C54.2315 76.9307 54.2139 76.9582 54.2027 76.9885C54.1916 77.0188 54.1871 77.0511 54.1896 77.0832V77.4456H54.0984V77.064C54.0984 76.9176 54.024 76.8432 53.8968 76.8432C53.8647 76.8407 53.8323 76.8452 53.8021 76.8564C53.7718 76.8675 53.7443 76.8851 53.7215 76.9079C53.6987 76.9307 53.6811 76.9582 53.6699 76.9885C53.6588 77.0188 53.6543 77.0511 53.6568 77.0832V77.4456H53.5632V76.7544H53.652V76.8816C53.6785 76.8386 53.7161 76.8036 53.7609 76.7804C53.8058 76.7571 53.856 76.7465 53.9064 76.7496C53.9568 76.7457 54.007 76.7577 54.0501 76.784C54.0932 76.8103 54.1269 76.8495 54.1464 76.896C54.1744 76.849 54.2146 76.8105 54.2628 76.7847C54.3111 76.7589 54.3654 76.7468 54.42 76.7496C54.4615 76.7422 54.5041 76.745 54.5443 76.7578C54.5844 76.7706 54.6208 76.793 54.6504 76.823C54.6799 76.853 54.7017 76.8898 54.7138 76.9301C54.726 76.9704 54.7281 77.0131 54.72 77.0544Z" fill="black"/>
<path d="M55.5697 77.1385H54.9913C54.9963 77.2064 55.0277 77.2697 55.0789 77.3146C55.1301 77.3595 55.197 77.3824 55.2649 77.3785C55.3045 77.38 55.3439 77.3728 55.3804 77.3575C55.4169 77.3421 55.4495 77.319 55.4761 77.2897L55.5289 77.3497C55.4952 77.3865 55.454 77.4156 55.408 77.4351C55.362 77.4545 55.3124 77.4639 55.2625 77.4625C55.215 77.4655 55.1673 77.4586 55.1226 77.4421C55.0779 77.4255 55.0371 77.3998 55.003 77.3666C54.9688 77.3333 54.942 77.2933 54.9243 77.249C54.9066 77.2048 54.8984 77.1573 54.9001 77.1097C54.9001 77.0206 54.9355 76.9351 54.9986 76.8721C55.0616 76.8091 55.147 76.7737 55.2361 76.7737C55.3253 76.7737 55.4107 76.8091 55.4737 76.8721C55.5367 76.9351 55.5721 77.0206 55.5721 77.1097C55.5721 77.1097 55.5697 77.1289 55.5697 77.1385ZM54.9913 77.0689H55.4833C55.4833 77.0036 55.4574 76.9411 55.4113 76.8949C55.3652 76.8488 55.3026 76.8229 55.2373 76.8229C55.1721 76.8229 55.1095 76.8488 55.0634 76.8949C55.0173 76.9411 54.9913 77.0036 54.9913 77.0689Z" fill="black"/>
<path d="M56.9041 77.0544V77.4552H56.8105V77.064C56.8105 76.9176 56.7385 76.8432 56.6137 76.8432C56.5815 76.8403 56.549 76.8445 56.5185 76.8555C56.488 76.8665 56.4604 76.8841 56.4375 76.907C56.4146 76.9299 56.397 76.9576 56.386 76.988C56.3749 77.0185 56.3708 77.051 56.3737 77.0832V77.4456H56.2801V77.064C56.2801 76.9176 56.2081 76.8432 56.0809 76.8432C56.0487 76.8403 56.0162 76.8445 55.9857 76.8555C55.9552 76.8665 55.9276 76.8841 55.9047 76.907C55.8818 76.9299 55.8642 76.9576 55.8532 76.988C55.8421 77.0185 55.838 77.051 55.8409 77.0832V77.4456H55.7473V76.7544H55.8361V76.8816C55.8624 76.8385 55.9 76.8033 55.9448 76.78C55.9897 76.7568 56.0401 76.7462 56.0905 76.7496C56.1408 76.7457 56.1911 76.7577 56.2342 76.784C56.2773 76.8103 56.311 76.8495 56.3305 76.896C56.3584 76.849 56.3987 76.8105 56.4469 76.7847C56.4951 76.7589 56.5495 76.7468 56.6041 76.7496C56.6456 76.7422 56.6882 76.745 56.7284 76.7578C56.7685 76.7706 56.8049 76.793 56.8344 76.823C56.864 76.853 56.8858 76.8898 56.8979 76.9301C56.9101 76.9704 56.9122 77.0131 56.9041 77.0544Z" fill="black"/>
<path d="M57.8592 77.1095C57.8616 77.1556 57.8544 77.2017 57.8381 77.245C57.8218 77.2882 57.7967 77.3276 57.7645 77.3607C57.7323 77.3938 57.6936 77.4199 57.6509 77.4374C57.6081 77.4549 57.5622 77.4634 57.516 77.4623C57.4628 77.4646 57.4099 77.4524 57.363 77.4271C57.3161 77.4017 57.2769 77.3641 57.2496 77.3183V77.4551H57.1584V76.4807H57.252V76.8959C57.2807 76.8525 57.32 76.8171 57.3662 76.7931C57.4124 76.7692 57.464 76.7575 57.516 76.7591C57.5621 76.7577 57.608 76.7659 57.6507 76.7831C57.6934 76.8003 57.7322 76.8262 57.7644 76.8591C57.7966 76.892 57.8217 76.9313 57.838 76.9744C57.8544 77.0175 57.8616 77.0635 57.8592 77.1095ZM57.7656 77.1095C57.7633 77.0593 57.7463 77.0109 57.7167 76.9703C57.687 76.9296 57.6462 76.8986 57.5991 76.881C57.552 76.8634 57.5008 76.86 57.4518 76.8712C57.4028 76.8824 57.3582 76.9078 57.3234 76.9441C57.2887 76.9805 57.2654 77.0262 57.2565 77.0757C57.2475 77.1251 57.2532 77.1761 57.273 77.2224C57.2927 77.2686 57.3256 77.308 57.3675 77.3357C57.4094 77.3634 57.4586 77.3783 57.5088 77.3783C57.5438 77.3791 57.5785 77.3725 57.6108 77.3591C57.6431 77.3457 57.6723 77.3257 57.6964 77.3004C57.7206 77.2752 57.7392 77.2451 57.7511 77.2123C57.763 77.1794 57.768 77.1444 57.7656 77.1095Z" fill="black"/>
<path d="M58.6537 77.1384H58.0801C58.0819 77.1721 58.0904 77.205 58.1051 77.2353C58.1197 77.2657 58.1403 77.2928 58.1655 77.3151C58.1907 77.3374 58.2201 77.3545 58.252 77.3654C58.2839 77.3763 58.3177 77.3807 58.3513 77.3784C58.3912 77.3784 58.4306 77.3695 58.4667 77.3525C58.5027 77.3355 58.5346 77.3108 58.5601 77.28L58.6129 77.34C58.5633 77.3921 58.4994 77.4284 58.4292 77.4442C58.3591 77.4601 58.2858 77.4549 58.2186 77.4293C58.1514 77.4036 58.0933 77.3587 58.0516 77.3001C58.0098 77.2415 57.9863 77.1719 57.9841 77.1C57.9818 77.0544 57.9888 77.0088 58.0049 76.966C58.0209 76.9233 58.0456 76.8843 58.0773 76.8514C58.109 76.8186 58.1471 76.7926 58.1893 76.7751C58.2315 76.7576 58.2768 76.7489 58.3225 76.7496C58.368 76.7485 58.4133 76.7569 58.4554 76.7743C58.4975 76.7918 58.5355 76.8178 58.567 76.8508C58.5984 76.8839 58.6225 76.9231 58.6379 76.966C58.6532 77.0089 58.6594 77.0546 58.6561 77.1L58.6537 77.1384ZM58.0753 77.0688H58.5553C58.5553 77.0052 58.53 76.9441 58.485 76.8991C58.44 76.8541 58.3789 76.8288 58.3153 76.8288C58.2516 76.8288 58.1906 76.8541 58.1456 76.8991C58.1006 76.9441 58.0753 77.0052 58.0753 77.0688Z" fill="black"/>
<path d="M59.1936 76.7592V76.8504H59.172C59.1385 76.8475 59.1047 76.8522 59.0733 76.8642C59.0419 76.8762 59.0136 76.8951 58.9905 76.9196C58.9674 76.944 58.9502 76.9734 58.9401 77.0055C58.9299 77.0375 58.9272 77.0715 58.932 77.1048V77.4576H58.8384V76.7664H58.9272V76.9008C58.9515 76.8525 58.9902 76.813 59.0379 76.7877C59.0856 76.7623 59.14 76.7524 59.1936 76.7592Z" fill="black"/>
<path d="M59.7984 76.7711C59.7984 76.6751 59.7216 76.6103 59.5872 76.6103C59.54 76.6076 59.4927 76.6158 59.449 76.6341C59.4054 76.6524 59.3665 76.6803 59.3352 76.7159L59.2656 76.6631C59.3065 76.6169 59.3574 76.5806 59.4143 76.5569C59.4713 76.5332 59.5328 76.5228 59.5944 76.5263C59.7792 76.5263 59.8968 76.6151 59.8968 76.7663C59.8968 76.9895 59.6568 77.0063 59.6568 77.1887H59.5584C59.5584 76.9631 59.7984 76.9415 59.7984 76.7711ZM59.5392 77.3927C59.5422 77.3768 59.5507 77.3624 59.5632 77.352C59.5757 77.3416 59.5914 77.336 59.6076 77.336C59.6239 77.336 59.6396 77.3416 59.6521 77.352C59.6645 77.3624 59.673 77.3768 59.676 77.3927C59.6779 77.4028 59.6776 77.4131 59.675 77.423C59.6724 77.4329 59.6677 77.4421 59.6612 77.45C59.6547 77.4579 59.6465 77.4642 59.6372 77.4686C59.628 77.4729 59.6179 77.4752 59.6076 77.4752C59.5974 77.4752 59.5873 77.4729 59.578 77.4686C59.5688 77.4642 59.5606 77.4579 59.5541 77.45C59.5475 77.4421 59.5428 77.4329 59.5402 77.423C59.5377 77.4131 59.5373 77.4028 59.5392 77.3927Z" fill="black"/>
<path d="M60.4487 76.5359H60.6623V77.2799H61.1231V77.4527H60.4487V76.5359Z" fill="black"/>
<path d="M61.1712 77.1025C61.1663 77.0248 61.185 76.9474 61.2247 76.8803C61.2644 76.8133 61.3233 76.7598 61.3938 76.7266C61.4643 76.6935 61.5431 76.6823 61.62 76.6945C61.6969 76.7067 61.7684 76.7417 61.8252 76.795C61.882 76.8483 61.9215 76.9174 61.9386 76.9934C61.9556 77.0694 61.9495 77.1487 61.9209 77.2212C61.8923 77.2937 61.8426 77.3559 61.7782 77.3997C61.7139 77.4436 61.6378 77.4671 61.56 77.4673C61.5101 77.4706 61.46 77.4636 61.413 77.4467C61.3659 77.4299 61.3228 77.4035 61.2863 77.3693C61.2499 77.3351 61.2208 77.2938 61.201 77.2479C61.1812 77.202 61.171 77.1525 61.1712 77.1025ZM61.74 77.1025C61.7372 77.0676 61.7243 77.0344 61.7029 77.0067C61.6815 76.9791 61.6525 76.9583 61.6194 76.9468C61.5864 76.9354 61.5507 76.9338 61.5168 76.9423C61.4829 76.9508 61.4522 76.969 61.4285 76.9946C61.4047 77.0203 61.3889 77.0523 61.3831 77.0867C61.3772 77.1212 61.3815 77.1566 61.3955 77.1887C61.4094 77.2208 61.4324 77.2481 61.4616 77.2673C61.4908 77.2865 61.525 77.2968 61.56 77.2969C61.585 77.2973 61.6098 77.2925 61.6328 77.2827C61.6558 77.2729 61.6765 77.2583 61.6935 77.24C61.7105 77.2216 61.7234 77.1999 61.7314 77.1762C61.7394 77.1525 61.7423 77.1274 61.74 77.1025Z" fill="black"/>
<path d="M62.8153 76.7471V77.3375C62.8218 77.3906 62.816 77.4444 62.7982 77.4949C62.7805 77.5453 62.7513 77.5909 62.7129 77.6281C62.6745 77.6653 62.628 77.6931 62.5771 77.7094C62.5261 77.7256 62.4721 77.7297 62.4193 77.7215C62.2958 77.7263 62.174 77.6918 62.0713 77.6231L62.1529 77.4767C62.223 77.5269 62.3067 77.5545 62.3929 77.5559C62.5369 77.5559 62.6017 77.4911 62.6017 77.3639V77.3327C62.5729 77.3626 62.5382 77.386 62.4997 77.4013C62.4612 77.4166 62.4198 77.4235 62.3785 77.4215C62.3311 77.4255 62.2835 77.4196 62.2386 77.4042C62.1937 77.3888 62.1524 77.3643 62.1175 77.3321C62.0825 77.3 62.0546 77.261 62.0355 77.2175C62.0164 77.174 62.0066 77.127 62.0066 77.0795C62.0066 77.032 62.0164 76.9851 62.0355 76.9416C62.0546 76.8981 62.0825 76.8591 62.1175 76.8269C62.1524 76.7948 62.1937 76.7702 62.2386 76.7548C62.2835 76.7395 62.3311 76.7336 62.3785 76.7375C62.4236 76.7339 62.469 76.7412 62.5107 76.7587C62.5525 76.7763 62.5894 76.8036 62.6185 76.8383V76.7471H62.8153ZM62.6137 77.0807C62.6144 77.0567 62.6101 77.0328 62.6009 77.0105C62.5918 76.9883 62.578 76.9682 62.5606 76.9517C62.5431 76.9351 62.5224 76.9224 62.4997 76.9145C62.477 76.9065 62.4528 76.9035 62.4289 76.9055C62.4043 76.9026 62.3794 76.905 62.3558 76.9124C62.3322 76.9198 62.3105 76.9322 62.292 76.9486C62.2735 76.965 62.2587 76.9852 62.2486 77.0078C62.2384 77.0303 62.2332 77.0548 62.2332 77.0795C62.2332 77.1043 62.2384 77.1287 62.2486 77.1513C62.2587 77.1739 62.2735 77.194 62.292 77.2105C62.3105 77.2269 62.3322 77.2392 62.3558 77.2466C62.3794 77.2541 62.4043 77.2564 62.4289 77.2535C62.4526 77.2556 62.4765 77.2526 62.4991 77.2448C62.5216 77.2369 62.5423 77.2245 62.5597 77.2082C62.5771 77.1919 62.5909 77.1722 62.6002 77.1502C62.6095 77.1282 62.6141 77.1046 62.6137 77.0807Z" fill="black"/>
<path d="M63.3601 76.536C63.3604 76.5199 63.3639 76.5041 63.3706 76.4894C63.3772 76.4748 63.3868 76.4616 63.3987 76.4508C63.4107 76.44 63.4247 76.4318 63.4399 76.4266C63.4551 76.4215 63.4713 76.4195 63.4873 76.4208C63.503 76.4191 63.5189 76.4207 63.534 76.4255C63.549 76.4302 63.563 76.438 63.5749 76.4484C63.5868 76.4587 63.5965 76.4714 63.6033 76.4857C63.6101 76.4999 63.6139 76.5154 63.6145 76.5312C63.6145 76.5649 63.6011 76.5973 63.5772 76.6211C63.5534 76.645 63.521 76.6584 63.4873 76.6584C63.4536 76.6584 63.4212 76.645 63.3974 76.6211C63.3735 76.5973 63.3601 76.5649 63.3601 76.5312V76.536ZM63.3841 76.7472H63.5881V77.4672H63.3841V76.7472Z" fill="black"/>
<path d="M64.4975 77.0401V77.4457H64.2935V77.0737C64.2935 76.9585 64.2407 76.9057 64.1495 76.9057C64.0583 76.9057 63.9791 76.9657 63.9791 77.0953V77.4457H63.7751V76.7257H63.9719V76.8097C64.0029 76.7778 64.0403 76.7529 64.0817 76.7367C64.1232 76.7206 64.1676 76.7135 64.2119 76.7161C64.2534 76.714 64.2948 76.7213 64.333 76.7374C64.3713 76.7535 64.4054 76.7781 64.4329 76.8092C64.4603 76.8404 64.4804 76.8773 64.4916 76.9173C64.5028 76.9572 64.5048 76.9992 64.4975 77.0401Z" fill="black"/>
</g>
<path d="M71.5007 79.3511H40.0991V84.7271H71.5007V79.3511Z" fill="#242424"/>
<path d="M51.7439 82.8743L51.3599 82.3199H51.2447H50.7887V82.8791H50.5247V81.0383H51.2447C51.7247 81.0383 52.0103 81.2783 52.0103 81.6815C52.0163 81.8092 51.9801 81.9353 51.9072 82.0403C51.8343 82.1454 51.7288 82.2234 51.6071 82.2623L52.0439 82.8791L51.7439 82.8743ZM51.7439 81.6743C51.7439 81.4103 51.5687 81.2615 51.2303 81.2615H50.7839V82.0895H51.2303C51.5615 82.0919 51.7367 81.9383 51.7367 81.6767L51.7439 81.6743Z" fill="white"/>
<path d="M53.6448 82.2624H52.5144C52.5322 82.3811 52.5938 82.4888 52.6871 82.5644C52.7804 82.6399 52.8986 82.6777 53.0184 82.6704C53.0937 82.6731 53.1688 82.6595 53.2384 82.6305C53.308 82.6015 53.3705 82.5578 53.4216 82.5024L53.5608 82.6656C53.4581 82.7698 53.3275 82.8422 53.1846 82.8741C53.0418 82.906 52.8928 82.896 52.7555 82.8454C52.6182 82.7947 52.4984 82.7055 52.4105 82.5885C52.3226 82.4715 52.2704 82.3316 52.26 82.1856C52.255 82.0913 52.2695 81.9971 52.3027 81.9088C52.3359 81.8204 52.3871 81.7399 52.4529 81.6723C52.5187 81.6047 52.5978 81.5514 52.6852 81.5158C52.7726 81.4802 52.8665 81.4631 52.9608 81.4656C53.0546 81.463 53.148 81.4801 53.2348 81.5158C53.3216 81.5515 53.4 81.605 53.4649 81.6728C53.5298 81.7406 53.5798 81.8213 53.6116 81.9096C53.6434 81.9979 53.6563 82.092 53.6496 82.1856C53.6496 82.2072 53.6472 82.2384 53.6448 82.2624ZM52.5144 82.08H53.4072C53.3957 81.9696 53.3438 81.8673 53.2613 81.793C53.1789 81.7187 53.0718 81.6775 52.9608 81.6775C52.8498 81.6775 52.7427 81.7187 52.6603 81.793C52.5778 81.8673 52.5259 81.9696 52.5144 82.08Z" fill="white"/>
<path d="M55.3343 81.4823V82.6823C55.3343 83.1743 55.0823 83.4023 54.6143 83.4023C54.3755 83.4125 54.1405 83.3396 53.9495 83.1959L54.0695 83.0015C54.2231 83.1207 54.4127 83.1842 54.6071 83.1815C54.9359 83.1815 55.0871 83.0303 55.0871 82.7135V82.6031C55.025 82.6743 54.9477 82.7307 54.8609 82.7681C54.7741 82.8055 54.68 82.8229 54.5855 82.8191C54.4067 82.8191 54.2351 82.748 54.1087 82.6215C53.9822 82.4951 53.9111 82.3235 53.9111 82.1447C53.9111 81.9658 53.9822 81.7943 54.1087 81.6678C54.2351 81.5413 54.4067 81.4703 54.5855 81.4703C54.6843 81.4673 54.7824 81.4874 54.872 81.5291C54.9616 81.5707 55.0402 81.6328 55.1015 81.7103V81.4943L55.3343 81.4823ZM55.0943 82.1423C55.0996 82.0464 55.076 81.9511 55.0266 81.8688C54.9772 81.7865 54.9042 81.7208 54.8171 81.6804C54.7299 81.64 54.6327 81.6267 54.5379 81.6421C54.4431 81.6575 54.3552 81.701 54.2854 81.767C54.2156 81.833 54.1672 81.9183 54.1464 82.0121C54.1256 82.1058 54.1335 82.2037 54.1689 82.2929C54.2043 82.3822 54.2657 82.4588 54.3451 82.5128C54.4245 82.5668 54.5183 82.5957 54.6143 82.5959C54.6757 82.5995 54.7373 82.5904 54.795 82.5692C54.8527 82.5479 54.9055 82.515 54.9498 82.4724C54.9942 82.4298 55.0294 82.3785 55.053 82.3217C55.0766 82.2649 55.0882 82.2038 55.0871 82.1423H55.0943Z" fill="white"/>
<path d="M55.7712 81.0503C55.7716 81.0283 55.7762 81.0065 55.7849 80.9862C55.7937 80.966 55.8063 80.9476 55.8221 80.9322C55.838 80.9169 55.8567 80.9048 55.8772 80.8966C55.8977 80.8885 55.9196 80.8844 55.9416 80.8847C55.9649 80.8819 55.9885 80.8841 56.0108 80.8911C56.0332 80.898 56.0538 80.9097 56.0714 80.9252C56.0889 80.9407 56.1029 80.9598 56.1126 80.9812C56.1222 81.0026 56.1271 81.0257 56.1271 81.0491C56.1271 81.0726 56.1222 81.0957 56.1126 81.1171C56.1029 81.1385 56.0889 81.1575 56.0714 81.1731C56.0538 81.1886 56.0332 81.2003 56.0108 81.2072C55.9885 81.2142 55.9649 81.2164 55.9416 81.2136C55.9197 81.2142 55.8978 81.2105 55.8773 81.2026C55.8569 81.1947 55.8381 81.1828 55.8223 81.1676C55.8064 81.1524 55.7937 81.1342 55.785 81.1141C55.7762 81.094 55.7715 81.0723 55.7712 81.0503ZM55.8168 81.4823H56.0688V82.8743H55.8168V81.4823Z" fill="white"/>
<path d="M56.3735 82.7279L56.4791 82.5287C56.6221 82.6215 56.7887 82.6715 56.9591 82.6727C57.1991 82.6727 57.2903 82.6007 57.2903 82.4831C57.2903 82.1711 56.4095 82.4423 56.4095 81.8855C56.4095 81.6455 56.6327 81.4679 56.9903 81.4679C57.1674 81.4651 57.342 81.509 57.4967 81.5951L57.3887 81.7943C57.2689 81.7189 57.1295 81.6805 56.9879 81.6839C56.7671 81.6839 56.6591 81.7655 56.6591 81.8759C56.6591 82.2047 57.5423 81.9359 57.5423 82.4783C57.5423 82.7183 57.3023 82.8911 56.9399 82.8911C56.7391 82.8941 56.542 82.8373 56.3735 82.7279Z" fill="white"/>
<path d="M58.6512 82.8C58.5639 82.8667 58.4563 82.9015 58.3464 82.8984C58.2872 82.9052 58.2272 82.8986 58.1709 82.8791C58.1145 82.8596 58.0633 82.8278 58.0209 82.7859C57.9785 82.7439 57.9461 82.693 57.926 82.6369C57.9059 82.5808 57.8987 82.5209 57.9048 82.4616V81.696H57.6648V81.4896H57.9048V81.1848H58.1448V81.4896H58.56V81.696H58.1592V82.452C58.1535 82.4829 58.1551 82.5147 58.1637 82.5449C58.1723 82.5751 58.1878 82.6029 58.209 82.6261C58.2301 82.6493 58.2563 82.6674 58.2856 82.6788C58.3148 82.6902 58.3463 82.6947 58.3776 82.692C58.4485 82.6927 58.5177 82.6699 58.5744 82.6272L58.6512 82.8Z" fill="white"/>
<path d="M60.1633 82.2624H59.0401C59.0579 82.3815 59.1198 82.4896 59.2137 82.5652C59.3075 82.6408 59.4263 82.6783 59.5465 82.6704C59.6215 82.6732 59.6962 82.6596 59.7654 82.6306C59.8346 82.6016 59.8967 82.5578 59.9473 82.5024L60.0865 82.6656C59.9841 82.7701 59.8536 82.8427 59.7108 82.8748C59.568 82.9068 59.419 82.8969 59.2818 82.8461C59.1445 82.7954 59.0249 82.706 58.9373 82.5888C58.8497 82.4716 58.7979 82.3316 58.7881 82.1856C58.7831 82.0913 58.7976 81.9971 58.8308 81.9087C58.864 81.8204 58.9151 81.7399 58.981 81.6723C59.0468 81.6046 59.1259 81.5513 59.2133 81.5158C59.3007 81.4802 59.3945 81.4631 59.4889 81.4656C59.5826 81.4633 59.6758 81.4807 59.7624 81.5165C59.8491 81.5523 59.9273 81.6058 59.9921 81.6736C60.057 81.7413 60.1069 81.8219 60.1389 81.91C60.1708 81.9982 60.184 82.092 60.1777 82.1856C60.1752 82.2115 60.1704 82.2372 60.1633 82.2624ZM59.0401 82.08H59.9353C59.9214 81.971 59.8683 81.8709 59.7859 81.7983C59.7035 81.7257 59.5975 81.6856 59.4877 81.6856C59.3779 81.6856 59.2718 81.7257 59.1894 81.7983C59.107 81.8709 59.0539 81.971 59.0401 82.08Z" fill="white"/>
<path d="M61.2696 81.4678V81.7078H61.212C61.1495 81.7034 61.0869 81.7132 61.0288 81.7364C60.9707 81.7596 60.9186 81.7956 60.8764 81.8417C60.8341 81.8879 60.8029 81.943 60.7849 82.0029C60.767 82.0629 60.7628 82.1261 60.7728 82.1878V82.8814H60.5208V81.4894H60.7608V81.7294C60.8115 81.6416 60.8864 81.5702 60.9767 81.5238C61.0669 81.4774 61.1686 81.458 61.2696 81.4678Z" fill="white"/>
<g opacity="0.6">
<path d="M50.3015 42.6263L50.4095 42.4007C50.5957 42.5569 50.8313 42.6419 51.0743 42.6407C51.4223 42.6407 51.5711 42.5063 51.5711 42.3311C51.5711 41.8511 50.3519 42.1487 50.3519 41.4023C50.3519 41.0903 50.5919 40.8263 51.1223 40.8263C51.3508 40.8226 51.5756 40.8842 51.7703 41.0039L51.6743 41.2439C51.5095 41.1384 51.318 41.0818 51.1223 41.0807C50.7791 41.0807 50.6423 41.2247 50.6423 41.3999C50.6423 41.8799 51.8639 41.5823 51.8639 42.3239C51.8639 42.6311 51.6239 42.8951 51.0839 42.8951C50.7995 42.9011 50.5222 42.8058 50.3015 42.6263Z" fill="black"/>
<path d="M52.1855 40.8576C52.1859 40.8335 52.191 40.8096 52.2006 40.7874C52.2102 40.7653 52.2241 40.7452 52.2415 40.7285C52.2589 40.7117 52.2795 40.6986 52.302 40.6899C52.3246 40.6812 52.3486 40.677 52.3727 40.6776C52.3966 40.6767 52.4204 40.6805 52.4427 40.6888C52.4651 40.6971 52.4856 40.7098 52.503 40.7261C52.5204 40.7424 52.5344 40.762 52.5442 40.7837C52.554 40.8055 52.5593 40.829 52.5599 40.8528C52.5599 40.9025 52.5402 40.9501 52.5051 40.9852C52.47 41.0203 52.4224 41.04 52.3727 41.04C52.3231 41.04 52.2755 41.0203 52.2404 40.9852C52.2053 40.9501 52.1855 40.9025 52.1855 40.8528V40.8576ZM52.2335 41.3376H52.5119V42.864H52.2335V41.3376Z" fill="black"/>
<path d="M54.4967 41.3304V42.648C54.4967 43.188 54.2231 43.4328 53.7071 43.4328C53.4482 43.441 53.1942 43.3606 52.9871 43.2048L53.1191 42.9912C53.2863 43.1234 53.494 43.1938 53.7071 43.1904C54.0671 43.1904 54.2303 43.0224 54.2303 42.6768V42.5568C54.1624 42.6352 54.0778 42.6975 53.9827 42.739C53.8876 42.7805 53.7844 42.8003 53.6807 42.7968C53.5803 42.8025 53.4797 42.7877 53.3852 42.7532C53.2907 42.7187 53.2042 42.6652 53.131 42.5962C53.0579 42.5271 52.9996 42.4438 52.9598 42.3514C52.92 42.259 52.8994 42.1594 52.8994 42.0588C52.8994 41.9582 52.92 41.8586 52.9598 41.7662C52.9996 41.6738 53.0579 41.5905 53.131 41.5214C53.2042 41.4523 53.2907 41.3989 53.3852 41.3644C53.4797 41.3299 53.5803 41.315 53.6807 41.3208C53.7868 41.3153 53.8927 41.334 53.9905 41.3756C54.0882 41.4172 54.1751 41.4805 54.2447 41.5608V41.3208L54.4967 41.3304ZM54.2279 42.0504C54.2332 41.9455 54.2069 41.8414 54.1525 41.7515C54.098 41.6617 54.0179 41.5902 53.9224 41.5464C53.827 41.5025 53.7206 41.4883 53.6169 41.5055C53.5133 41.5227 53.4172 41.5705 53.341 41.6429C53.2649 41.7152 53.2121 41.8087 53.1896 41.9113C53.1671 42.014 53.1758 42.121 53.2147 42.2185C53.2536 42.3161 53.3208 42.3998 53.4078 42.4588C53.4947 42.5178 53.5973 42.5494 53.7023 42.5496C53.771 42.5556 53.8402 42.5472 53.9054 42.5249C53.9706 42.5026 54.0305 42.467 54.0811 42.4202C54.1317 42.3734 54.172 42.3165 54.1993 42.2533C54.2267 42.19 54.2405 42.1217 54.2399 42.0528L54.2279 42.0504Z" fill="black"/>
<path d="M56.4743 41.9785V42.8569H56.1959V42.0001C56.1959 41.7001 56.0471 41.5537 55.7855 41.5537C55.7191 41.5493 55.6525 41.5597 55.5905 41.584C55.5285 41.6083 55.4726 41.6459 55.4267 41.6943C55.3809 41.7426 55.3463 41.8005 55.3254 41.8637C55.3044 41.9269 55.2976 41.994 55.3055 42.0601V42.8473H55.0295V41.3209H55.2959V41.5609C55.3614 41.4796 55.4456 41.4153 55.5413 41.3735C55.637 41.3317 55.7414 41.3137 55.8455 41.3209C55.9321 41.3151 56.0189 41.3283 56.0998 41.3598C56.1807 41.3912 56.2537 41.44 56.3137 41.5027C56.3737 41.5654 56.4191 41.6405 56.4469 41.7227C56.4747 41.805 56.484 41.8923 56.4743 41.9785Z" fill="black"/>
<path d="M59.1839 41.3305V42.8569H58.9223V42.6169C58.8614 42.6955 58.7825 42.7582 58.6923 42.8C58.6021 42.8418 58.5032 42.8613 58.4039 42.8569C58.3146 42.8661 58.2245 42.8552 58.14 42.8249C58.0556 42.7946 57.979 42.7458 57.9159 42.682C57.8528 42.6182 57.8048 42.5411 57.7754 42.4563C57.7461 42.3715 57.7361 42.2813 57.7463 42.1921V41.3137H58.0223V42.1609C58.0223 42.4585 58.1735 42.6097 58.4351 42.6097C58.5017 42.6145 58.5685 42.6045 58.6307 42.5803C58.6929 42.5562 58.749 42.5185 58.7949 42.4701C58.8408 42.4216 58.8754 42.3636 58.8962 42.3002C58.917 42.2368 58.9234 42.1695 58.9151 42.1033V41.3137L59.1839 41.3305Z" fill="black"/>
<path d="M61.2911 42.0936C61.2965 42.1966 61.2804 42.2996 61.2437 42.3961C61.2071 42.4925 61.1507 42.5803 61.0782 42.6537C61.0057 42.7271 60.9186 42.7846 60.8226 42.8224C60.7266 42.8603 60.6238 42.8777 60.5207 42.8736C60.4194 42.8775 60.3185 42.8579 60.2261 42.8162C60.1336 42.7746 60.0521 42.7121 59.9879 42.6336V43.4208H59.7119V41.3376H59.9759V41.5776C60.0393 41.494 60.1219 41.427 60.2168 41.3823C60.3117 41.3376 60.4159 41.3165 60.5207 41.3208C60.6233 41.3163 60.7256 41.3333 60.8213 41.3706C60.9169 41.4079 61.0037 41.4647 61.0762 41.5374C61.1487 41.6101 61.2052 41.6971 61.2422 41.7928C61.2792 41.8886 61.2959 41.991 61.2911 42.0936ZM61.0127 42.0936C61.008 41.9932 60.974 41.8965 60.9149 41.8153C60.8558 41.7341 60.7742 41.672 60.6802 41.6367C60.5861 41.6014 60.4838 41.5945 60.3859 41.6167C60.2879 41.639 60.1987 41.6895 60.1291 41.7619C60.0596 41.8344 60.0128 41.9256 59.9946 42.0244C59.9764 42.1232 59.9875 42.2251 60.0266 42.3176C60.0657 42.4101 60.1311 42.4891 60.2147 42.5448C60.2982 42.6006 60.3963 42.6306 60.4967 42.6312C60.5667 42.6326 60.6363 42.6195 60.701 42.5928C60.7657 42.566 60.8241 42.5261 60.8726 42.4755C60.9211 42.425 60.9586 42.365 60.9827 42.2992C61.0068 42.2335 61.017 42.1635 61.0127 42.0936Z" fill="black"/>
</g>
<path d="M71.5007 54.1296H40.0991V59.5056H71.5007V54.1296Z" fill="white"/>
<g opacity="0.4">
<path d="M41.8176 55.9417H41.9808V57.3409H42.8424V57.4825H41.8176V55.9417Z" fill="black"/>
<path d="M43.9584 56.7648V57.4848H43.8096V57.3048C43.7659 57.369 43.7061 57.4206 43.6361 57.4543C43.5662 57.488 43.4886 57.5027 43.4112 57.4968C43.1496 57.4968 42.9888 57.36 42.9888 57.1584C42.9888 56.9568 43.1016 56.832 43.4352 56.832H43.8024V56.7624C43.8024 56.5632 43.6896 56.4552 43.4736 56.4552C43.3333 56.4534 43.1971 56.5019 43.0896 56.592L43.0176 56.4744C43.1546 56.3683 43.3243 56.3131 43.4976 56.3184C43.5586 56.311 43.6205 56.3174 43.6788 56.337C43.7371 56.3566 43.7903 56.389 43.8344 56.4317C43.8786 56.4745 43.9126 56.5266 43.9341 56.5843C43.9555 56.6419 43.9638 56.7036 43.9584 56.7648ZM43.8024 57.1344V56.9448H43.44C43.2144 56.9448 43.1424 57.0336 43.1424 57.1536C43.1424 57.2736 43.2504 57.3696 43.4352 57.3696C43.5134 57.3744 43.5911 57.3542 43.6572 57.3119C43.7232 57.2697 43.774 57.2075 43.8024 57.1344Z" fill="black"/>
<path d="M44.2224 57.3602L44.292 57.2378C44.4131 57.3223 44.5572 57.3675 44.7048 57.3674C44.9256 57.3674 45.0144 57.293 45.0144 57.1778C45.0144 56.8754 44.2656 57.113 44.2656 56.657C44.2656 56.4674 44.4264 56.3258 44.7216 56.3258C44.8657 56.3239 45.0075 56.3612 45.132 56.4338L45.0624 56.5586C44.9615 56.4919 44.8426 56.4576 44.7216 56.4602C44.5128 56.4602 44.4216 56.5418 44.4216 56.6522C44.4216 56.9642 45.1704 56.729 45.1704 57.173C45.1704 57.3746 44.9952 57.5042 44.6904 57.5042C44.523 57.5078 44.3588 57.4573 44.2224 57.3602Z" fill="black"/>
<path d="M46.0799 57.4129C46.0117 57.467 45.9269 57.4958 45.8399 57.4945C45.7943 57.4994 45.7481 57.4941 45.7048 57.4788C45.6615 57.4635 45.6222 57.4387 45.5897 57.4063C45.5573 57.3738 45.5325 57.3345 45.5172 57.2912C45.502 57.2479 45.4966 57.2017 45.5015 57.1561V56.4577H45.2927V56.3257H45.5015V56.0713H45.6575V56.3257H46.0079V56.4577H45.6575V57.1489C45.6534 57.1765 45.6556 57.2047 45.664 57.2314C45.6724 57.2581 45.6867 57.2825 45.7059 57.3028C45.7251 57.3231 45.7486 57.3389 45.7747 57.3488C45.8009 57.3587 45.8289 57.3626 45.8567 57.3601C45.9197 57.362 45.9812 57.3406 46.0295 57.3001L46.0799 57.4129Z" fill="black"/>
<path d="M48.24 55.9417V57.4825H48.1056L47.1168 56.2321V57.4825H46.9536V55.9417H47.088L48.0792 57.1921V55.9417H48.24Z" fill="black"/>
<path d="M49.5935 56.7648V57.4848H49.4399V57.3048C49.3966 57.3693 49.3369 57.4212 49.2668 57.4549C49.1968 57.4887 49.119 57.5031 49.0415 57.4968C48.7799 57.4968 48.6191 57.36 48.6191 57.1584C48.6191 56.9568 48.7343 56.832 49.0679 56.832H49.4399V56.7624C49.4399 56.5632 49.3271 56.4552 49.1111 56.4552C48.9709 56.4533 48.8346 56.5019 48.7271 56.592L48.6551 56.4744C48.7919 56.3677 48.9618 56.3125 49.1351 56.3184C49.196 56.3114 49.2576 56.318 49.3156 56.3378C49.3736 56.3576 49.4264 56.39 49.4703 56.4327C49.5142 56.4755 49.548 56.5274 49.5694 56.5849C49.5907 56.6423 49.5989 56.7038 49.5935 56.7648ZM49.4375 57.1344V56.9448H49.0727C48.8495 56.9448 48.7775 57.0336 48.7775 57.1536C48.7775 57.2736 48.8855 57.3696 49.0703 57.3696C49.149 57.3749 49.2272 57.355 49.2937 57.3126C49.3602 57.2703 49.4115 57.2079 49.4399 57.1344H49.4375Z" fill="black"/>
<path d="M51.9287 56.8104V57.4824H51.7727V56.8272C51.7727 56.5872 51.6479 56.4576 51.4391 56.4576C51.385 56.4551 51.3309 56.4645 51.2808 56.485C51.2307 56.5056 51.1856 56.5368 51.1488 56.5766C51.112 56.6164 51.0843 56.6637 51.0677 56.7153C51.0511 56.7669 51.046 56.8215 51.0527 56.8752V57.4824H50.8967V56.8272C50.8967 56.5872 50.7719 56.4576 50.5607 56.4576C50.5066 56.4551 50.4526 56.4645 50.4024 56.485C50.3523 56.5056 50.3072 56.5368 50.2704 56.5766C50.2336 56.6164 50.2059 56.6637 50.1893 56.7153C50.1727 56.7669 50.1676 56.8215 50.1743 56.8752V57.4824H50.0183V56.3256H50.1599V56.5368C50.2052 56.4661 50.2683 56.4084 50.3428 56.3697C50.4174 56.331 50.5008 56.3124 50.5847 56.316C50.6698 56.309 50.755 56.3283 50.8288 56.3712C50.9026 56.4141 50.9615 56.4786 50.9975 56.556C51.0449 56.4787 51.1123 56.4156 51.1925 56.3734C51.2728 56.3311 51.3629 56.3113 51.4535 56.316C51.5192 56.3096 51.5855 56.3182 51.6474 56.341C51.7093 56.3639 51.7652 56.4005 51.8109 56.4481C51.8567 56.4957 51.891 56.553 51.9114 56.6157C51.9318 56.6785 51.9377 56.7451 51.9287 56.8104Z" fill="black"/>
<path d="M53.3665 56.952H52.4065C52.4099 57.0085 52.4243 57.0637 52.4491 57.1146C52.4739 57.1654 52.5084 57.2109 52.5508 57.2483C52.5931 57.2858 52.6425 57.3145 52.696 57.3329C52.7495 57.3512 52.8061 57.3588 52.8625 57.3552C52.9291 57.3574 52.9954 57.345 53.0568 57.3188C53.1181 57.2927 53.1731 57.2535 53.2177 57.204L53.3041 57.3048C53.2209 57.3917 53.114 57.4521 52.9967 57.4786C52.8794 57.505 52.7569 57.4963 52.6445 57.4536C52.5321 57.4108 52.4348 57.3359 52.3647 57.2381C52.2946 57.1404 52.2549 57.0242 52.2505 56.904C52.2466 56.8276 52.2583 56.7512 52.2851 56.6795C52.3119 56.6078 52.3531 56.5423 52.4062 56.4872C52.4593 56.4321 52.5232 56.3885 52.5938 56.359C52.6644 56.3296 52.7404 56.3149 52.8169 56.316C52.8933 56.3145 52.9692 56.3289 53.0398 56.3583C53.1104 56.3877 53.1741 56.4314 53.2269 56.4867C53.2797 56.5419 53.3204 56.6076 53.3465 56.6794C53.3726 56.7513 53.3835 56.8278 53.3785 56.904C53.3689 56.9184 53.3665 56.9352 53.3665 56.952ZM52.4065 56.8368H53.2273C53.2273 56.728 53.1841 56.6236 53.1071 56.5466C53.0301 56.4697 52.9257 56.4264 52.8169 56.4264C52.7081 56.4264 52.6037 56.4697 52.5267 56.5466C52.4497 56.6236 52.4065 56.728 52.4065 56.8368Z" fill="black"/>
</g>
<path d="M71.5007 46.7856H40.0991V52.1616H71.5007V46.7856Z" fill="white"/>
<g opacity="0.4">
<path d="M41.9808 48.7393V49.3441H42.7776V49.4857H41.9808V50.1385H41.8176V48.5977H42.8736V48.7393H41.9808Z" fill="black"/>
<path d="M43.1209 48.6144C43.1204 48.5914 43.1268 48.5688 43.1393 48.5495C43.1518 48.5302 43.1697 48.5151 43.1909 48.5061C43.212 48.497 43.2354 48.4946 43.2579 48.4989C43.2805 48.5033 43.3013 48.5143 43.3175 48.5306C43.3338 48.5468 43.3448 48.5676 43.3492 48.5901C43.3535 48.6127 43.351 48.6361 43.342 48.6572C43.333 48.6784 43.3179 48.6963 43.2986 48.7088C43.2793 48.7213 43.2567 48.7277 43.2337 48.7272C43.2038 48.7272 43.1751 48.7153 43.1539 48.6942C43.1328 48.673 43.1209 48.6443 43.1209 48.6144ZM43.1545 48.9816H43.3105V50.1384H43.1545V48.9816Z" fill="black"/>
<path d="M44.3305 48.9721V49.1233H44.2921C44.237 49.1206 44.1819 49.1302 44.1309 49.1512C44.0799 49.1723 44.0342 49.2044 43.997 49.2453C43.9599 49.2861 43.9322 49.3346 43.916 49.3874C43.8998 49.4402 43.8955 49.4959 43.9033 49.5505V50.1409H43.7473V48.9841H43.8961V49.2001C43.9376 49.1232 44.0011 49.0604 44.0785 49.0198C44.1559 48.9792 44.2436 48.9626 44.3305 48.9721Z" fill="black"/>
<path d="M44.46 50.0065L44.5296 49.8817C44.6495 49.9687 44.7942 50.0149 44.9424 50.0137C45.1632 50.0137 45.252 49.9369 45.252 49.8241C45.252 49.5217 44.5032 49.7593 44.5032 49.3009C44.5032 49.1137 44.664 48.9721 44.9592 48.9721C45.1034 48.969 45.2456 49.0064 45.3696 49.0801L45.3 49.2049C45.199 49.1382 45.0801 49.1039 44.9592 49.1065C44.7504 49.1065 44.6592 49.1881 44.6592 49.2985C44.6592 49.6105 45.408 49.3753 45.408 49.8193C45.408 50.0185 45.2328 50.1481 44.928 50.1481C44.7608 50.1525 44.5967 50.1028 44.46 50.0065Z" fill="black"/>
<path d="M46.3199 50.0688C46.251 50.1212 46.1665 50.149 46.0799 50.148C46.0344 50.1533 45.9883 50.1483 45.945 50.1333C45.9016 50.1184 45.8623 50.0938 45.8297 50.0615C45.7972 50.0292 45.7724 49.99 45.7571 49.9468C45.7418 49.9036 45.7365 49.8575 45.7415 49.812V49.1136H45.5327V48.9816H45.7415V48.72H45.8975V48.9744H46.2479V49.1064H45.8975V49.7952C45.8935 49.8229 45.8957 49.8512 45.9041 49.878C45.9125 49.9047 45.9267 49.9293 45.9459 49.9498C45.965 49.9703 45.9885 49.9862 46.0146 49.9964C46.0407 50.0066 46.0688 50.0109 46.0967 50.0088C46.1596 50.0096 46.2207 49.9884 46.2695 49.9488L46.3199 50.0688Z" fill="black"/>
<path d="M48.48 48.5977V50.1385H48.3456L47.3568 48.8881V50.1385H47.1936V48.5977H47.328L48.3192 49.8481V48.5977H48.48Z" fill="black"/>
<path d="M49.8311 49.4208V50.1408H49.6799V49.9608C49.6369 50.0249 49.5775 50.0763 49.5078 50.1097C49.4382 50.143 49.3609 50.1571 49.2839 50.1504C49.0199 50.1504 48.8591 50.016 48.8591 49.8144C48.8591 49.6128 48.9743 49.488 49.3079 49.488H49.6799V49.416C49.6799 49.2192 49.5671 49.1112 49.3511 49.1112C49.2109 49.1094 49.0746 49.1579 48.9671 49.248L48.8951 49.1304C49.032 49.0239 49.2018 48.9687 49.3751 48.9744C49.4359 48.9674 49.4975 48.974 49.5553 48.9938C49.6132 49.0135 49.6659 49.046 49.7097 49.0888C49.7534 49.1316 49.787 49.1836 49.808 49.2411C49.829 49.2985 49.8369 49.3599 49.8311 49.4208ZM49.6751 49.7904V49.6008H49.3103C49.0871 49.6008 49.0151 49.6896 49.0151 49.8072C49.0151 49.9248 49.1231 50.0256 49.3079 50.0256C49.3869 50.0311 49.4655 50.0112 49.5324 49.9689C49.5993 49.9266 49.651 49.8641 49.6799 49.7904H49.6751Z" fill="black"/>
<path d="M52.1665 49.4665V50.1385H52.0105V49.4833C52.0105 49.2433 51.8857 49.1137 51.6769 49.1137C51.6228 49.1112 51.5687 49.1205 51.5186 49.1411C51.4685 49.1616 51.4234 49.1929 51.3866 49.2326C51.3498 49.2724 51.3221 49.3198 51.3055 49.3713C51.2889 49.4229 51.2838 49.4775 51.2905 49.5313V50.1385H51.1345V49.4833C51.1345 49.2433 51.0097 49.1137 50.7985 49.1137C50.7444 49.1112 50.6903 49.1205 50.6402 49.1411C50.5901 49.1616 50.545 49.1929 50.5082 49.2326C50.4714 49.2724 50.4437 49.3198 50.4271 49.3713C50.4105 49.4229 50.4054 49.4775 50.4121 49.5313V50.1385H50.2561V48.9817H50.4001V49.2001C50.4454 49.1293 50.5085 49.0717 50.583 49.033C50.6576 48.9942 50.741 48.9757 50.8249 48.9793C50.91 48.9723 50.9952 48.9916 51.069 49.0345C51.1428 49.0774 51.2017 49.1419 51.2377 49.2193C51.2847 49.1416 51.352 49.0782 51.4323 49.0359C51.5127 48.9936 51.6031 48.974 51.6937 48.9793C51.7585 48.9735 51.8238 48.9822 51.8848 49.0048C51.9458 49.0275 52.001 49.0634 52.0463 49.1101C52.0916 49.1568 52.1259 49.2131 52.1467 49.2747C52.1675 49.3364 52.1743 49.4019 52.1665 49.4665Z" fill="black"/>
<path d="M53.6041 49.608H52.6441C52.6474 49.6645 52.6619 49.7197 52.6866 49.7706C52.7114 49.8214 52.746 49.8669 52.7883 49.9043C52.8307 49.9418 52.88 49.9705 52.9335 49.9889C52.987 50.0072 53.0436 50.0148 53.1001 50.0112C53.1669 50.0134 53.2334 50.0008 53.2949 49.9742C53.3563 49.9477 53.411 49.9078 53.4552 49.8576L53.5416 49.9608C53.4585 50.0477 53.3516 50.1081 53.2342 50.1346C53.1169 50.161 52.9944 50.1523 52.882 50.1096C52.7696 50.0668 52.6723 49.9919 52.6023 49.8941C52.5322 49.7964 52.4925 49.6802 52.488 49.56C52.4841 49.4836 52.4959 49.4072 52.5227 49.3355C52.5495 49.2638 52.5907 49.1983 52.6438 49.1432C52.6969 49.0881 52.7607 49.0445 52.8313 49.015C52.902 48.9856 52.9779 48.9709 53.0544 48.972C53.1309 48.9705 53.2068 48.9849 53.2773 49.0143C53.3479 49.0437 53.4116 49.0874 53.4644 49.1427C53.5172 49.1979 53.5579 49.2636 53.584 49.3354C53.6102 49.4073 53.621 49.4838 53.616 49.56C53.6064 49.572 53.6041 49.5888 53.6041 49.608ZM52.6441 49.4904H53.4649C53.4649 49.3816 53.4216 49.2772 53.3446 49.2002C53.2677 49.1233 53.1633 49.08 53.0544 49.08C52.9456 49.08 52.8412 49.1233 52.7643 49.2002C52.6873 49.2772 52.6441 49.3816 52.6441 49.4904Z" fill="black"/>
</g>
<path d="M28.2839 92.4671H28.0559C28.0559 92.1287 28.3367 84.1991 29.7167 82.8671C31.1351 81.4871 32.8031 82.8479 32.8175 82.8671L32.6735 83.0399C32.6111 82.9895 31.1447 81.7991 29.8727 83.0399C28.5599 84.2903 28.2863 92.3855 28.2839 92.4671Z" fill="#242424"/>
<path d="M28.1687 94.0584L27.9431 94.0368C27.9431 93.9408 28.8359 84.408 25.3823 80.4432L25.5527 80.2944C29.0711 84.3336 28.1783 93.9624 28.1687 94.0584Z" fill="#242424"/>
<path d="M28.2791 93.0407C28.2503 92.5895 27.5855 82.0007 30.2399 79.5527L30.3935 79.7207C27.8183 82.0871 28.4975 92.9207 28.5047 93.0239L28.2791 93.0407Z" fill="#242424"/>
<path d="M27.9432 93.0336C27.9432 92.9616 27.8616 85.8336 25.9728 84.7608C25.8122 84.6549 25.6286 84.5892 25.4373 84.5692C25.246 84.5491 25.0527 84.5753 24.8736 84.6456C23.7672 85.104 23.1792 87.216 23.172 87.2376L22.9536 87.1776C22.9776 87.0864 23.5776 84.9384 24.7872 84.4368C24.9979 84.3522 25.226 84.3196 25.452 84.3417C25.678 84.3638 25.8953 84.4401 26.0856 84.564C28.0848 85.7088 28.1688 92.724 28.1712 93.0312L27.9432 93.0336Z" fill="#242424"/>
<path d="M28.7208 93.0384C28.7064 92.7984 28.416 87.4128 29.9448 85.4136C30.3528 84.8832 30.804 84.6312 31.2936 84.6672C32.3808 84.7416 33.2136 86.2152 33.2592 86.2776L33.0624 86.3904C33.0624 86.376 32.2416 84.9504 31.2768 84.8928C30.8712 84.8616 30.4824 85.0848 30.1248 85.5528C28.6464 87.4728 28.944 92.9712 28.9464 93.0264L28.7208 93.0384Z" fill="#242424"/>
<path d="M28.416 93.7849L28.1904 93.7681C28.1904 93.6385 29.1504 80.7793 27.5664 78.6337L27.7488 78.4993C29.3856 80.7121 28.4568 93.2521 28.416 93.7849Z" fill="#242424"/>
<path d="M24.348 85.716C24.348 85.716 25.3272 86.0784 25.0368 86.9304C24.7464 87.7824 21.6456 89.1864 21.6456 89.1864C21.6456 89.1864 20.3472 87.9984 21.54 86.0664C22.7328 84.1344 24.3216 85.1064 24.348 85.716Z" fill="#242424"/>
<path opacity="0.2" d="M24.348 85.716C24.348 85.716 25.3272 86.0784 25.0368 86.9304C24.7464 87.7824 21.6456 89.1864 21.6456 89.1864C21.6456 89.1864 20.3472 87.9984 21.54 86.0664C22.7328 84.1344 24.3216 85.1064 24.348 85.716Z" fill="black"/>
<path d="M28.6081 84.0937C28.6081 84.0937 27.5641 84.0505 27.5041 84.9481C27.4441 85.8457 29.7601 88.3369 29.7601 88.3369C29.7601 88.3369 31.4161 87.7369 31.0609 85.4929C30.7057 83.2489 28.8673 83.5393 28.6081 84.0937Z" fill="#242424"/>
<path opacity="0.2" d="M28.6081 84.0937C28.6081 84.0937 27.5641 84.0505 27.5041 84.9481C27.4441 85.8457 29.7601 88.3369 29.7601 88.3369C29.7601 88.3369 31.4161 87.7369 31.0609 85.4929C30.7057 83.2489 28.8673 83.5393 28.6081 84.0937Z" fill="black"/>
<path d="M29.4911 79.7881C29.4911 79.7881 28.7951 79.7137 28.8503 79.2913C28.9055 78.8689 31.5551 77.7769 33.1175 79.5313C33.1175 79.5313 32.1167 81.2497 30.6719 81.2737C29.2271 81.2977 29.4911 79.7881 29.4911 79.7881Z" fill="#242424"/>
<path opacity="0.2" d="M29.4911 79.7881C29.4911 79.7881 28.7951 79.7137 28.8503 79.2913C28.9055 78.8689 31.5551 77.7769 33.1175 79.5313C33.1175 79.5313 32.1167 81.2497 30.6719 81.2737C29.2271 81.2977 29.4911 79.7881 29.4911 79.7881Z" fill="black"/>
<path d="M28.1952 78.7584C28.1952 78.7584 28.824 79.0632 29.0016 78.6744C29.1792 78.2856 27.5064 75.96 25.248 76.6296C25.248 76.6296 25.188 78.6168 26.4024 79.4016C27.6168 80.1864 28.1952 78.7584 28.1952 78.7584Z" fill="#242424"/>
<path opacity="0.2" d="M28.1952 78.7584C28.1952 78.7584 28.824 79.0632 29.0016 78.6744C29.1792 78.2856 27.5064 75.96 25.248 76.6296C25.248 76.6296 25.188 78.6168 26.4024 79.4016C27.6168 80.1864 28.1952 78.7584 28.1952 78.7584Z" fill="black"/>
<path d="M31.4879 85.3753C31.4879 85.3753 31.0079 84.9865 31.5263 84.7969C32.0447 84.6073 34.5863 84.6625 34.6127 87.1801C34.6127 87.1801 31.6511 87.6721 31.2863 86.7121C30.9215 85.7521 31.4879 85.3753 31.4879 85.3753Z" fill="#242424"/>
<path opacity="0.2" d="M31.4879 85.3753C31.4879 85.3753 31.0079 84.9865 31.5263 84.7969C32.0447 84.6073 34.5863 84.6625 34.6127 87.1801C34.6127 87.1801 31.6511 87.6721 31.2863 86.7121C30.9215 85.7521 31.4879 85.3753 31.4879 85.3753Z" fill="black"/>
<path d="M25.44 79.7257C25.44 79.7257 25.92 79.3369 25.4016 79.1497C24.8832 78.9625 22.3416 79.0129 22.3152 81.5305C22.3152 81.5305 25.2768 82.0249 25.6416 81.0649C26.0064 80.1049 25.44 79.7257 25.44 79.7257Z" fill="#242424"/>
<path opacity="0.2" d="M25.44 79.7257C25.44 79.7257 25.92 79.3369 25.4016 79.1497C24.8832 78.9625 22.3416 79.0129 22.3152 81.5305C22.3152 81.5305 25.2768 82.0249 25.6416 81.0649C26.0064 80.1049 25.44 79.7257 25.44 79.7257Z" fill="black"/>
<path d="M27.0145 81.7536C27.0145 81.7536 27.0577 81.2736 26.6761 81.468C26.2945 81.6624 24.9721 83.0832 26.3449 84.4392C26.3449 84.4392 28.1953 83.0688 27.8617 82.356C27.5281 81.6432 27.0145 81.7536 27.0145 81.7536Z" fill="#242424"/>
<path opacity="0.2" d="M27.0145 81.7536C27.0145 81.7536 27.0577 81.2736 26.6761 81.468C26.2945 81.6624 24.9721 83.0832 26.3449 84.4392C26.3449 84.4392 28.1953 83.0688 27.8617 82.356C27.5281 81.6432 27.0145 81.7536 27.0145 81.7536Z" fill="black"/>
<path d="M31.9199 82.4257C31.9199 82.4257 31.6319 82.0489 32.0543 82.0033C32.4767 81.9577 34.3583 82.4593 33.9191 84.3409C33.9191 84.3409 31.6247 84.1681 31.5191 83.3809C31.4135 82.5937 31.9199 82.4257 31.9199 82.4257Z" fill="#242424"/>
<path opacity="0.2" d="M31.9199 82.4257C31.9199 82.4257 31.6319 82.0489 32.0543 82.0033C32.4767 81.9577 34.3583 82.4593 33.9191 84.3409C33.9191 84.3409 31.6247 84.1681 31.5191 83.3809C31.4135 82.5937 31.9199 82.4257 31.9199 82.4257Z" fill="black"/>
<path d="M24.5184 100.013H31.9368L32.9232 92.7983H23.532L24.5184 100.013Z" fill="black"/>
<path opacity="0.2" d="M24.5184 100.013H31.9368L32.9232 92.7983H23.532L24.5184 100.013Z" fill="white"/>
<path d="M33.8543 92.2129V92.8993C33.8543 93.1195 33.7668 93.3307 33.6111 93.4865C33.4554 93.6422 33.2442 93.7297 33.0239 93.7297H23.3399C23.1197 93.7297 22.9085 93.6422 22.7527 93.4865C22.597 93.3307 22.5095 93.1195 22.5095 92.8993V92.2129H33.8543Z" fill="black"/>
<path d="M95.6689 23.8343H88.7737C88.211 23.8343 87.6714 24.0578 87.2735 24.4557C86.8756 24.8536 86.6521 25.3932 86.6521 25.9559V31.9559C86.6518 32.2347 86.7064 32.5108 86.8129 32.7685C86.9194 33.0262 87.0756 33.2604 87.2727 33.4576C87.4697 33.6549 87.7037 33.8114 87.9612 33.9182C88.2188 34.0249 88.4949 34.0799 88.7737 34.0799H90.7873L90.3073 35.9735L92.2273 34.0799H95.6809C96.2442 34.0799 96.7845 33.8561 97.1828 33.4578C97.5811 33.0594 97.8049 32.5192 97.8049 31.9559V25.9559C97.8049 25.6761 97.7496 25.399 97.642 25.1406C97.5345 24.8823 97.377 24.6478 97.1784 24.4506C96.9799 24.2534 96.7443 24.0974 96.4852 23.9916C96.2262 23.8859 95.9487 23.8324 95.6689 23.8343Z" fill="#242424"/>
<path opacity="0.7" d="M95.6689 23.8343H88.7737C88.211 23.8343 87.6714 24.0578 87.2735 24.4557C86.8756 24.8536 86.6521 25.3932 86.6521 25.9559V31.9559C86.6518 32.2347 86.7064 32.5108 86.8129 32.7685C86.9194 33.0262 87.0756 33.2604 87.2727 33.4576C87.4697 33.6549 87.7037 33.8114 87.9612 33.9182C88.2188 34.0249 88.4949 34.0799 88.7737 34.0799H90.7873L90.3073 35.9735L92.2273 34.0799H95.6809C96.2442 34.0799 96.7845 33.8561 97.1828 33.4578C97.5811 33.0594 97.8049 32.5192 97.8049 31.9559V25.9559C97.8049 25.6761 97.7496 25.399 97.642 25.1406C97.5345 24.8823 97.377 24.6478 97.1784 24.4506C96.9799 24.2534 96.7443 24.0974 96.4852 23.9916C96.2262 23.8859 95.9487 23.8324 95.6689 23.8343Z" fill="white"/>
<path d="M92.2224 31.6079C93.7003 31.6079 94.8984 30.4098 94.8984 28.9319C94.8984 27.4539 93.7003 26.2559 92.2224 26.2559C90.7445 26.2559 89.5464 27.4539 89.5464 28.9319C89.5464 30.4098 90.7445 31.6079 92.2224 31.6079Z" fill="white"/>
<path d="M92.2225 25.5095C91.5456 25.5095 90.8839 25.7102 90.3211 26.0863C89.7583 26.4624 89.3196 26.9969 89.0606 27.6222C88.8015 28.2476 88.7338 28.9357 88.8658 29.5996C88.9979 30.2635 89.3238 30.8733 89.8025 31.3519C90.2811 31.8306 90.8909 32.1565 91.5548 32.2886C92.2187 32.4206 92.9068 32.3528 93.5321 32.0938C94.1575 31.8348 94.692 31.3961 95.0681 30.8333C95.4441 30.2705 95.6448 29.6088 95.6448 28.9319C95.6452 28.4824 95.5569 28.0372 95.385 27.6219C95.2131 27.2065 94.961 26.8291 94.6432 26.5112C94.3253 26.1934 93.9479 25.9413 93.5325 25.7694C93.1172 25.5975 92.672 25.5092 92.2225 25.5095ZM94.1641 27.9095L92.1025 30.3383C92.0732 30.3734 92.0364 30.4015 91.9949 30.4206C91.9534 30.4397 91.9082 30.4493 91.8625 30.4487C91.8168 30.449 91.7717 30.4393 91.7302 30.4202C91.6887 30.4011 91.6519 30.3732 91.6225 30.3383L90.2809 28.7567C90.2525 28.7254 90.2307 28.6888 90.2169 28.6489C90.203 28.6091 90.1973 28.5668 90.2001 28.5247C90.2029 28.4826 90.2141 28.4415 90.2332 28.4038C90.2522 28.3661 90.2786 28.3327 90.3109 28.3054C90.3431 28.2782 90.3805 28.2577 90.4208 28.2452C90.4611 28.2328 90.5036 28.2285 90.5456 28.2328C90.5876 28.237 90.6283 28.2497 90.6652 28.2701C90.7022 28.2904 90.7348 28.318 90.7609 28.3511L91.8625 29.6495L93.6841 27.5039C93.7388 27.4435 93.8148 27.4068 93.8961 27.4014C93.9774 27.396 94.0577 27.4223 94.1199 27.4749C94.1822 27.5275 94.2216 27.6022 94.2298 27.6833C94.238 27.7644 94.2145 27.8455 94.1641 27.9095Z" fill="#242424"/>
<path d="M94.4737 60.8545C94.4737 60.8545 90.2953 60.3265 83.9641 62.0545C83.9641 62.0545 82.9465 50.7409 83.0665 49.1857C83.1865 47.6305 92.8417 48.0865 92.8417 48.0865C92.8417 48.0865 93.0817 52.6153 93.7105 55.3465C94.3393 58.0777 94.8001 60.3289 94.4737 60.8545Z" fill="#242424"/>
<path opacity="0.2" d="M94.4737 60.8545C94.4737 60.8545 90.2953 60.3265 83.9641 62.0545C83.9641 62.0545 82.9465 50.7409 83.0665 49.1857C83.1865 47.6305 92.8417 48.0865 92.8417 48.0865C92.8417 48.0865 93.0817 52.6153 93.7105 55.3465C94.3393 58.0777 94.8001 60.3289 94.4737 60.8545Z" fill="black"/>
<path d="M80.9111 98.3089L82.6151 98.7913L83.0207 96.1393L83.2391 94.7209L81.5351 94.2385L81.2447 96.1393L80.9111 98.3089Z" fill="#E4897B"/>
<path d="M90.708 98.448L92.4648 98.6808L92.4816 96.1392L92.4936 94.56L90.7344 94.3296L90.7224 96.1392L90.708 98.448Z" fill="#E4897B"/>
<path opacity="0.2" d="M90.7344 94.3296L90.7224 96.1392H92.4816L92.4936 94.56L90.7344 94.3296Z" fill="black"/>
<path opacity="0.2" d="M81.2449 96.1393H83.0209L83.2393 94.7209L81.5353 94.2385L81.2449 96.1393Z" fill="black"/>
<path d="M73.3465 50.1144L71.6545 49.6152L71.9641 51.5472C71.9641 51.5472 73.5001 51.9 73.6441 51.1008L73.3465 50.1144Z" fill="#E4897B"/>
<path d="M69.9648 50.064L70.7952 51.6336L71.964 51.5472L71.6544 49.6152L69.9648 50.064Z" fill="#E4897B"/>
<path d="M75.6816 50.6089L72.9024 49.9873L72.6504 51.3361L75.1728 51.9505L75.6816 50.6089Z" fill="#E4897B"/>
<path d="M84.0888 49.3896L83.9256 49.584C83.5752 49.9944 82.7256 50.9856 81.84 51.84C81.12 52.536 80.4 53.1432 79.92 53.2656C78.5592 53.616 73.6128 52.1592 73.6128 52.1592L74.124 50.1528C74.124 50.1528 78.732 50.7648 79.0896 50.7648C79.3608 50.7648 82.164 46.704 82.8432 46.3704L84.0888 49.3896Z" fill="#242424"/>
<path opacity="0.2" d="M83.9257 49.584C83.5753 49.9944 82.7257 50.9856 81.8401 51.84C82.0177 50.4336 82.5337 49.1424 83.2129 48.3264C83.2762 48.2477 83.3487 48.1768 83.4289 48.1152L83.9257 49.584Z" fill="black"/>
<path d="M80.9329 98.0424L82.8673 97.992C82.9022 97.9909 82.9364 98.0017 82.9643 98.0227C82.9922 98.0436 83.0122 98.0734 83.0209 98.1072L83.4289 99.6648C83.4386 99.7021 83.4399 99.7411 83.4325 99.7789C83.4251 99.8168 83.4093 99.8525 83.3863 99.8834C83.3632 99.9142 83.3335 99.9395 83.2993 99.9574C83.2652 99.9752 83.2274 99.9852 83.1889 99.9864C82.4905 99.9864 81.4801 99.9864 80.6041 100.003C79.5769 100.032 78.9241 99.9816 77.7241 100.003C77.0041 100.022 76.7641 99.2976 77.0713 99.2232C78.4465 98.8824 79.3465 98.9496 80.5177 98.1816C80.6413 98.0992 80.7846 98.0512 80.9329 98.0424Z" fill="black"/>
<path d="M80.7647 98.2921C80.4815 98.3545 79.9775 98.4385 79.7759 98.2729C79.7466 98.2486 79.7234 98.2177 79.7084 98.1826C79.6933 98.1475 79.6869 98.1094 79.6895 98.0714C79.6894 98.0485 79.6954 98.026 79.7068 98.0062C79.7181 97.9864 79.7346 97.97 79.7543 97.9586C79.9679 97.8314 80.6903 98.1746 80.7743 98.2129C80.7817 98.2169 80.7878 98.2228 80.7921 98.23C80.7963 98.2372 80.7985 98.2454 80.7983 98.2538C80.7979 98.263 80.7944 98.2719 80.7883 98.2789C80.7822 98.2858 80.7739 98.2905 80.7647 98.2921ZM79.8047 98.0258H79.7903C79.7823 98.0304 79.7757 98.037 79.7711 98.045C79.7664 98.053 79.764 98.0621 79.7639 98.0714C79.7619 98.0962 79.7659 98.1211 79.7755 98.1441C79.7851 98.167 79.8001 98.1873 79.8191 98.2033C79.9319 98.2969 80.2247 98.3066 80.6135 98.2298C80.3327 98.1122 79.9415 97.9754 79.8095 98.0258H79.8047Z" fill="#242424"/>
<path d="M80.765 98.292H80.7362C80.5178 98.2008 80.081 97.8312 80.105 97.632C80.105 97.584 80.1434 97.524 80.2586 97.5096C80.3009 97.504 80.3438 97.5069 80.385 97.518C80.4262 97.5292 80.4648 97.5483 80.4986 97.5744C80.7386 97.7544 80.7938 98.2272 80.7986 98.2464C80.7992 98.2537 80.7981 98.261 80.7951 98.2677C80.7922 98.2745 80.7876 98.2803 80.7818 98.2848L80.765 98.292ZM80.2274 97.6032C80.1914 97.6152 80.189 97.6344 80.189 97.6416C80.1746 97.7616 80.4722 98.0544 80.6954 98.1792C80.6696 97.9776 80.5805 97.7893 80.441 97.6416C80.4173 97.6217 80.3896 97.6071 80.3598 97.5988C80.33 97.5905 80.2987 97.5887 80.2682 97.5936C80.2542 97.5948 80.2404 97.598 80.2274 97.6032Z" fill="#242424"/>
<path d="M90.7776 98.0424L92.712 97.992C92.7472 97.9908 92.7817 98.0015 92.8101 98.0225C92.8384 98.0434 92.8588 98.0733 92.868 98.1072L93.2736 99.6648C93.2838 99.7022 93.2854 99.7413 93.2782 99.7793C93.271 99.8174 93.2553 99.8532 93.2321 99.8842C93.209 99.9153 93.1791 99.9406 93.1447 99.9583C93.1103 99.976 93.0723 99.9856 93.0336 99.9864C92.3352 99.9864 91.3248 99.9864 90.4464 100.003C89.4216 100.032 88.7664 99.9816 87.5664 100.003C86.8464 100.022 86.6064 99.2976 86.9136 99.2232C88.2888 98.8824 89.1864 98.9496 90.3576 98.1816C90.4826 98.0984 90.6276 98.0504 90.7776 98.0424Z" fill="black"/>
<path d="M90.6122 98.2921C90.329 98.3545 89.8226 98.4385 89.6234 98.2729C89.594 98.2486 89.5708 98.2177 89.5558 98.1826C89.5408 98.1475 89.5343 98.1094 89.537 98.0714C89.5369 98.0485 89.5428 98.026 89.5542 98.0062C89.5656 97.9864 89.582 97.97 89.6018 97.9586C89.813 97.8314 90.5378 98.1746 90.6194 98.2129C90.6273 98.2161 90.634 98.2218 90.6384 98.2292C90.6427 98.2366 90.6445 98.2452 90.6434 98.2538C90.6427 98.2626 90.6394 98.271 90.6338 98.2779C90.6282 98.2847 90.6207 98.2897 90.6122 98.2921ZM89.6522 98.0258H89.6378C89.6298 98.0303 89.6234 98.037 89.6191 98.0451C89.6149 98.0531 89.613 98.0623 89.6138 98.0714C89.6113 98.0962 89.6151 98.1213 89.6248 98.1443C89.6344 98.1673 89.6496 98.1876 89.669 98.2033C89.7818 98.2969 90.0722 98.3066 90.4634 98.2298C90.1778 98.1122 89.7866 97.9754 89.6546 98.0258H89.6522Z" fill="#242424"/>
<path d="M90.6121 98.2919H90.5809C90.3649 98.2007 89.9257 97.8311 89.9521 97.6319C89.9521 97.5839 89.9881 97.524 90.1033 97.5096C90.1456 97.5038 90.1886 97.5065 90.2298 97.5176C90.2711 97.5288 90.3096 97.548 90.3433 97.5743C90.5112 97.7614 90.6161 97.9965 90.6433 98.2463C90.6445 98.2537 90.6436 98.2612 90.6406 98.268C90.6376 98.2749 90.6327 98.2807 90.6265 98.2847L90.6121 98.2919ZM90.0721 97.6031C90.0385 97.6151 90.0361 97.6343 90.0361 97.6415C90.0193 97.7615 90.3193 98.0543 90.5425 98.1791C90.515 97.978 90.4262 97.7903 90.2881 97.6415C90.2643 97.6218 90.2366 97.6073 90.2068 97.599C90.177 97.5907 90.1458 97.5889 90.1153 97.5936L90.0721 97.6031Z" fill="#242424"/>
<path d="M94.332 59.8225C95.2632 63.8569 93.6648 95.5969 93.6648 95.5969H90.5784L89.2584 69.1465L84.3984 95.5969L81.0984 95.3569C83.2584 74.8657 85.1616 62.6329 85.1616 62.6329V61.0873L94.332 59.8225Z" fill="black"/>
<path opacity="0.4" d="M81.0984 95.3569L84.3984 95.5969L88.224 74.7745L89.2584 69.1465L90.5784 95.5969H93.6648C93.6648 95.5969 95.2632 63.8569 94.332 59.8225L85.1568 61.0873V62.6329C85.1568 62.6329 83.256 74.8657 81.0984 95.3569Z" fill="white"/>
<path d="M92.6688 44.8799C92.5742 46.8089 92.6231 48.7422 92.8152 50.664C92.9448 52.008 93.1224 53.2775 93.312 54.4223C93.756 57.1079 94.26 59.1215 94.332 59.8247L85.1568 61.0895C81.8112 51.7295 83.0712 46.2912 83.0712 46.2912C83.7572 46.0079 84.4602 45.7674 85.176 45.5712C85.3272 45.5304 85.4808 45.4919 85.6392 45.4559C86.9278 45.2024 88.23 45.0229 89.5392 44.9184C89.7792 44.8968 90.0408 44.8799 90.2856 44.8679C91.5384 44.8055 92.6688 44.8799 92.6688 44.8799Z" fill="black"/>
<path d="M87.7585 40.668C87.8257 41.952 87.9624 44.3616 89.0304 44.9736C89.0304 44.9736 88.3657 46.2384 86.9281 46.368C85.8409 46.464 85.9129 45.3912 85.9129 45.3912C86.5416 44.9232 86.3929 44.1288 85.9129 43.2312L87.7585 40.668Z" fill="#E4897B"/>
<path opacity="0.2" d="M87.005 41.7144L85.9202 43.2312C86.0344 43.4386 86.1307 43.6554 86.2082 43.8792C86.7122 43.6776 87.2906 42.9192 87.2066 42.3696C87.1803 42.1406 87.1119 41.9185 87.005 41.7144Z" fill="black"/>
<path d="M83.0784 38.0832C82.8696 38.7504 82.9848 40.1184 83.9136 39.6744C84.8424 39.2304 83.4384 36.9384 83.0784 38.0832Z" fill="black"/>
<path d="M87.8785 38.9856C87.9817 40.6968 88.1185 41.6928 87.3721 42.6624C86.2369 44.1192 84.0385 43.5768 83.4241 41.9256C82.8721 40.4376 82.7977 37.8888 84.3841 37.0248C84.7358 36.8335 85.1302 36.7345 85.5305 36.7371C85.9308 36.7397 86.324 36.8439 86.6731 37.0398C87.0222 37.2357 87.3159 37.5169 87.5267 37.8572C87.7375 38.1975 87.8586 38.5858 87.8785 38.9856Z" fill="#E4897B"/>
<path d="M86.6785 38.0544V36.1344C86.6785 36.1344 88.7137 35.9832 88.6225 37.0248C89.7505 37.584 89.2177 39.3384 87.7033 40.1976C86.8729 39.5328 86.9689 37.9344 86.9689 37.9344C86.8801 37.98 86.7793 38.0184 86.6785 38.0544Z" fill="black"/>
<path d="M88.7065 40.32C88.6673 40.5293 88.5866 40.7287 88.4691 40.9063C88.3516 41.084 88.1998 41.2363 88.0225 41.3544C87.5425 41.6688 87.1273 41.2824 87.1105 40.7424C87.0961 40.2624 87.3241 39.504 87.8761 39.408C87.9968 39.3892 88.1204 39.4006 88.2356 39.4412C88.3509 39.4818 88.4543 39.5503 88.5365 39.6407C88.6188 39.7311 88.6774 39.8404 88.7071 39.9589C88.7367 40.0775 88.7365 40.2015 88.7065 40.32Z" fill="#E4897B"/>
<path d="M85.3512 39.7489C85.368 39.8881 85.308 40.0081 85.2168 40.0177C85.1256 40.0273 85.0392 39.9241 85.0224 39.7777C85.0056 39.6313 85.0656 39.5185 85.1544 39.5089C85.2432 39.4993 85.3344 39.6001 85.3512 39.7489Z" fill="black"/>
<path d="M83.7816 39.9239C83.7984 40.0631 83.7384 40.1831 83.6472 40.1927C83.556 40.2023 83.4696 40.0991 83.4528 39.9527C83.436 39.8063 83.496 39.6935 83.5872 39.6839C83.6784 39.6743 83.76 39.7847 83.7816 39.9239Z" fill="black"/>
<path d="M84.2881 39.936C84.1669 40.3652 83.9867 40.7755 83.7529 41.1552C83.8565 41.2084 83.9701 41.2391 84.0863 41.2453C84.2025 41.2516 84.3187 41.2331 84.4273 41.1912L84.2881 39.936Z" fill="#DE5753"/>
<path d="M85.2359 41.6377C85.1767 41.6528 85.1166 41.664 85.0559 41.6713C85.0451 41.6713 85.0347 41.667 85.0271 41.6594C85.0194 41.6517 85.0151 41.6413 85.0151 41.6305C85.0151 41.6197 85.0194 41.6093 85.0271 41.6017C85.0347 41.594 85.0451 41.5897 85.0559 41.5897C85.2283 41.5741 85.3945 41.5181 85.5413 41.4264C85.688 41.3347 85.8112 41.2098 85.9007 41.0617C85.9028 41.0569 85.9058 41.0525 85.9097 41.0489C85.9135 41.0452 85.918 41.0424 85.923 41.0406C85.9279 41.0388 85.9332 41.0381 85.9384 41.0384C85.9437 41.0387 85.9488 41.0401 85.9535 41.0425C85.9585 41.0448 85.9629 41.0481 85.9665 41.0522C85.9702 41.0562 85.973 41.0609 85.9748 41.0661C85.9766 41.0712 85.9773 41.0767 85.977 41.0821C85.9766 41.0875 85.9752 41.0929 85.9727 41.0977C85.8943 41.234 85.7882 41.3525 85.6613 41.4455C85.5344 41.5384 85.3896 41.6039 85.2359 41.6377Z" fill="black"/>
<path d="M85.7736 39.1896C85.7591 39.1929 85.7439 39.1925 85.7296 39.1883C85.7153 39.1841 85.7024 39.1763 85.692 39.1656C85.6225 39.0894 85.5362 39.0305 85.44 38.9934C85.3438 38.9563 85.2402 38.9421 85.1376 38.952C85.127 38.9544 85.116 38.9546 85.1053 38.9526C85.0947 38.9507 85.0845 38.9465 85.0755 38.9404C85.0665 38.9343 85.0588 38.9265 85.053 38.9173C85.0472 38.9082 85.0433 38.8979 85.0416 38.8872C85.0395 38.8766 85.0395 38.8657 85.0417 38.8552C85.0438 38.8446 85.048 38.8346 85.054 38.8257C85.06 38.8167 85.0678 38.8091 85.0767 38.8032C85.0857 38.7973 85.0958 38.7932 85.1064 38.7912C85.236 38.7757 85.3673 38.7914 85.4896 38.8369C85.6119 38.8824 85.7216 38.9564 85.8096 39.0528C85.8174 39.0602 85.8237 39.0691 85.828 39.079C85.8322 39.0889 85.8344 39.0996 85.8344 39.1104C85.8344 39.1211 85.8322 39.1318 85.828 39.1417C85.8237 39.1516 85.8174 39.1606 85.8096 39.168C85.7993 39.1777 85.787 39.1851 85.7736 39.1896Z" fill="black"/>
<path d="M83.04 39.4608C83.0245 39.4667 83.0074 39.4667 82.992 39.4608C82.9717 39.4537 82.955 39.4389 82.9455 39.4195C82.9361 39.4002 82.9347 39.3779 82.9416 39.3576C82.9812 39.234 83.0501 39.1219 83.1425 39.0308C83.2349 38.9397 83.3479 38.8723 83.472 38.8344C83.493 38.829 83.5153 38.8321 83.5339 38.8431C83.5526 38.8542 83.5662 38.8722 83.5716 38.8932C83.577 38.9142 83.5738 38.9365 83.5628 38.9552C83.5518 38.9738 83.5338 38.9874 83.5128 38.9928C83.4146 39.023 83.3254 39.0769 83.253 39.1497C83.1806 39.2226 83.1272 39.3121 83.0976 39.4104C83.093 39.423 83.0853 39.4342 83.0753 39.443C83.0652 39.4518 83.053 39.4579 83.04 39.4608Z" fill="black"/>
<path d="M87.5809 38.7648C87.5809 38.7648 86.3809 38.3256 85.8337 37.6296C85.8337 37.6296 84.7441 37.9152 84.5209 38.3496C84.419 38.2624 84.3531 38.1406 84.3358 38.0076C84.3185 37.8747 84.3511 37.74 84.4273 37.6296C84.4273 37.6296 83.6113 37.8024 83.4505 38.3496C83.3178 38.2865 83.209 38.1825 83.1399 38.0529C83.0707 37.9233 83.045 37.775 83.0665 37.6296C83.0665 37.6296 82.7041 37.7664 82.5865 38.3496C82.5865 38.3496 81.6865 36.4728 84.6601 35.9352C84.4351 35.8589 84.1993 35.8192 83.9617 35.8176C83.9617 35.8176 86.0377 34.98 87.6817 35.7456C89.3257 36.5112 89.0401 37.9944 87.5809 38.7648Z" fill="black"/>
<path d="M95.0399 61.4401L92.1599 61.8241C92.1599 61.8241 90.9719 53.5225 90.4487 50.8417V45.1201L91.9535 44.7241L93.1199 45.1201C93.4398 46.2713 93.6859 47.4416 93.8567 48.6241C93.9983 49.5217 94.1255 50.4817 94.2383 51.4537C94.3943 52.7785 94.5239 54.1273 94.6343 55.3897C94.8071 57.4273 94.9223 59.2297 94.9847 60.3313C95.0207 61.0225 95.0399 61.4401 95.0399 61.4401Z" fill="#242424"/>
<path d="M90.4512 50.8368C90.4512 50.8368 90.6912 46.7976 91.956 44.7144C91.956 44.7144 91.9248 44.1192 91.6728 44.0232C91.4208 43.9272 90.4512 44.5032 90.4512 44.5032C90.4512 44.5032 89.8488 44.0904 89.7168 44.2824C89.5848 44.4744 89.2632 45.7512 90.4512 50.8368Z" fill="#242424"/>
<path opacity="0.7" d="M90.4512 50.8368C90.4512 50.8368 90.6912 46.7976 91.956 44.7144C91.956 44.7144 91.9248 44.1192 91.6728 44.0232C91.4208 43.9272 90.4512 44.5032 90.4512 44.5032C90.4512 44.5032 89.8488 44.0904 89.7168 44.2824C89.5848 44.4744 89.2632 45.7512 90.4512 50.8368Z" fill="white"/>
<path d="M83.9039 62.5465L84.2327 62.7865C84.2327 62.7865 83.7527 60.1105 83.9495 53.3425C83.9495 53.0161 83.9711 52.7017 83.9831 52.4017C84.2231 46.6753 85.1159 45.6337 85.1831 45.5713L84.3527 45.8545L82.8479 46.3729C82.3943 51.2569 83.9039 62.5465 83.9039 62.5465Z" fill="#242424"/>
<path d="M84.0337 51.4154C84.0337 51.4154 83.2033 47.489 83.4505 46.1354C83.6977 44.7818 84.5833 45.3842 84.5833 45.3842C84.5833 45.3842 85.3969 44.7266 85.6393 45.4514C85.6393 45.4514 84.5209 46.2386 84.0337 51.4154Z" fill="#242424"/>
<path opacity="0.7" d="M84.0337 51.4154C84.0337 51.4154 83.2033 47.489 83.4505 46.1354C83.6977 44.7818 84.5833 45.3842 84.5833 45.3842C84.5833 45.3842 85.3969 44.7266 85.6393 45.4514C85.6393 45.4514 84.5209 46.2386 84.0337 51.4154Z" fill="white"/>
<path opacity="0.2" d="M94.2336 51.4441C93.0048 50.7553 92.8416 48.9577 92.8416 48.9577C92.916 48.9289 93.372 48.7729 93.852 48.6145C93.9936 49.5121 94.1208 50.4721 94.2336 51.4441Z" fill="black"/>
<path opacity="0.2" d="M88.2239 74.7744L89.2583 69.1464L89.0591 66.168C89.0591 66.168 87.6407 71.3328 88.2239 74.7744Z" fill="black"/>
<path opacity="0.2" d="M94.98 60.3217C94.2072 60.2689 93.54 60.2185 93.54 60.2185L93.3936 57.0769C93.6344 56.9262 93.9236 56.873 94.2024 56.9281C94.3923 56.4262 94.536 55.9081 94.6319 55.3801C94.7999 57.4177 94.9176 59.2225 94.98 60.3217Z" fill="black"/>
<path d="M95.2441 55.3777L93.7393 57.7945L94.9297 58.4785L96.3433 56.3017L95.2441 55.3777Z" fill="#E4897B"/>
<path d="M93.0552 45.0815C94.068 45.1919 98.3736 51.1007 98.5632 52.8815C98.7528 54.6623 96.0336 57.7367 96.0336 57.7367L94.2192 56.6687C94.2192 56.6687 96.0624 53.8343 96.1584 53.0687C96.2544 52.3031 92.7864 49.2095 92.7864 49.2095C92.5241 48.4969 92.3798 47.7462 92.3592 46.9871C92.3112 45.6863 93.0552 45.0815 93.0552 45.0815Z" fill="#242424"/>
<path d="M93.3912 57.0793C93.3912 57.0793 94.9392 57.4105 95.5632 58.3849C95.5632 58.3849 94.9152 60.4129 94.452 60.6337C93.9888 60.8545 92.8416 60.8545 92.8416 60.8545C92.8416 60.8545 92.7672 58.5985 93.3912 57.0793Z" fill="#242424"/>
</svg>
