<svg width="120" height="40" viewBox="0 0 120 40" fill="none" xmlns="http://www.w3.org/2000/svg">
<g clip-path="url(#clip0_522_1717)">
<g filter="url(#filter0_d_522_1717)">
<path d="M22.3173 20.9867L22.0555 30L15.0344 28.2421L14.8099 19.9769L22.3173 20.9867ZM26.5808 27.756L22.2051 30L22.5043 20.9493L27.2915 20.0143L26.5808 27.756ZM27.2915 19.9021L22.3922 20.7997L14.8 19.7899L22.0555 18.855L27.2915 19.9021Z" fill="white"/>
</g>
<g filter="url(#filter1_d_522_1717)">
<path d="M34.0729 20.9867L33.8111 30L26.79 28.2421L26.5654 19.9769L34.0729 20.9867ZM38.3364 27.756L33.9607 30L34.2599 20.9493L39.0471 20.0143L38.3364 27.756ZM39.0471 19.9021L34.1479 20.7997L26.5557 19.7899L33.8111 18.855L39.0471 19.9021Z" fill="#5283FF"/>
</g>
<g filter="url(#filter2_d_522_1717)">
<path d="M27.8134 12.1317L27.5515 21.145L20.5305 19.3872L20.3059 11.1219L27.8134 12.1317ZM32.0769 18.9011L27.7012 21.145L28.0004 12.0943L32.7876 11.1594L32.0769 18.9011ZM32.7876 11.0472L27.8883 11.9448L20.2961 10.935L27.5515 10L32.7876 11.0472Z" fill="#242424"/>
</g>
<path d="M85.2936 21.014L86.3804 17.7033H89.0472L85.8268 25.2002L83.462 21.6983L81.0972 25.2002L77.8772 17.7033H80.544L81.6308 21.014L83.462 17.3511L85.2936 21.014ZM89.7552 17.7033H92.0192V24.7473H89.7552V17.7033ZM94.5172 22.0706C94.6512 22.3054 94.8056 22.51 94.98 22.6844C95.1544 22.8521 95.3424 22.9796 95.5436 23.0668C95.7516 23.154 95.9592 23.1976 96.1672 23.1976C96.3416 23.1976 96.4892 23.1641 96.61 23.097C96.7308 23.0232 96.7912 22.9092 96.7912 22.7549C96.7912 22.661 96.7576 22.5804 96.6908 22.5134C96.6304 22.4463 96.506 22.3691 96.3184 22.2819C96.1304 22.1947 95.8452 22.0773 95.4628 21.9297C95.2952 21.8626 95.1008 21.772 94.8792 21.658C94.6648 21.544 94.4568 21.3964 94.2556 21.2152C94.0608 21.0341 93.8964 20.8127 93.7624 20.5511C93.6348 20.2895 93.5712 19.9809 93.5712 19.6253C93.5712 19.1624 93.6952 18.7733 93.9436 18.458C94.1916 18.1427 94.5204 17.9046 94.9296 17.7436C95.3388 17.5826 95.7884 17.502 96.278 17.502C96.808 17.502 97.2608 17.5826 97.6364 17.7436C98.0188 17.9046 98.3308 18.1058 98.5724 18.3473C98.8208 18.5888 99.0084 18.8304 99.136 19.0718L97.4956 19.9775C97.3884 19.8098 97.2676 19.679 97.1336 19.585C97.006 19.4844 96.8752 19.4106 96.7408 19.3637C96.6068 19.3167 96.476 19.2932 96.3484 19.2932C96.194 19.2932 96.0668 19.3201 95.966 19.3737C95.872 19.4274 95.8252 19.5113 95.8252 19.6253C95.8252 19.7662 95.8924 19.8836 96.0264 19.9775C96.1672 20.0647 96.352 20.1486 96.58 20.2291C96.808 20.3029 97.0596 20.3901 97.3348 20.4907C97.6164 20.5914 97.868 20.7121 98.0892 20.853C98.3108 20.9872 98.4984 21.1448 98.6528 21.3259C98.814 21.5071 98.9348 21.7117 99.0152 21.9398C99.0956 22.1612 99.136 22.4094 99.136 22.6844C99.136 23.0735 99.0556 23.419 98.8944 23.7209C98.7332 24.0161 98.5152 24.2609 98.2404 24.4555C97.972 24.65 97.6668 24.7976 97.3244 24.8982C96.9824 24.9989 96.6304 25.0492 96.268 25.0492C95.7648 25.0492 95.2952 24.9654 94.8592 24.7976C94.43 24.6366 94.0576 24.4119 93.7424 24.1234C93.4268 23.835 93.1888 23.5129 93.0276 23.1574L94.5172 22.0706ZM101.721 24.7473V22.9863H105.273V24.7473H101.721ZM101.721 19.4643V17.7033H105.273V19.4643H101.721ZM101.721 21.98V20.2693H105.072V21.98H101.721ZM100.191 17.7033H102.305V24.7473H100.191V17.7033Z" fill="#242424"/>
<path d="M59.9272 18.6848L61.7264 18.355C61.7488 18.3784 61.7712 18.4022 61.7932 18.4262L59.9964 18.7773L59.8116 24.3698L62.0336 23.2301C61.346 24.1509 60.2472 24.7471 59.0092 24.7471C57.8912 24.7471 56.8864 24.2605 56.1956 23.4876L59.7192 24.3698L59.8808 18.8005L56.3244 18.322C56.3588 18.287 56.3936 18.2529 56.4296 18.2194L59.9272 18.6848ZM62.7476 20.4556C62.7708 20.625 62.7828 20.7977 62.7828 20.9735C62.7828 21.3903 62.7148 21.7914 62.5904 22.1666L62.7476 20.4556ZM55.342 21.865C55.2728 21.5793 55.2356 21.2807 55.2356 20.9735C55.2356 20.7376 55.2576 20.5067 55.2992 20.2826L55.342 21.865ZM59.0092 17.2C59.7108 17.2 60.3676 17.3917 60.9304 17.7252L59.7192 17.4831L56.8956 17.8468C57.4988 17.4384 58.226 17.2 59.0092 17.2Z" fill="#5283FF"/>
<path d="M43.8891 22.0705C44.0235 22.3053 44.1775 22.5099 44.3519 22.6843C44.5267 22.852 44.7143 22.9795 44.9155 23.0667C45.1235 23.1539 45.3315 23.1975 45.5395 23.1975C45.7139 23.1975 45.8615 23.164 45.9823 23.0969C46.1031 23.0231 46.1635 22.9091 46.1635 22.7548C46.1635 22.6608 46.1299 22.5804 46.0627 22.5133C46.0023 22.4462 45.8783 22.369 45.6903 22.2818C45.5027 22.1946 45.2175 22.0772 44.8351 21.9296C44.6675 21.8625 44.4727 21.772 44.2515 21.6579C44.0367 21.5439 43.8287 21.3963 43.6275 21.2152C43.4331 21.034 43.2687 20.8126 43.1343 20.551C43.0071 20.2894 42.9431 19.9808 42.9431 19.6252C42.9431 19.1623 43.0675 18.7732 43.3155 18.4579C43.5639 18.1426 43.8927 17.9045 44.3019 17.7435C44.7111 17.5824 45.1603 17.502 45.6503 17.502C46.1803 17.502 46.6331 17.5824 47.0087 17.7435C47.3911 17.9045 47.7031 18.1057 47.9447 18.3472C48.1927 18.5888 48.3807 18.8302 48.5079 19.0718L46.8679 19.9774C46.7603 19.8097 46.6399 19.6789 46.5055 19.585C46.3779 19.4843 46.2471 19.4106 46.1131 19.3636C45.9791 19.3166 45.8483 19.2932 45.7207 19.2932C45.5663 19.2932 45.4387 19.32 45.3383 19.3736C45.2443 19.4273 45.1975 19.5112 45.1975 19.6252C45.1975 19.7661 45.2643 19.8835 45.3987 19.9774C45.5395 20.0646 45.7239 20.1485 45.9519 20.229C46.1803 20.3028 46.4319 20.39 46.7067 20.4906C46.9887 20.5912 47.2403 20.712 47.4615 20.8529C47.6831 20.9871 47.8707 21.1447 48.0251 21.3258C48.1859 21.507 48.3067 21.7116 48.3875 21.9397C48.4679 22.1611 48.5079 22.4093 48.5079 22.6843C48.5079 23.0734 48.4275 23.4189 48.2667 23.7208C48.1055 24.016 47.8875 24.2608 47.6123 24.4554C47.3443 24.65 47.0387 24.7975 46.6967 24.8982C46.3547 24.9988 46.0023 25.0491 45.6403 25.0491C45.1371 25.0491 44.6675 24.9652 44.2315 24.7975C43.8019 24.6365 43.4295 24.4118 43.1143 24.1233C42.7991 23.8348 42.5611 23.5128 42.3999 23.1573L43.8891 22.0705Z" fill="#5283FF"/>
<path d="M49.0864 19.6654V17.7031H55.3252V19.6654H53.3128V24.7471H51.0988V19.6654H49.0864Z" fill="#5283FF"/>
<path d="M65.5199 21.2252C65.5199 21.5875 65.6003 21.8927 65.7615 22.1409C65.9291 22.3824 66.1471 22.5636 66.4155 22.6843C66.6907 22.8051 66.9923 22.8655 67.3211 22.8655C67.6567 22.8655 67.9451 22.8219 68.1867 22.7346C68.4279 22.6474 68.6395 22.5401 68.8207 22.4126C69.0083 22.2785 69.1759 22.1409 69.3235 22V24.2743C69.0487 24.4621 68.7467 24.6198 68.4179 24.7472C68.0959 24.8814 67.6767 24.9485 67.1603 24.9485C66.5495 24.9485 65.9927 24.8613 65.4895 24.6868C64.9867 24.5124 64.5571 24.2608 64.2015 23.9321C63.8459 23.6034 63.5711 23.211 63.3763 22.7548C63.1819 22.2986 63.0847 21.7887 63.0847 21.2252C63.0847 20.6617 63.1819 20.1518 63.3763 19.6956C63.5711 19.2395 63.8459 18.847 64.2015 18.5183C64.5571 18.1896 64.9867 17.938 65.4895 17.7636C65.9927 17.5892 66.5495 17.502 67.1603 17.502C67.6767 17.502 68.0959 17.5657 68.4179 17.6932C68.7467 17.8206 69.0487 17.9816 69.3235 18.1762V20.4504C69.1759 20.3095 69.0083 20.172 68.8207 20.0378C68.6395 19.9036 68.4279 19.7963 68.1867 19.7158C67.9451 19.6286 67.6567 19.585 67.3211 19.585C66.9923 19.585 66.6907 19.6454 66.4155 19.7661C66.1471 19.8868 65.9291 20.0714 65.7615 20.3196C65.6003 20.5611 65.5199 20.863 65.5199 21.2252Z" fill="#5283FF"/>
<path d="M69.6367 17.7031H71.9511V24.7471H69.6367V17.7031ZM74.1147 17.7031H76.6907L73.9435 21.0038L76.8419 24.7471H74.1651L71.3171 21.0742L74.1147 17.7031Z" fill="#5283FF"/>
</g>
<defs>
<filter id="filter0_d_522_1717" x="0.800049" y="4.85498" width="42.4915" height="41.145" filterUnits="userSpaceOnUse" color-interpolation-filters="sRGB">
<feFlood flood-opacity="0" result="BackgroundImageFix"/>
<feColorMatrix in="SourceAlpha" type="matrix" values="0 0 0 0 0 0 0 0 0 0 0 0 0 0 0 0 0 0 127 0" result="hardAlpha"/>
<feOffset dx="1" dy="1"/>
<feGaussianBlur stdDeviation="7.5"/>
<feComposite in2="hardAlpha" operator="out"/>
<feColorMatrix type="matrix" values="0 0 0 0 0.792969 0 0 0 0 0.792969 0 0 0 0 0.792969 0 0 0 1 0"/>
<feBlend mode="normal" in2="BackgroundImageFix" result="effect1_dropShadow_522_1717"/>
<feBlend mode="normal" in="SourceGraphic" in2="effect1_dropShadow_522_1717" result="shape"/>
</filter>
<filter id="filter1_d_522_1717" x="12.5557" y="4.85498" width="42.4915" height="41.145" filterUnits="userSpaceOnUse" color-interpolation-filters="sRGB">
<feFlood flood-opacity="0" result="BackgroundImageFix"/>
<feColorMatrix in="SourceAlpha" type="matrix" values="0 0 0 0 0 0 0 0 0 0 0 0 0 0 0 0 0 0 127 0" result="hardAlpha"/>
<feOffset dx="1" dy="1"/>
<feGaussianBlur stdDeviation="7.5"/>
<feComposite in2="hardAlpha" operator="out"/>
<feColorMatrix type="matrix" values="0 0 0 0 0.792157 0 0 0 0 0.792157 0 0 0 0 0.792157 0 0 0 0.15 0"/>
<feBlend mode="normal" in2="BackgroundImageFix" result="effect1_dropShadow_522_1717"/>
<feBlend mode="normal" in="SourceGraphic" in2="effect1_dropShadow_522_1717" result="shape"/>
</filter>
<filter id="filter2_d_522_1717" x="6.29614" y="-4" width="42.4915" height="41.145" filterUnits="userSpaceOnUse" color-interpolation-filters="sRGB">
<feFlood flood-opacity="0" result="BackgroundImageFix"/>
<feColorMatrix in="SourceAlpha" type="matrix" values="0 0 0 0 0 0 0 0 0 0 0 0 0 0 0 0 0 0 127 0" result="hardAlpha"/>
<feOffset dx="1" dy="1"/>
<feGaussianBlur stdDeviation="7.5"/>
<feComposite in2="hardAlpha" operator="out"/>
<feColorMatrix type="matrix" values="0 0 0 0 0.792157 0 0 0 0 0.792157 0 0 0 0 0.792157 0 0 0 0.15 0"/>
<feBlend mode="normal" in2="BackgroundImageFix" result="effect1_dropShadow_522_1717"/>
<feBlend mode="normal" in="SourceGraphic" in2="effect1_dropShadow_522_1717" result="shape"/>
</filter>
<clipPath id="clip0_522_1717">
<rect width="120" height="40" fill="white"/>
</clipPath>
</defs>
</svg>
