<svg width="386" height="130" viewBox="0 0 386 130" fill="none" xmlns="http://www.w3.org/2000/svg">
<g filter="url(#filter0_d_522_2539)">
<path d="M68.5311 68.2069L67.6803 97.5001L44.8619 91.7871L44.1321 64.9252L68.5311 68.2069ZM82.3876 90.2072L68.1665 97.5001L69.139 68.0853L84.6973 65.0467L82.3876 90.2072ZM84.6973 64.6821L68.7747 67.5991L44.1001 64.3174L67.6803 61.2788L84.6973 64.6821Z" fill="white"/>
</g>
<g filter="url(#filter1_d_522_2539)">
<path d="M106.737 68.2069L105.886 97.5001L83.0678 91.7871L82.3379 64.9252L106.737 68.2069ZM120.594 90.2072L106.373 97.5001L107.345 68.0853L122.903 65.0467L120.594 90.2072ZM122.903 64.6821L106.981 67.5991L82.3062 64.3174L105.886 61.2788L122.903 64.6821Z" fill="#5283FF"/>
</g>
<g filter="url(#filter2_d_522_2539)">
<path d="M86.3937 39.4281L85.5427 68.7214L62.7243 63.0083L61.9944 36.1462L86.3937 39.4281ZM100.25 61.4285L86.029 68.7214L87.0016 39.3065L102.56 36.2679L100.25 61.4285ZM102.56 35.9035L86.6373 38.8205L61.9626 35.5386L85.5427 32.5L102.56 35.9035Z" fill="#242424"/>
</g>
<path d="M273.204 68.2951L276.736 57.5354H285.403L274.937 81.9001L267.251 70.519L259.566 81.9001L249.101 57.5354H257.768L261.3 68.2951L267.251 56.3906L273.204 68.2951ZM287.704 57.5354H295.062V80.4284H287.704V57.5354ZM303.181 71.7291C303.616 72.4922 304.118 73.1571 304.685 73.724C305.252 74.269 305.863 74.6833 306.517 74.9667C307.193 75.2502 307.867 75.3919 308.543 75.3919C309.11 75.3919 309.59 75.2829 309.982 75.0649C310.375 74.825 310.571 74.4544 310.571 73.953C310.571 73.6477 310.462 73.386 310.245 73.168C310.049 72.95 309.644 72.6993 309.035 72.4159C308.424 72.1323 307.497 71.7508 306.254 71.2712C305.709 71.0532 305.078 70.7587 304.357 70.3881C303.661 70.0175 302.985 69.5378 302.331 68.9491C301.698 68.3605 301.163 67.641 300.728 66.7906C300.313 65.9404 300.106 64.9375 300.106 63.7819C300.106 62.2774 300.509 61.0129 301.317 59.9881C302.123 58.9635 303.191 58.1894 304.521 57.6662C305.851 57.1429 307.312 56.8812 308.903 56.8812C310.626 56.8812 312.098 57.1429 313.318 57.6662C314.561 58.1894 315.575 58.8435 316.36 59.6284C317.168 60.4133 317.777 61.1983 318.192 61.9831L312.861 64.9266C312.512 64.3815 312.12 63.9562 311.684 63.651C311.269 63.324 310.844 63.0842 310.408 62.9316C309.972 62.779 309.547 62.7026 309.132 62.7026C308.63 62.7026 308.217 62.7899 307.889 62.9642C307.584 63.1387 307.432 63.4113 307.432 63.7819C307.432 64.2398 307.65 64.6213 308.086 64.9266C308.543 65.21 309.144 65.4824 309.885 65.7441C310.626 65.984 311.444 66.2674 312.338 66.5945C313.253 66.9215 314.071 67.3139 314.79 67.7717C315.51 68.2079 316.12 68.7202 316.622 69.3089C317.145 69.8976 317.538 70.5626 317.799 71.3038C318.061 72.0234 318.192 72.83 318.192 73.724C318.192 74.9886 317.931 76.1114 317.407 77.0926C316.883 78.0519 316.174 78.8476 315.281 79.4799C314.409 80.1122 313.417 80.5919 312.304 80.9189C311.193 81.246 310.049 81.4095 308.871 81.4095C307.236 81.4095 305.709 81.137 304.292 80.5919C302.897 80.0687 301.687 79.3382 300.663 78.4007C299.637 77.4632 298.864 76.4166 298.34 75.261L303.181 71.7291ZM326.593 80.4284V74.7052H338.138V80.4284H326.593ZM326.593 63.2587V57.5354H338.138V63.2587H326.593ZM326.593 71.4347V65.8749H337.484V71.4347H326.593ZM321.621 57.5354H328.491V80.4284H321.621V57.5354Z" fill="#242424"/>
<path d="M190.763 60.7256L196.611 59.6537C196.684 59.73 196.756 59.8072 196.828 59.8853L190.988 61.0263L190.388 79.2018L197.609 75.4979C195.374 78.4904 191.803 80.4282 187.78 80.4282C184.146 80.4282 180.881 78.8466 178.636 76.3347L190.087 79.2018L190.613 61.1017L179.054 59.5464C179.166 59.4329 179.279 59.322 179.396 59.2131L190.763 60.7256ZM199.93 66.4807C200.005 67.0312 200.044 67.5926 200.044 68.164C200.044 69.5186 199.823 70.8222 199.419 72.0414L199.93 66.4807ZM175.861 71.0612C175.637 70.1327 175.516 69.1624 175.516 68.164C175.516 67.3974 175.587 66.6469 175.722 65.9184L175.861 71.0612ZM187.78 55.8999C190.06 55.8999 192.195 56.5231 194.024 57.6069L190.087 56.8202L180.911 58.002C182.871 56.6748 185.234 55.8999 187.78 55.8999Z" fill="#5283FF"/>
<path d="M138.64 71.729C139.077 72.4921 139.577 73.1572 140.144 73.724C140.712 74.2691 141.322 74.6834 141.976 74.9668C142.652 75.2502 143.328 75.3919 144.004 75.3919C144.571 75.3919 145.05 75.283 145.443 75.065C145.835 74.8251 146.032 74.4545 146.032 73.9529C146.032 73.6477 145.923 73.3861 145.704 73.1681C145.508 72.95 145.105 72.6994 144.494 72.4158C143.884 72.1324 142.957 71.7509 141.714 71.2712C141.17 71.0532 140.537 70.7588 139.818 70.3882C139.12 70.0176 138.444 69.5379 137.79 68.9492C137.158 68.3606 136.624 67.6411 136.187 66.7907C135.773 65.9404 135.565 64.9374 135.565 63.7819C135.565 62.2775 135.97 61.013 136.776 59.9882C137.583 58.9636 138.652 58.1895 139.982 57.6663C141.311 57.1429 142.771 56.8813 144.364 56.8813C146.086 56.8813 147.558 57.1429 148.779 57.6663C150.021 58.1895 151.035 58.8436 151.821 59.6285C152.627 60.4134 153.238 61.1983 153.651 61.9832L148.321 64.9267C147.971 64.3816 147.58 63.9563 147.143 63.6511C146.729 63.324 146.303 63.0843 145.868 62.9317C145.432 62.7791 145.007 62.7027 144.593 62.7027C144.091 62.7027 143.676 62.7898 143.35 62.9643C143.044 63.1388 142.892 63.4112 142.892 63.7819C142.892 64.2397 143.109 64.6214 143.546 64.9267C144.004 65.2101 144.603 65.4825 145.344 65.7442C146.086 65.9841 146.904 66.2675 147.797 66.5946C148.714 66.9215 149.531 67.314 150.25 67.7718C150.97 68.208 151.58 68.7203 152.082 69.309C152.605 69.8976 152.997 70.5627 153.26 71.3039C153.521 72.0235 153.651 72.8301 153.651 73.724C153.651 74.9887 153.39 76.1115 152.867 77.0926C152.343 78.052 151.635 78.8477 150.74 79.48C149.869 80.1123 148.876 80.5919 147.765 80.919C146.653 81.2461 145.508 81.4096 144.331 81.4096C142.696 81.4096 141.17 81.137 139.753 80.5919C138.357 80.0687 137.146 79.3383 136.122 78.4008C135.097 77.4632 134.324 76.4167 133.8 75.2611L138.64 71.729Z" fill="#5283FF"/>
<path d="M155.531 63.9126V57.5352H175.807V63.9126H169.267V80.4282H162.071V63.9126H155.531Z" fill="#5283FF"/>
<path d="M208.94 68.9819C208.94 70.1593 209.201 71.1513 209.725 71.958C210.27 72.7429 210.978 73.3315 211.851 73.724C212.745 74.1165 213.725 74.3128 214.794 74.3128C215.885 74.3128 216.822 74.1711 217.607 73.8876C218.391 73.6042 219.079 73.2552 219.668 72.8411C220.277 72.405 220.822 71.958 221.302 71.5001V78.8914C220.409 79.5019 219.427 80.0142 218.359 80.4285C217.312 80.8645 215.95 81.0825 214.271 81.0825C212.286 81.0825 210.477 80.7991 208.841 80.2322C207.207 79.6654 205.811 78.8477 204.655 77.7794C203.5 76.711 202.606 75.4356 201.973 73.9529C201.342 72.4704 201.026 70.8133 201.026 68.9819C201.026 67.1504 201.342 65.4935 201.973 64.0108C202.606 62.5283 203.5 61.2529 204.655 60.1845C205.811 59.1162 207.207 58.2985 208.841 57.7317C210.477 57.1647 212.286 56.8813 214.271 56.8813C215.95 56.8813 217.312 57.0884 218.359 57.5027C219.427 57.9169 220.409 58.4402 221.302 59.0725V66.4636C220.822 66.0058 220.277 65.5588 219.668 65.1228C219.079 64.6868 218.391 64.3379 217.607 64.0763C216.822 63.7928 215.885 63.6511 214.794 63.6511C213.725 63.6511 212.745 63.8474 211.851 64.2397C210.978 64.6322 210.27 65.2319 209.725 66.0385C209.201 66.8235 208.94 67.8046 208.94 68.9819Z" fill="#5283FF"/>
<path d="M222.32 57.5352H229.841V80.4282H222.32V57.5352ZM236.873 57.5352H245.245L236.317 68.2622L245.736 80.4282H237.037L227.781 68.4912L236.873 57.5352Z" fill="#5283FF"/>
<defs>
<filter id="filter0_d_522_2539" x="30.1001" y="47.2788" width="70.5972" height="66.2212" filterUnits="userSpaceOnUse" color-interpolation-filters="sRGB">
<feFlood flood-opacity="0" result="BackgroundImageFix"/>
<feColorMatrix in="SourceAlpha" type="matrix" values="0 0 0 0 0 0 0 0 0 0 0 0 0 0 0 0 0 0 127 0" result="hardAlpha"/>
<feOffset dx="1" dy="1"/>
<feGaussianBlur stdDeviation="7.5"/>
<feComposite in2="hardAlpha" operator="out"/>
<feColorMatrix type="matrix" values="0 0 0 0 0.792969 0 0 0 0 0.792969 0 0 0 0 0.792969 0 0 0 1 0"/>
<feBlend mode="normal" in2="BackgroundImageFix" result="effect1_dropShadow_522_2539"/>
<feBlend mode="normal" in="SourceGraphic" in2="effect1_dropShadow_522_2539" result="shape"/>
</filter>
<filter id="filter1_d_522_2539" x="68.3062" y="47.2788" width="70.5972" height="66.2212" filterUnits="userSpaceOnUse" color-interpolation-filters="sRGB">
<feFlood flood-opacity="0" result="BackgroundImageFix"/>
<feColorMatrix in="SourceAlpha" type="matrix" values="0 0 0 0 0 0 0 0 0 0 0 0 0 0 0 0 0 0 127 0" result="hardAlpha"/>
<feOffset dx="1" dy="1"/>
<feGaussianBlur stdDeviation="7.5"/>
<feComposite in2="hardAlpha" operator="out"/>
<feColorMatrix type="matrix" values="0 0 0 0 0.792157 0 0 0 0 0.792157 0 0 0 0 0.792157 0 0 0 0.15 0"/>
<feBlend mode="normal" in2="BackgroundImageFix" result="effect1_dropShadow_522_2539"/>
<feBlend mode="normal" in="SourceGraphic" in2="effect1_dropShadow_522_2539" result="shape"/>
</filter>
<filter id="filter2_d_522_2539" x="47.9626" y="18.5" width="70.5972" height="66.2214" filterUnits="userSpaceOnUse" color-interpolation-filters="sRGB">
<feFlood flood-opacity="0" result="BackgroundImageFix"/>
<feColorMatrix in="SourceAlpha" type="matrix" values="0 0 0 0 0 0 0 0 0 0 0 0 0 0 0 0 0 0 127 0" result="hardAlpha"/>
<feOffset dx="1" dy="1"/>
<feGaussianBlur stdDeviation="7.5"/>
<feComposite in2="hardAlpha" operator="out"/>
<feColorMatrix type="matrix" values="0 0 0 0 0.792157 0 0 0 0 0.792157 0 0 0 0 0.792157 0 0 0 0.15 0"/>
<feBlend mode="normal" in2="BackgroundImageFix" result="effect1_dropShadow_522_2539"/>
<feBlend mode="normal" in="SourceGraphic" in2="effect1_dropShadow_522_2539" result="shape"/>
</filter>
</defs>
</svg>
